<svg width="80" height="80" viewBox="0 0 80 80" fill="none" xmlns="http://www.w3.org/2000/svg">
<g clip-path="url(#clip0_3_11957)">
<mask id="mask0_3_11957" style="mask-type:alpha" maskUnits="userSpaceOnUse" x="0" y="0" width="80" height="80">
<path d="M0 0H80V80H0V0Z" fill="black"/>
</mask>
<g mask="url(#mask0_3_11957)">
<path d="M47.715 74.1512C47.5849 74.151 47.4577 74.1128 47.3491 74.0412C47.2405 73.9695 47.1552 73.8677 47.1038 73.7482C47.0523 73.6288 47.037 73.4968 47.0596 73.3687C47.0822 73.2406 47.1418 73.1219 47.231 73.0272L48.2084 72.0006L46.6337 72.9099C46.5578 72.9581 46.473 72.9905 46.3842 73.0051C46.2955 73.0197 46.2048 73.0162 46.1174 72.9948C46.0301 72.9734 45.948 72.9346 45.8761 72.8806C45.8041 72.8267 45.7439 72.7588 45.6989 72.6809C45.6539 72.6031 45.6251 72.5169 45.6142 72.4277C45.6034 72.3384 45.6107 72.2479 45.6358 72.1615C45.6608 72.0752 45.7031 71.9948 45.76 71.9252C45.8169 71.8556 45.8874 71.7983 45.967 71.7566L51.5044 68.5566C51.6429 68.4773 51.8054 68.4504 51.9621 68.4808C52.1189 68.5111 52.2595 68.5967 52.3585 68.722C52.4574 68.8473 52.5082 69.0039 52.5014 69.1635C52.4947 69.323 52.4309 69.4748 52.3217 69.5912L51.3444 70.6259L51.923 70.2912C51.9989 70.243 52.0838 70.2106 52.1725 70.196C52.2612 70.1814 52.352 70.1849 52.4393 70.2063C52.5266 70.2277 52.6087 70.2665 52.6806 70.3205C52.7526 70.3744 52.8129 70.4424 52.8579 70.5202C52.9028 70.5981 52.9316 70.6842 52.9425 70.7735C52.9533 70.8627 52.946 70.9532 52.9209 71.0396C52.8959 71.126 52.8536 71.2063 52.7967 71.2759C52.7398 71.3455 52.6694 71.4029 52.5897 71.4446L48.0484 74.0672C47.9468 74.1246 47.8316 74.1536 47.715 74.1512Z" fill="#8E4947"/>
<path d="M54.6315 70.7895C54.5029 70.7895 54.377 70.7523 54.269 70.6824C54.161 70.6124 54.0756 70.5127 54.023 70.3953C53.9705 70.2779 53.953 70.1478 53.9727 70.0206C53.9924 69.8935 54.0485 69.7748 54.1342 69.6788L54.3075 69.4842L53.0702 70.1975C52.9281 70.287 52.7575 70.3196 52.5925 70.2888C52.4275 70.2579 52.2801 70.166 52.1799 70.0313C52.0797 69.8966 52.0341 69.729 52.052 69.5621C52.07 69.3952 52.1503 69.2412 52.2769 69.1308L52.6235 68.8015L51.9462 69.1922C51.8703 69.2404 51.7855 69.2728 51.6967 69.2874C51.608 69.302 51.5173 69.2985 51.4299 69.2771C51.3426 69.2557 51.2605 69.2169 51.1886 69.1629C51.1166 69.109 51.0564 69.041 51.0114 68.9632C50.9664 68.8854 50.9376 68.7992 50.9267 68.71C50.9159 68.6207 50.9232 68.5302 50.9483 68.4438C50.9733 68.3575 51.0156 68.2771 51.0725 68.2075C51.1294 68.1379 51.1999 68.0805 51.2795 68.0388L56.8035 64.8535C56.9456 64.7656 57.1155 64.7343 57.2795 64.7657C57.4436 64.7971 57.5899 64.8889 57.6895 65.0231C57.7891 65.1572 57.8347 65.3238 57.8173 65.4899C57.7999 65.6561 57.7207 65.8096 57.5955 65.9202L57.2475 66.2508C57.3859 66.1783 57.5453 66.1567 57.6979 66.1896C57.8506 66.2226 57.9868 66.3082 58.0829 66.4314C58.1789 66.5545 58.2286 66.7075 58.2234 66.8636C58.2182 67.0197 58.1583 67.169 58.0542 67.2855L57.3062 68.1228C57.4192 68.1721 57.5164 68.2517 57.5869 68.3529C57.6574 68.4541 57.6985 68.5728 57.7055 68.6959C57.7126 68.819 57.6853 68.9417 57.6268 69.0503C57.5683 69.1588 57.4809 69.249 57.3742 69.3108L54.9595 70.7055C54.8595 70.7618 54.7463 70.7908 54.6315 70.7895Z" fill="#8E4947"/>
<path d="M58.1004 65.3325C57.974 65.3326 57.8502 65.2967 57.7434 65.229C57.6366 65.1613 57.5513 65.0647 57.4973 64.9504C57.4434 64.836 57.423 64.7087 57.4387 64.5833C57.4544 64.4578 57.5054 64.3394 57.5858 64.2419L58.1444 63.5659L56.3524 64.6005C56.2766 64.6488 56.1917 64.6811 56.103 64.6957C56.0143 64.7103 55.9235 64.7068 55.8362 64.6854C55.7489 64.664 55.6668 64.6252 55.5948 64.5713C55.5229 64.5173 55.4626 64.4494 55.4176 64.3715C55.3726 64.2937 55.3438 64.2076 55.333 64.1183C55.3221 64.029 55.3295 63.9385 55.3545 63.8522C55.3796 63.7658 55.4218 63.6854 55.4788 63.6158C55.5357 63.5462 55.6061 63.4889 55.6858 63.4472L60.6844 60.5605C60.8197 60.4831 60.9779 60.4555 61.1314 60.4826C61.2849 60.5096 61.424 60.5896 61.5247 60.7087C61.6253 60.8277 61.6811 60.9782 61.6823 61.1341C61.6834 61.29 61.63 61.4413 61.5311 61.5619L60.6564 62.6205C60.7878 62.649 60.9075 62.7166 60.9998 62.8144C61.0921 62.9121 61.1526 63.0355 61.1735 63.1683C61.1945 63.3011 61.1747 63.4371 61.1169 63.5585C61.0592 63.6799 60.966 63.781 60.8498 63.8485L58.4338 65.2432C58.3324 65.3017 58.2175 65.3325 58.1004 65.3325Z" fill="#8E4947"/>
<path d="M28.6253 33.7666C28.479 33.7661 28.3369 33.7175 28.2209 33.6282C28.105 33.5389 28.0216 33.414 27.9837 33.2727C27.9458 33.1313 27.9554 32.9814 28.0111 32.8461C28.0668 32.7108 28.1655 32.5976 28.292 32.5239L32.3666 30.1706C32.4425 30.1224 32.5273 30.09 32.6161 30.0754C32.7048 30.0608 32.7955 30.0643 32.8829 30.0857C32.9702 30.1071 33.0523 30.1459 33.1242 30.1999C33.1962 30.2538 33.2565 30.3217 33.3014 30.3996C33.3464 30.4774 33.3752 30.5636 33.3861 30.6528C33.3969 30.7421 33.3896 30.8326 33.3645 30.919C33.3395 31.0053 33.2972 31.0857 33.2403 31.1553C33.1834 31.2249 33.113 31.2823 33.0333 31.3239L28.9586 33.6773C28.8574 33.7361 28.7424 33.767 28.6253 33.7666Z" fill="#8E4947"/>
<path d="M43.4406 78.1689C43.3144 78.169 43.1908 78.1334 43.0841 78.066C42.9774 77.9987 42.892 77.9025 42.8378 77.7885C42.7837 77.6746 42.7629 77.5476 42.7781 77.4223C42.7932 77.2971 42.8435 77.1787 42.9233 77.0809L43.9753 75.7942L41.8033 77.0476C41.6556 77.1329 41.4809 77.1584 41.3151 77.1188C41.1492 77.0792 41.0048 76.9776 40.9116 76.8349C40.8184 76.6921 40.7834 76.5191 40.8138 76.3513C40.8443 76.1835 40.9378 76.0338 41.0753 75.9329L46.7566 71.7609L40.2233 75.5342C40.0748 75.6165 39.9005 75.639 39.736 75.5971C39.5715 75.5553 39.4291 75.4522 39.3379 75.309C39.2468 75.1658 39.2137 74.9932 39.2454 74.8265C39.2771 74.6597 39.3712 74.5113 39.5086 74.4116L47.6339 68.7449L38.4139 74.0676C38.2651 74.153 38.0891 74.1777 37.9225 74.1366C37.7559 74.0956 37.6116 73.9919 37.5195 73.8471C37.4275 73.7023 37.3948 73.5276 37.4282 73.3593C37.4617 73.191 37.5588 73.0421 37.6993 72.9436L47.3633 66.2142L36.3806 72.5543C36.2321 72.6399 36.0564 72.665 35.8898 72.6244C35.7233 72.5839 35.5788 72.4808 35.4863 72.3364C35.3938 72.1921 35.3605 72.0178 35.3932 71.8495C35.4259 71.6813 35.5221 71.5321 35.6619 71.4329L47.0686 63.3449L34.0833 70.8422C33.9323 70.9344 33.7509 70.9627 33.579 70.9211C33.407 70.8795 33.2587 70.7712 33.1666 70.6202C33.0745 70.4693 33.0461 70.2878 33.0878 70.1159C33.1294 69.944 33.2376 69.7957 33.3886 69.7036L34.0846 69.2582L32.8846 69.9503C32.7348 70.0355 32.5577 70.0594 32.3907 70.0169C32.2236 69.9744 32.0795 69.8688 31.9886 69.7224C31.8977 69.5759 31.867 69.3999 31.9031 69.2313C31.9391 69.0628 32.0391 68.9147 32.1819 68.8183L39.3899 64.0182L31.2406 68.7222C31.0898 68.8145 30.9085 68.8431 30.7366 68.8018C30.5647 68.7604 30.4162 68.6524 30.3239 68.5016C30.2316 68.3508 30.203 68.1695 30.2444 67.9975C30.2858 67.8256 30.3938 67.6772 30.5446 67.5849L33.3659 65.7636L29.9313 67.7463C29.7826 67.8294 29.6077 67.8524 29.4425 67.8106C29.2774 67.7688 29.1345 67.6653 29.0432 67.5215C28.9519 67.3777 28.9191 67.2043 28.9516 67.0371C28.9841 66.8699 29.0794 66.7214 29.2179 66.6222L41.2433 58.2809L27.7099 66.0929C27.5609 66.1758 27.3857 66.1984 27.2205 66.1561C27.0553 66.1138 26.9126 66.0098 26.8217 65.8655C26.7309 65.7212 26.6988 65.5475 26.7321 65.3802C26.7653 65.213 26.8614 65.0648 27.0006 64.9663L38.6806 56.9663L25.6019 64.5316C25.4517 64.612 25.2763 64.6319 25.1118 64.587C24.9474 64.5421 24.8064 64.436 24.7178 64.2904C24.6292 64.1447 24.5997 63.9707 24.6354 63.804C24.6712 63.6374 24.7694 63.4907 24.9099 63.3943L27.1366 61.9729L24.3366 63.5876C24.1867 63.6681 24.0116 63.6882 23.8474 63.6438C23.6831 63.5993 23.542 63.4938 23.453 63.3488C23.3641 63.2037 23.3339 63.0301 23.3688 62.8636C23.4037 62.697 23.5009 62.5501 23.6406 62.4529L30.3073 58.1116L22.8019 62.4396C22.6525 62.5261 22.4753 62.5512 22.3076 62.5097C22.14 62.4682 21.995 62.3632 21.9033 62.2169C21.8113 62.0706 21.7798 61.8942 21.8154 61.725C21.8509 61.5559 21.9508 61.4072 22.0939 61.3103L34.4539 52.9329L20.6926 60.8729C20.543 60.9568 20.3668 60.9798 20.2007 60.9371C20.0346 60.8944 19.8913 60.7894 19.8007 60.6438C19.71 60.4982 19.679 60.3232 19.714 60.1553C19.749 59.9874 19.8473 59.8395 19.9886 59.7422L31.0926 52.3476L18.4019 59.6782C18.2518 59.7653 18.0737 59.7904 17.9054 59.7482C17.7372 59.706 17.5919 59.5999 17.5006 59.4523C17.4093 59.3048 17.3792 59.1275 17.4165 58.958C17.4538 58.7886 17.5557 58.6404 17.7006 58.5449L29.0926 50.9996L15.2833 58.9689C15.1335 59.0557 14.9559 59.0808 14.788 59.0391C14.62 58.9973 14.4749 58.8918 14.3833 58.745C14.2917 58.5981 14.2608 58.4214 14.2971 58.2522C14.3335 58.083 14.4342 57.9346 14.5779 57.8383L29.6833 47.6636L12.9433 57.3316C12.793 57.412 12.6176 57.4319 12.4532 57.387C12.2887 57.3421 12.1477 57.236 12.0591 57.0904C11.9705 56.9447 11.941 56.7707 11.9768 56.604C12.0125 56.4374 12.1107 56.2907 12.2513 56.1942L19.6406 51.4649L12.3299 55.6889C12.1795 55.7764 12.0007 55.8016 11.8319 55.7591C11.6632 55.7166 11.5177 55.6097 11.4266 55.4614C11.3356 55.313 11.3061 55.135 11.3446 54.9652C11.3831 54.7955 11.4865 54.6475 11.6326 54.5529L22.7926 47.2796L12.8019 53.0449C12.652 53.1288 12.4754 53.1515 12.3091 53.1084C12.1428 53.0653 11.9996 52.9596 11.9093 52.8134C11.819 52.6672 11.7886 52.4918 11.8245 52.3238C11.8604 52.1558 11.9598 52.0081 12.1019 51.9116L22.1499 45.3249L13.2699 50.4529C13.1203 50.5368 12.9442 50.5598 12.778 50.5171C12.6119 50.4744 12.4687 50.3694 12.378 50.2238C12.2874 50.0782 12.2563 49.9032 12.2913 49.7353C12.3263 49.5674 12.4247 49.4195 12.5659 49.3222L22.2833 42.8156L13.7499 47.7396C13.5991 47.8319 13.4178 47.8605 13.2459 47.8191C13.074 47.7777 12.9256 47.6697 12.8333 47.5189C12.741 47.3681 12.7124 47.1868 12.7538 47.0149C12.7951 46.843 12.9031 46.6945 13.0539 46.6022L15.3513 45.1143L14.0926 45.8396C13.9431 45.9248 13.7665 45.9489 13.5996 45.9068C13.4328 45.8648 13.2886 45.7599 13.1974 45.614C13.1061 45.4681 13.0747 45.2926 13.1099 45.1242C13.145 44.9558 13.2439 44.8074 13.3859 44.7103L19.0713 40.8609L14.5193 43.4916C14.3831 43.5702 14.2234 43.5982 14.0686 43.5705C13.9138 43.5429 13.7737 43.4614 13.6732 43.3404C13.5726 43.2194 13.5181 43.0668 13.5192 42.9095C13.5203 42.7523 13.577 42.6004 13.6793 42.4809L14.8953 41.0649C14.7391 41.134 14.5623 41.1405 14.4015 41.0831C14.2406 41.0256 14.1079 40.9087 14.0308 40.7563C13.9537 40.6039 13.938 40.4277 13.9869 40.2641C14.0359 40.1005 14.1458 39.9619 14.2939 39.8769L17.6019 37.9662C17.738 37.8884 17.8971 37.8609 18.0514 37.8888C18.2057 37.9166 18.3452 37.9979 18.4455 38.1184C18.5458 38.2389 18.6004 38.3909 18.5998 38.5476C18.5991 38.7044 18.5432 38.8559 18.4419 38.9756L17.2339 40.3849L34.5353 30.3983C34.6844 30.3165 34.8592 30.2948 35.0238 30.3377C35.1884 30.3806 35.3304 30.4848 35.4207 30.6289C35.511 30.7731 35.5428 30.9463 35.5096 31.1131C35.4763 31.2799 35.3806 31.4277 35.2419 31.5262L29.5593 35.3742L37.0139 31.0716C37.1642 30.9876 37.3412 30.965 37.5078 31.0086C37.6744 31.0522 37.8176 31.1585 37.9076 31.3053C37.9975 31.4521 38.0272 31.628 37.9903 31.7962C37.9535 31.9644 37.853 32.1118 37.7099 32.2076L35.3886 33.7129L39.0206 31.6169C39.1699 31.5362 39.3443 31.5155 39.5083 31.5589C39.6724 31.6023 39.8137 31.7067 39.9034 31.8507C39.9932 31.9947 40.0247 32.1675 39.9915 32.3339C39.9582 32.5003 39.8628 32.6478 39.7246 32.7463L30.0206 39.2449L41.8873 32.3942C42.0372 32.3104 42.2138 32.2876 42.3801 32.3308C42.5464 32.3739 42.6896 32.4796 42.7799 32.6258C42.8702 32.7719 42.9006 32.9473 42.8647 33.1153C42.8288 33.2834 42.7294 33.431 42.5873 33.5276L32.5299 40.1209L43.4886 33.7943C43.6388 33.7089 43.8163 33.6851 43.9836 33.728C44.151 33.7709 44.2952 33.8771 44.3858 34.0243C44.4764 34.1714 44.5063 34.3479 44.4693 34.5167C44.4322 34.6854 44.3311 34.8332 44.1873 34.9289L33.0299 42.2009L44.6953 35.4676C44.8455 35.3871 45.0209 35.3673 45.1854 35.4122C45.3498 35.457 45.4908 35.5632 45.5794 35.7088C45.668 35.8544 45.6975 36.0284 45.6618 36.1951C45.626 36.3618 45.5278 36.5084 45.3873 36.6049L38.0019 41.3223L45.7006 36.8769C45.8505 36.7832 46.0316 36.7529 46.2038 36.7927C46.3761 36.8324 46.5256 36.939 46.6193 37.0889C46.713 37.2389 46.7433 37.4199 46.7035 37.5922C46.6638 37.7644 46.5572 37.9139 46.4073 38.0076L31.2966 48.1836L47.2206 38.9836C47.3707 38.8966 47.5488 38.8715 47.7171 38.9137C47.8854 38.9558 48.0306 39.062 48.1219 39.2095C48.2132 39.357 48.2434 39.5344 48.206 39.7038C48.1687 39.8732 48.0668 40.0214 47.9219 40.1169L36.5259 47.6649L48.4953 40.7542C48.6451 40.669 48.8221 40.6451 48.9892 40.6876C49.1563 40.7301 49.3004 40.8357 49.3913 40.9821C49.4822 41.1286 49.5129 41.3046 49.4768 41.4732C49.4408 41.6417 49.3408 41.7898 49.1979 41.8863L38.0913 49.2823L49.7779 42.5356C49.9274 42.4504 50.1041 42.4263 50.2709 42.4683C50.4378 42.5104 50.5819 42.6153 50.6732 42.7612C50.7644 42.907 50.7958 43.0825 50.7606 43.251C50.7255 43.4194 50.6266 43.5677 50.4846 43.6649L38.1353 52.0476L51.2019 44.5063C51.3519 44.4258 51.5269 44.4057 51.6912 44.4501C51.8554 44.4945 51.9965 44.6 52.0855 44.7451C52.1745 44.8901 52.2046 45.0637 52.1697 45.2303C52.1349 45.3968 52.0376 45.5437 51.8979 45.6409L45.2313 49.9783L52.2286 45.9396C52.3795 45.8512 52.559 45.8256 52.7286 45.8683C52.8982 45.911 53.0441 46.0187 53.1351 46.168C53.226 46.3174 53.2546 46.4965 53.2148 46.6668C53.1749 46.837 53.0697 46.9848 52.9219 47.0783L50.6953 48.4982L53.0766 47.1236C53.2256 47.0407 53.4008 47.0181 53.566 47.0604C53.7312 47.1027 53.8739 47.2067 53.9648 47.351C54.0556 47.4953 54.0877 47.669 54.0545 47.8363C54.0212 48.0035 53.9251 48.1517 53.7859 48.2502L42.0993 56.2502L54.4993 49.0942C54.6483 49.0075 54.8251 48.9819 54.9927 49.0228C55.1602 49.0637 55.3053 49.1679 55.3976 49.3135C55.49 49.4592 55.5223 49.6349 55.4878 49.8039C55.4533 49.9728 55.3546 50.1218 55.2126 50.2196L43.1966 58.5556L55.9966 51.1676C56.0713 51.1219 56.1542 51.0913 56.2407 51.0777C56.3272 51.0641 56.4155 51.0676 56.5006 51.0881C56.5858 51.1086 56.666 51.1456 56.7368 51.1971C56.8076 51.2486 56.8676 51.3136 56.9133 51.3882C56.959 51.4629 56.9895 51.5459 57.0032 51.6324C57.0168 51.7188 57.0133 51.8072 56.9928 51.8923C56.9723 51.9774 56.9352 52.0577 56.8837 52.1285C56.8322 52.1993 56.7673 52.2592 56.6926 52.3049L53.8513 54.1316L56.8686 52.3889C57.0186 52.2998 57.1975 52.2731 57.367 52.3144C57.5365 52.3557 57.683 52.4619 57.7752 52.61C57.8673 52.7582 57.8977 52.9365 57.8598 53.1068C57.822 53.2771 57.7188 53.4258 57.5726 53.5209L50.3553 58.3209L57.9739 53.9209C58.1256 53.8288 58.3077 53.8007 58.4801 53.8428C58.6525 53.885 58.8011 53.9939 58.8933 54.1456C58.9854 54.2973 59.0135 54.4794 58.9713 54.6518C58.9292 54.8242 58.8203 54.9728 58.6686 55.0649L57.9793 55.5063L58.7793 55.0449C58.9278 54.9593 59.1035 54.9342 59.27 54.9747C59.4366 55.0153 59.5811 55.1184 59.6736 55.2627C59.7661 55.407 59.7994 55.5814 59.7667 55.7497C59.734 55.9179 59.6377 56.0671 59.4979 56.1662L48.0939 64.2516L60.3246 57.1849C60.4731 57.1027 60.6474 57.0802 60.8119 57.1221C60.9764 57.1639 61.1188 57.2669 61.2099 57.4101C61.3011 57.5533 61.3342 57.7259 61.3025 57.8927C61.2708 58.0594 61.1766 58.2078 61.0393 58.3076L51.3699 65.0409L60.4779 59.7836C60.6268 59.6952 60.8043 59.6682 60.9728 59.7083C61.1413 59.7484 61.2875 59.8526 61.3806 59.9986C61.4736 60.1447 61.5062 60.3213 61.4714 60.4909C61.4365 60.6606 61.337 60.81 61.1939 60.9076L53.0686 66.5756L56.6033 64.5316C56.7518 64.4345 56.9328 64.4004 57.1064 64.4368C57.1924 64.4548 57.274 64.4896 57.3466 64.5391C57.4191 64.5887 57.4812 64.652 57.5293 64.7256C57.5773 64.7991 57.6104 64.8814 57.6267 64.9677C57.643 65.0541 57.6421 65.1428 57.6241 65.2288C57.606 65.3148 57.5713 65.3963 57.5217 65.4689C57.4722 65.5414 57.4088 65.6035 57.3353 65.6516L47.3353 72.9956C47.4245 73.1148 47.4713 73.2604 47.4681 73.4092C47.465 73.5581 47.4121 73.7016 47.3179 73.8169L46.2646 75.1062L46.3753 75.0423C46.4511 74.994 46.536 74.9616 46.6247 74.947C46.7134 74.9324 46.8042 74.9359 46.8915 74.9573C46.9789 74.9787 47.061 75.0176 47.1329 75.0715C47.2048 75.1254 47.2651 75.1934 47.3101 75.2712C47.3551 75.3491 47.3839 75.4352 47.3947 75.5245C47.4056 75.6137 47.3982 75.7043 47.3732 75.7906C47.3481 75.877 47.3059 75.9573 47.2489 76.0269C47.192 76.0965 47.1216 76.1539 47.0419 76.1956L43.7806 78.0796C43.6773 78.1392 43.5599 78.1701 43.4406 78.1689Z" fill="#A3584A"/>
<path d="M46.3356 24.3325C46.2274 24.3325 46.1209 24.3062 46.0252 24.2559C45.9294 24.2056 45.8474 24.1327 45.7861 24.0436C45.7248 23.9545 45.6861 23.8518 45.6734 23.7444C45.6606 23.637 45.6742 23.5281 45.7129 23.4272L45.9502 22.8085L44.9836 23.3658C44.8513 23.4412 44.6972 23.469 44.547 23.4447C44.3967 23.4204 44.2593 23.3453 44.1575 23.2321C44.0558 23.1188 43.9959 22.9742 43.9878 22.8222C43.9797 22.6701 44.0238 22.5199 44.1129 22.3965L44.5569 21.7872L43.3209 22.5005C43.189 22.5762 43.0351 22.6046 42.8849 22.5808C42.7346 22.5571 42.597 22.4827 42.4949 22.37C42.3928 22.2573 42.3322 22.113 42.3234 21.9611C42.3145 21.8093 42.3579 21.659 42.4462 21.5352L44.1676 19.1352L40.7009 21.1352C40.556 21.2191 40.3849 21.2454 40.2215 21.2089C40.0581 21.1724 39.9144 21.0758 39.819 20.9382C39.7236 20.8006 39.6834 20.6322 39.7065 20.4663C39.7296 20.3005 39.8142 20.1494 39.9436 20.0432L40.9702 19.1978L32.7356 23.9525C32.6625 24.001 32.5805 24.0346 32.4944 24.0515C32.4083 24.0683 32.3198 24.068 32.2338 24.0506C32.1478 24.0332 32.0661 23.999 31.9933 23.9501C31.9205 23.9011 31.8581 23.8383 31.8096 23.7652C31.7611 23.6921 31.7274 23.6101 31.7106 23.524C31.6938 23.4379 31.6941 23.3493 31.7115 23.2634C31.7288 23.1774 31.763 23.0956 31.812 23.0229C31.861 22.9501 31.9238 22.8877 31.9969 22.8392L41.1302 16.1152L33.2782 20.6485C33.1298 20.7319 32.9552 20.7553 32.7901 20.714C32.6249 20.6728 32.4818 20.5699 32.3901 20.4265C32.2984 20.2831 32.265 20.1101 32.2967 19.9429C32.3285 19.7757 32.423 19.6269 32.5609 19.5272L35.9609 17.1338L33.6516 18.4672C33.5054 18.5518 33.3326 18.5778 33.168 18.5399C33.0034 18.5021 32.8593 18.4031 32.7648 18.2631C32.6704 18.1231 32.6326 17.9525 32.6591 17.7857C32.6856 17.6189 32.7744 17.4683 32.9076 17.3645L37.2956 13.9192L33.6302 16.0325C33.4856 16.1145 33.3154 16.1396 33.1533 16.1026C32.9911 16.0657 32.8486 15.9695 32.7537 15.8329C32.6588 15.6962 32.6185 15.5291 32.6405 15.3642C32.6626 15.1994 32.7455 15.0487 32.8729 14.9418L36.6889 11.7925L32.0222 14.4832C31.878 14.5642 31.7089 14.5888 31.5476 14.5521C31.3863 14.5154 31.2444 14.4201 31.1494 14.2846C31.0545 14.1491 31.0134 13.9832 31.034 13.8191C31.0546 13.6549 31.1354 13.5043 31.2609 13.3965L35.9182 9.49249L30.2516 12.7645C30.1613 12.8168 30.0599 12.8472 29.9557 12.8533C29.8515 12.8593 29.7473 12.8408 29.6516 12.7992C29.5559 12.7572 29.4714 12.6934 29.4049 12.6128C29.3385 12.5322 29.2919 12.4371 29.2689 12.3352L28.8529 10.4965L28.3756 10.7725C28.2223 10.8609 28.0401 10.8848 27.8692 10.8389C27.6983 10.793 27.5526 10.6811 27.4642 10.5278C27.3758 10.3745 27.3519 10.1924 27.3978 10.0215C27.4437 9.85057 27.5556 9.70489 27.7089 9.61649L28.9689 8.88982C29.0598 8.83818 29.1614 8.80841 29.2658 8.80285C29.3702 8.7973 29.4744 8.81612 29.5702 8.85782C29.6658 8.89964 29.7501 8.96328 29.8166 9.04364C29.8831 9.12399 29.9297 9.21881 29.9529 9.32049L30.3689 11.1578L41.8769 4.51515C42.0211 4.43406 42.1903 4.40947 42.3516 4.44617C42.5129 4.48286 42.6548 4.57821 42.7497 4.7137C42.8446 4.84918 42.8858 5.01511 42.8652 5.17924C42.8446 5.34338 42.7637 5.494 42.6382 5.60182L37.9809 9.50715L42.9436 6.64182C43.0884 6.55791 43.2596 6.53159 43.423 6.56808C43.5864 6.60458 43.7301 6.70122 43.8255 6.83879C43.9209 6.97637 43.9611 7.14481 43.938 7.31064C43.9149 7.47646 43.8303 7.62753 43.7009 7.73382L39.8862 10.8818L44.7356 8.08182C44.8815 7.99937 45.0531 7.97491 45.2163 8.01332C45.3794 8.05172 45.5221 8.15017 45.6159 8.28906C45.7098 8.42795 45.7478 8.59708 45.7226 8.76277C45.6973 8.92846 45.6105 9.07855 45.4796 9.18315L41.0942 12.6312L48.1302 8.57115C48.2789 8.4843 48.4555 8.45835 48.6229 8.49874C48.7903 8.53914 48.9355 8.64274 49.0283 8.78786C49.121 8.93297 49.154 9.10833 49.1203 9.27721C49.0866 9.44609 48.9889 9.59538 48.8476 9.69382L45.4409 12.0938L50.8596 8.96715C51.0069 8.88457 51.1802 8.86101 51.3442 8.90124C51.5083 8.94147 51.651 9.04248 51.7435 9.18387C51.8359 9.32526 51.8712 9.49648 51.8423 9.66292C51.8134 9.82935 51.7223 9.9786 51.5876 10.0805L42.4542 16.8005L47.2542 14.0285C47.399 13.945 47.5697 13.9189 47.7328 13.9553C47.8958 13.9917 48.0393 14.0881 48.1347 14.2252C48.2301 14.3624 48.2705 14.5304 48.248 14.6959C48.2254 14.8615 48.1415 15.0125 48.0129 15.1192L46.5222 16.3472C46.6431 16.3506 46.7608 16.387 46.8626 16.4522C46.9644 16.5174 47.0466 16.6092 47.1003 16.7175C47.154 16.8259 47.1772 16.9468 47.1675 17.0673C47.1577 17.1879 47.1153 17.3035 47.0449 17.4018L45.3302 19.8045L46.6302 19.0538C46.7626 18.9779 46.9171 18.9497 47.0678 18.9739C47.2185 18.9981 47.3563 19.0733 47.4582 19.187C47.5601 19.3006 47.62 19.4457 47.6277 19.5982C47.6355 19.7506 47.5907 19.9011 47.5009 20.0245L47.0382 20.6578C47.1581 20.6176 47.2869 20.6122 47.4097 20.6425C47.5325 20.6727 47.6442 20.7372 47.7317 20.8285C47.8192 20.9197 47.8789 21.034 47.9039 21.158C47.9289 21.2819 47.9182 21.4104 47.8729 21.5285L47.5756 22.3058C47.7187 22.3136 47.8555 22.3674 47.9657 22.4591C48.0759 22.5508 48.1536 22.6755 48.1873 22.8149C48.221 22.9542 48.2089 23.1007 48.1527 23.2326C48.0965 23.3646 47.9994 23.4748 47.8756 23.5472L46.6756 24.2432C46.5723 24.3028 46.4549 24.3337 46.3356 24.3325Z" fill="#FFC900"/>
<path d="M37.3699 6.6044C37.2494 6.60442 37.1312 6.57179 37.0277 6.50996C36.9243 6.44814 36.8396 6.35945 36.7825 6.25331C36.7255 6.14717 36.6983 6.02756 36.7038 5.90719C36.7093 5.78683 36.7474 5.67021 36.8139 5.56974L38.8139 2.5444C38.7754 2.50373 38.7415 2.45902 38.7126 2.41107C38.6688 2.33517 38.6405 2.25141 38.6292 2.16456C38.6179 2.07771 38.6237 1.98947 38.6465 1.9049C38.6693 1.82033 38.7085 1.74108 38.762 1.67167C38.8154 1.60227 38.882 1.54407 38.9579 1.5004L39.9819 0.909737C40.112 0.834568 40.2637 0.805564 40.4124 0.827429C40.5611 0.849295 40.698 0.920748 40.8009 1.0302C40.9039 1.13965 40.9669 1.28067 40.9796 1.4304C40.9924 1.58013 40.9542 1.72978 40.8712 1.85507L39.4912 3.94307L41.1166 3.00974C41.2689 2.93004 41.4462 2.91228 41.6113 2.96019C41.7765 3.0081 41.9167 3.11796 42.0028 3.26683C42.0888 3.4157 42.114 3.59206 42.0731 3.75907C42.0322 3.92608 41.9283 4.07083 41.7832 4.16307L37.7032 6.51907C37.6018 6.57685 37.4866 6.60632 37.3699 6.6044Z" fill="#FFC900"/>
<path d="M22.5874 29.5873C22.4803 29.5872 22.3748 29.5612 22.2799 29.5116C22.185 29.4621 22.1034 29.3904 22.0421 29.3026C21.9807 29.2148 21.9414 29.1136 21.9275 29.0074C21.9136 28.9012 21.9254 28.7933 21.962 28.6927L22.1234 28.2473L21.4047 28.6607C21.2734 28.7364 21.1202 28.7651 20.9704 28.7421C20.8206 28.719 20.6831 28.6456 20.5806 28.534C20.4781 28.4223 20.4167 28.279 20.4065 28.1278C20.3964 27.9766 20.4381 27.8264 20.5247 27.702L20.8474 27.242L19.8594 27.81C19.7215 27.8883 19.5602 27.9149 19.4044 27.885C19.2487 27.8551 19.1087 27.7707 19.0096 27.6469C18.9105 27.523 18.8588 27.3679 18.8638 27.2094C18.8688 27.0509 18.9301 26.8994 19.0367 26.782L20.2554 25.4633L13.9967 29.07C13.8504 29.1535 13.678 29.1785 13.514 29.14C13.35 29.1016 13.2067 29.0025 13.1128 28.8626C13.0189 28.7228 12.9814 28.5526 13.0079 28.3863C13.0343 28.22 13.1227 28.0698 13.2554 27.966L17.5607 24.6407L14.4154 26.4567C14.2742 26.5431 14.1059 26.5739 13.9433 26.543C13.7807 26.5122 13.6353 26.422 13.5355 26.29C13.4357 26.1579 13.3886 25.9934 13.4034 25.8286C13.4181 25.6637 13.4937 25.5102 13.6154 25.398L17.3487 21.8127L14.2767 23.6033C14.1348 23.6835 13.9684 23.7089 13.809 23.6747C13.6496 23.6405 13.5082 23.549 13.4117 23.4177C13.3151 23.2863 13.2701 23.1241 13.285 22.9618C13.2999 22.7995 13.3738 22.6482 13.4927 22.5367L15.626 20.582L12.874 22.166C12.7858 22.2172 12.687 22.2474 12.5852 22.2544C12.4835 22.2614 12.3814 22.245 12.287 22.2063C12.1926 22.1677 12.1083 22.1079 12.0407 22.0315C11.973 21.9552 11.9237 21.8644 11.8967 21.766L11.4407 20.0553L11.0634 20.27C10.9875 20.3182 10.9026 20.3506 10.8139 20.3652C10.7252 20.3798 10.6345 20.3763 10.5471 20.3549C10.4598 20.3335 10.3777 20.2947 10.3058 20.2407C10.2338 20.1868 10.1735 20.1189 10.1286 20.041C10.0836 19.9632 10.0548 19.877 10.0439 19.7878C10.0331 19.6985 10.0404 19.608 10.0655 19.5216C10.0905 19.4353 10.1328 19.3549 10.1897 19.2853C10.2466 19.2157 10.317 19.1583 10.3967 19.1167L11.526 18.4647C11.6146 18.4132 11.7138 18.3828 11.816 18.3758C11.9182 18.3689 12.0207 18.3856 12.1154 18.4247C12.21 18.4638 12.2944 18.5242 12.3619 18.6012C12.4294 18.6782 12.4783 18.7697 12.5047 18.8687L12.9607 20.5793L20.2474 16.3713C20.3893 16.2912 20.5557 16.2658 20.7151 16.3C20.8745 16.3342 21.0159 16.4256 21.1124 16.557C21.209 16.6883 21.254 16.8505 21.2391 17.0129C21.2242 17.1752 21.1503 17.3265 21.0314 17.438L18.898 19.3927L21.47 17.9073C21.6112 17.8209 21.7795 17.7901 21.9421 17.821C22.1048 17.8518 22.2501 17.942 22.3499 18.074C22.4497 18.2061 22.4968 18.3706 22.482 18.5354C22.4673 18.7003 22.3917 18.8538 22.27 18.966L18.5367 22.5513L25.5194 18.522C25.6656 18.4401 25.8373 18.4163 26.0003 18.4553C26.1633 18.4943 26.3056 18.5933 26.3989 18.7325C26.4922 18.8717 26.5296 19.0409 26.5038 19.2065C26.4779 19.3721 26.3907 19.5219 26.2594 19.626L21.9607 22.9447L23.406 22.1113C23.5441 22.0321 23.7059 22.0049 23.8623 22.0346C24.0187 22.0643 24.1592 22.149 24.2586 22.2734C24.358 22.3977 24.4096 22.5535 24.4041 22.7125C24.3986 22.8716 24.3364 23.0235 24.2287 23.1407L22.9567 24.518C23.0885 24.4836 23.2277 24.4904 23.3556 24.5374C23.4834 24.5845 23.5937 24.6697 23.6717 24.7813C23.7497 24.893 23.7917 25.026 23.7918 25.1622C23.792 25.2984 23.7504 25.4314 23.6727 25.5433L23.2874 26.0953C23.3807 26.0815 23.476 26.0877 23.5667 26.1134C23.6575 26.1392 23.7418 26.1839 23.814 26.2447C23.9187 26.3324 23.9939 26.4502 24.0294 26.5821C24.0649 26.7139 24.0591 26.8535 24.0127 26.982L23.7647 27.6633C23.8984 27.6885 24.0212 27.754 24.1166 27.8511C24.212 27.9481 24.2754 28.072 24.2983 28.2061C24.3213 28.3402 24.3026 28.4781 24.2449 28.6013C24.1872 28.7245 24.0931 28.8271 23.9754 28.8953L22.9327 29.4967C22.828 29.5577 22.7086 29.5891 22.5874 29.5873Z" fill="#FFC900"/>
<path d="M16.4489 18.2685C16.3301 18.2687 16.2134 18.2371 16.1109 18.1771C16.0084 18.117 15.9238 18.0306 15.8658 17.9269C15.8079 17.8231 15.7788 17.7058 15.7814 17.587C15.7841 17.4682 15.8184 17.3523 15.8809 17.2512L17.6223 14.4312C17.5996 14.4035 17.5791 14.3741 17.5609 14.3432C17.5169 14.2673 17.4884 14.1835 17.4768 14.0966C17.4653 14.0097 17.471 13.9213 17.4937 13.8366C17.5164 13.7519 17.5555 13.6724 17.6089 13.6029C17.6623 13.5333 17.7289 13.475 17.8049 13.4312L18.6236 12.9605C18.7527 12.8839 18.9039 12.8531 19.0526 12.8731C19.2014 12.8931 19.3391 12.9628 19.4434 13.0707C19.5477 13.1787 19.6125 13.3187 19.6273 13.4681C19.6421 13.6175 19.606 13.7675 19.5249 13.8939L18.3983 15.7085L19.5983 15.0152C19.6741 14.967 19.759 14.9346 19.8477 14.92C19.9364 14.9054 20.0272 14.9089 20.1145 14.9303C20.2018 14.9517 20.284 14.9905 20.3559 15.0445C20.4278 15.0984 20.4881 15.1663 20.5331 15.2442C20.5781 15.322 20.6069 15.4082 20.6177 15.4974C20.6286 15.5867 20.6212 15.6772 20.5962 15.7636C20.5711 15.8499 20.5289 15.9303 20.4719 15.9999C20.415 16.0695 20.3446 16.1269 20.2649 16.1685L16.7729 18.1845C16.6741 18.2403 16.5624 18.2692 16.4489 18.2685Z" fill="#FFC900"/>
<path d="M64.9274 29.4072C64.7777 29.4075 64.6324 29.3567 64.5154 29.2632C64.4106 29.1807 64.333 29.0685 64.2926 28.9414C64.2521 28.8142 64.2508 28.6778 64.2888 28.5499L64.7408 27.0379L62.9741 28.0566C62.8396 28.1337 62.6824 28.1615 62.5296 28.1352C62.3768 28.1089 62.2379 28.0302 62.1369 27.9126C62.0358 27.795 61.9789 27.6458 61.976 27.4908C61.9731 27.3358 62.0243 27.1846 62.1208 27.0632L64.0928 24.5952L56.7021 28.8619C56.5542 28.9448 56.3803 28.9682 56.2158 28.9274C56.0512 28.8867 55.9084 28.7847 55.8164 28.6424C55.7243 28.5001 55.6899 28.328 55.7202 28.1612C55.7505 27.9944 55.8432 27.8454 55.9794 27.7446L57.9394 26.3299L57.0234 26.8632C56.8795 26.9478 56.709 26.9753 56.5457 26.9402C56.3825 26.9051 56.2383 26.81 56.1418 26.6738C56.0453 26.5375 56.0034 26.37 56.0244 26.2044C56.0455 26.0387 56.1279 25.887 56.2554 25.7792L59.6914 22.8459L57.4594 24.1339C57.3207 24.2151 57.1572 24.2434 56.9992 24.2136C56.8413 24.1839 56.6993 24.098 56.5997 23.9718C56.5 23.8457 56.4492 23.6878 56.4568 23.5272C56.4643 23.3666 56.5297 23.2141 56.6408 23.0979L59.6674 19.8979L55.6074 22.2419C55.5193 22.2923 55.4209 22.3219 55.3196 22.3285C55.2183 22.3351 55.1169 22.3184 55.023 22.2799C54.9291 22.2413 54.8453 22.1818 54.7779 22.1059C54.7105 22.03 54.6613 21.9397 54.6341 21.8419L54.1221 20.0472L53.7274 20.2699C53.6516 20.3181 53.5667 20.3505 53.478 20.3651C53.3893 20.3797 53.2985 20.3762 53.2112 20.3548C53.1239 20.3334 53.0417 20.2946 52.9698 20.2406C52.8979 20.1867 52.8376 20.1188 52.7926 20.0409C52.7476 19.9631 52.7188 19.8769 52.708 19.7877C52.6971 19.6984 52.7045 19.6079 52.7295 19.5215C52.7546 19.4352 52.7968 19.3548 52.8538 19.2852C52.9107 19.2156 52.9811 19.1582 53.0608 19.1166L54.1901 18.4646C54.2783 18.4139 54.3768 18.3841 54.4783 18.3773C54.5797 18.3706 54.6814 18.3872 54.7754 18.4258C54.8695 18.4644 54.9535 18.524 55.0209 18.6001C55.0884 18.6761 55.1376 18.7666 55.1648 18.8646L55.6768 20.6579L62.9514 16.4592C63.09 16.38 63.2525 16.3531 63.4092 16.3834C63.5659 16.4138 63.7066 16.4994 63.8056 16.6247C63.9045 16.75 63.9552 16.9066 63.9485 17.0661C63.9417 17.2256 63.878 17.3774 63.7688 17.4939L60.7421 20.6939L65.2608 18.0859C65.4045 18.0044 65.5734 17.9792 65.7347 18.0151C65.896 18.0511 66.0382 18.1457 66.1337 18.2805C66.2292 18.4154 66.2712 18.5809 66.2516 18.745C66.2319 18.9091 66.1521 19.06 66.0274 19.1686L62.5941 22.1019L68.6608 18.6006C68.8087 18.5177 68.9825 18.4942 69.1471 18.535C69.3116 18.5758 69.4545 18.6777 69.5465 18.82C69.6386 18.9624 69.673 19.1345 69.6427 19.3012C69.6124 19.468 69.5197 19.617 69.3834 19.7179L66.7981 21.5846C66.8969 21.5833 66.9947 21.6032 67.0851 21.643C67.1755 21.6828 67.2563 21.7415 67.3221 21.8152C67.4238 21.933 67.4811 22.0827 67.484 22.2383C67.4869 22.3939 67.4353 22.5457 67.3381 22.6672L65.3648 25.1366L65.5208 25.0459C65.6362 24.9794 65.769 24.949 65.9019 24.9587C66.0348 24.9684 66.1617 25.0177 66.2663 25.1002C66.3709 25.1827 66.4484 25.2947 66.4888 25.4216C66.5291 25.5486 66.5305 25.6848 66.4928 25.8126L66.0354 27.3459C66.1916 27.2981 66.3598 27.3092 66.5083 27.3772C66.6567 27.4452 66.7751 27.5654 66.8408 27.7148C66.9066 27.8643 66.9152 28.0327 66.8651 28.1881C66.8149 28.3435 66.7095 28.4751 66.5688 28.5579L65.2528 29.3166C65.1539 29.3742 65.0419 29.4054 64.9274 29.4072Z" fill="#FFC900"/>
<path d="M59.0494 18.4168C58.9603 18.4167 58.8722 18.3986 58.7902 18.3638C58.7082 18.329 58.634 18.2781 58.5721 18.2142C58.4688 18.1082 58.4037 17.9709 58.3871 17.8239C58.3704 17.6769 58.4031 17.5285 58.4801 17.4022L60.2947 14.4395C60.2707 14.4105 60.2489 14.3797 60.2294 14.3475C60.1854 14.2716 60.1568 14.1878 60.1453 14.1009C60.1338 14.014 60.1395 13.9256 60.1621 13.8409C60.1848 13.7562 60.224 13.6767 60.2774 13.6072C60.3308 13.5376 60.3974 13.4793 60.4734 13.4355L61.2921 12.9648C61.4204 12.8904 61.5699 12.8609 61.717 12.8811C61.864 12.9012 62.0001 12.9698 62.1037 13.076C62.2073 13.1823 62.2725 13.32 62.289 13.4675C62.3055 13.6149 62.2723 13.7637 62.1947 13.8902L60.9867 15.8675L62.3201 15.1008C62.4731 15.0138 62.6543 14.9909 62.8242 15.037C62.9941 15.0831 63.1389 15.1946 63.2269 15.347C63.3149 15.4995 63.3391 15.6806 63.2941 15.8508C63.2491 16.021 63.1386 16.1665 62.9867 16.2555L59.3867 18.3315C59.2841 18.3899 59.1675 18.4194 59.0494 18.4168Z" fill="#FFC900"/>
<path d="M34.0913 79.293C33.9611 79.293 33.8337 79.2549 33.7249 79.1834C33.6161 79.1119 33.5306 79.0101 33.479 78.8906C33.4274 78.771 33.4119 78.639 33.4345 78.5108C33.457 78.3825 33.5167 78.2637 33.606 78.169L36.134 75.485L31.8313 77.9703C31.6893 78.0516 31.5224 78.0778 31.3623 78.0441C31.2023 78.0103 31.0602 77.9188 30.9632 77.787C30.8662 77.6553 30.821 77.4924 30.8363 77.3296C30.8516 77.1667 30.9262 77.0151 31.046 76.9036L33.9887 74.197L31.2247 75.797C31.0826 75.8794 30.9152 75.9066 30.7544 75.8732C30.5936 75.8399 30.4508 75.7483 30.3533 75.6162C30.2558 75.484 30.2106 75.3205 30.2262 75.157C30.2418 74.9936 30.3172 74.8416 30.438 74.7303L32.0873 73.1996L27.946 75.5863C27.8042 75.6624 27.6397 75.6846 27.4828 75.6489C27.3259 75.6132 27.1872 75.5219 27.0923 75.3919C26.9974 75.262 26.9528 75.1021 26.9665 74.9417C26.9803 74.7814 27.0516 74.6315 27.1673 74.5196L30.8513 71.1996L26.0647 73.9636C25.9191 74.0495 25.7464 74.0769 25.5814 74.0403C25.4164 74.0037 25.2715 73.9058 25.1759 73.7663C25.0804 73.6269 25.0414 73.4564 25.0667 73.2893C25.0921 73.1223 25.18 72.971 25.3127 72.8663L28.2673 70.4903L25.8327 71.8956C25.6907 71.9769 25.5238 72.0032 25.3637 71.9694C25.2036 71.9356 25.0615 71.8441 24.9645 71.7124C24.8675 71.5806 24.8224 71.4178 24.8376 71.2549C24.8529 71.092 24.9275 70.9404 25.0473 70.829L28.2087 67.9183L22.8753 70.9983C22.7333 71.0862 22.5634 71.1175 22.3993 71.0861C22.2352 71.0547 22.0889 70.9629 21.9894 70.8288C21.8898 70.6946 21.8442 70.528 21.8616 70.3619C21.879 70.1958 21.9581 70.0422 22.0833 69.9316L25.8393 66.3796L21.2833 69.0103C21.1414 69.0894 20.9755 69.1139 20.8167 69.0793C20.658 69.0447 20.5174 68.9534 20.4213 68.8224C20.3251 68.6914 20.2802 68.5298 20.2948 68.368C20.3094 68.2062 20.3826 68.0553 20.5007 67.9436L23.9167 64.821L20.3913 66.857C20.2522 66.9373 20.0887 66.9647 19.9309 66.9341C19.7732 66.9034 19.6318 66.8169 19.5328 66.6903C19.4339 66.5637 19.3839 66.4057 19.3922 66.2452C19.4005 66.0847 19.4665 65.9327 19.578 65.817L21.294 64.037L17.642 66.1436C17.4961 66.2261 17.3244 66.2505 17.1613 66.2121C16.9981 66.1737 16.8554 66.0753 16.7616 65.9364C16.6678 65.7975 16.6297 65.6284 16.655 65.4627C16.6803 65.297 16.767 65.1469 16.898 65.0423L17.2007 64.7996L16.842 65.0063C16.6989 65.0891 16.5303 65.1157 16.3687 65.0812C16.2071 65.0466 16.0641 64.9532 15.9674 64.8192C15.8707 64.6852 15.8273 64.52 15.8455 64.3558C15.8637 64.1915 15.9423 64.0399 16.066 63.9303L18.466 61.805L16.774 62.781C16.6321 62.858 16.4672 62.881 16.3097 62.8456C16.1522 62.8103 16.0129 62.719 15.9176 62.5887C15.8223 62.4584 15.7775 62.2979 15.7916 62.1371C15.8056 61.9763 15.8776 61.8261 15.994 61.7143L18.702 59.2783C18.6432 59.2031 18.6013 59.1162 18.579 59.0234C18.5567 58.9307 18.5546 58.8342 18.5728 58.7405C18.591 58.6469 18.6291 58.5582 18.6845 58.4805C18.7399 58.4029 18.8113 58.338 18.894 58.2903L21.4833 56.7956C21.6252 56.7186 21.7901 56.6956 21.9476 56.731C22.1051 56.7663 22.2444 56.8576 22.3397 56.9879C22.435 57.1182 22.4798 57.2786 22.4657 57.4395C22.4517 57.6003 22.3797 57.7505 22.2633 57.8623L21.6047 58.4543L23.4967 57.3623C23.6397 57.2795 23.8084 57.2529 23.97 57.2874C24.1316 57.322 24.2746 57.4154 24.3712 57.5494C24.4679 57.6834 24.5113 57.8486 24.4931 58.0128C24.4749 58.1771 24.3963 58.3287 24.2727 58.4383L21.8793 60.561L24.642 58.961C24.788 58.8769 24.9604 58.8512 25.1245 58.8891C25.2886 58.9269 25.4324 59.0255 25.5268 59.165C25.6212 59.3045 25.6593 59.4746 25.6334 59.6411C25.6076 59.8075 25.5196 59.958 25.3873 60.0623L24.906 60.4396C25.0459 60.4084 25.1921 60.423 25.323 60.4814C25.4539 60.5398 25.5624 60.6388 25.6326 60.7638C25.7028 60.8887 25.7309 61.033 25.7126 61.1751C25.6944 61.3173 25.6308 61.4498 25.5313 61.553L23.8153 63.3343L28.554 60.5983C28.6959 60.5192 28.8618 60.4946 29.0206 60.5293C29.1793 60.5639 29.3199 60.6552 29.416 60.7862C29.5122 60.9172 29.5571 61.0788 29.5425 61.2406C29.5279 61.4024 29.4547 61.5533 29.3367 61.665L25.9207 64.7996L30.0847 62.3996C30.2267 62.3118 30.3966 62.2804 30.5607 62.3118C30.7247 62.3432 30.871 62.4351 30.9706 62.5692C31.0702 62.7033 31.1158 62.8699 31.0984 63.036C31.081 63.2022 31.0019 63.3557 30.8767 63.4663L27.1233 67.017L32.758 63.7623C32.9 63.681 33.0669 63.6548 33.227 63.6885C33.387 63.7223 33.5291 63.8138 33.6261 63.9456C33.7231 64.0773 33.7683 64.2401 33.753 64.403C33.7377 64.5659 33.6631 64.7175 33.5433 64.829L30.382 67.733L35.1007 65.009C35.246 64.9253 35.4175 64.8995 35.5811 64.9366C35.7446 64.9738 35.8881 65.0713 35.983 65.2095C36.0779 65.3478 36.1172 65.5168 36.093 65.6828C36.0688 65.8487 35.983 65.9995 35.8527 66.105L32.8967 68.4796L35.6887 66.8676C35.8304 66.7915 35.995 66.7693 36.1519 66.805C36.3088 66.8408 36.4475 66.932 36.5423 67.062C36.6372 67.192 36.6819 67.3519 36.6681 67.5122C36.6543 67.6725 36.583 67.8224 36.4673 67.9343L32.7833 71.249L36.5767 69.0663C36.7186 68.985 36.8856 68.9588 37.0456 68.9925C37.2057 69.0263 37.3478 69.1178 37.4448 69.2496C37.5418 69.3813 37.5869 69.5441 37.5717 69.707C37.5564 69.8699 37.4818 70.0215 37.362 70.133L35.71 71.661L38.546 70.025C38.688 69.9437 38.8549 69.9174 39.015 69.9512C39.175 69.985 39.3171 70.0765 39.4141 70.2082C39.5111 70.34 39.5563 70.5028 39.541 70.6657C39.5257 70.8286 39.4511 70.9802 39.3313 71.0916L36.398 73.7956L39.394 72.0623C39.5324 71.9831 39.6947 71.9561 39.8514 71.9863C40.008 72.0165 40.1486 72.1019 40.2477 72.2269C40.3468 72.3519 40.3977 72.5084 40.3913 72.6678C40.3848 72.8272 40.3215 72.979 40.2127 73.0956L37.09 76.4143C37.2307 76.4688 37.3484 76.57 37.4233 76.701C37.5118 76.8539 37.536 77.0358 37.4905 77.2065C37.445 77.3773 37.3335 77.523 37.1807 77.6116L34.4247 79.1996C34.324 79.2602 34.2088 79.2924 34.0913 79.293Z" fill="#E2A698"/>
<path d="M34.0913 79.293C33.9611 79.293 33.8337 79.2549 33.7249 79.1834C33.6161 79.1119 33.5306 79.0101 33.479 78.8906C33.4274 78.771 33.4119 78.639 33.4345 78.5108C33.457 78.3825 33.5167 78.2637 33.606 78.169L36.134 75.485L31.8313 77.9703C31.6893 78.0516 31.5224 78.0778 31.3623 78.0441C31.2023 78.0103 31.0602 77.9188 30.9632 77.787C30.8662 77.6553 30.821 77.4924 30.8363 77.3296C30.8516 77.1667 30.9262 77.0151 31.046 76.9036L33.9887 74.197L31.2247 75.797C31.0826 75.8794 30.9152 75.9066 30.7544 75.8732C30.5936 75.8399 30.4508 75.7483 30.3533 75.6162C30.2558 75.484 30.2106 75.3205 30.2262 75.157C30.2418 74.9936 30.3172 74.8416 30.438 74.7303L32.0873 73.1996L27.946 75.5863C27.8042 75.6624 27.6397 75.6846 27.4828 75.6489C27.3259 75.6132 27.1872 75.5219 27.0923 75.3919C26.9974 75.262 26.9528 75.1021 26.9665 74.9417C26.9803 74.7814 27.0516 74.6315 27.1673 74.5196L30.8513 71.1996L26.0647 73.9636C25.9191 74.0495 25.7464 74.0769 25.5814 74.0403C25.4164 74.0037 25.2715 73.9058 25.1759 73.7663C25.0804 73.6269 25.0414 73.4564 25.0667 73.2893C25.0921 73.1223 25.18 72.971 25.3127 72.8663L28.2673 70.4903L25.8327 71.8956C25.6907 71.9769 25.5238 72.0032 25.3637 71.9694C25.2036 71.9356 25.0615 71.8441 24.9645 71.7124C24.8675 71.5806 24.8224 71.4178 24.8376 71.2549C24.8529 71.092 24.9275 70.9404 25.0473 70.829L28.2087 67.9183L22.8753 70.9983C22.7333 71.0862 22.5634 71.1175 22.3993 71.0861C22.2352 71.0547 22.0889 70.9629 21.9894 70.8288C21.8898 70.6946 21.8442 70.528 21.8616 70.3619C21.879 70.1958 21.9581 70.0422 22.0833 69.9316L25.8393 66.3796L21.2833 69.0103C21.1414 69.0894 20.9755 69.1139 20.8167 69.0793C20.658 69.0447 20.5174 68.9534 20.4213 68.8224C20.3251 68.6914 20.2802 68.5298 20.2948 68.368C20.3094 68.2062 20.3826 68.0553 20.5007 67.9436L23.9167 64.821L20.3913 66.857C20.2522 66.9373 20.0887 66.9647 19.9309 66.9341C19.7732 66.9034 19.6318 66.8169 19.5328 66.6903C19.4339 66.5637 19.3839 66.4057 19.3922 66.2452C19.4005 66.0847 19.4665 65.9327 19.578 65.817L21.294 64.037L17.642 66.1436C17.4961 66.2261 17.3244 66.2505 17.1613 66.2121C16.9981 66.1737 16.8554 66.0753 16.7616 65.9364C16.6678 65.7975 16.6297 65.6284 16.655 65.4627C16.6803 65.297 16.767 65.1469 16.898 65.0423L17.2007 64.7996L16.842 65.0063C16.6989 65.0891 16.5303 65.1157 16.3687 65.0812C16.2071 65.0466 16.0641 64.9532 15.9674 64.8192C15.8707 64.6852 15.8273 64.52 15.8455 64.3558C15.8637 64.1915 15.9423 64.0399 16.066 63.9303L18.466 61.805L16.774 62.781C16.6321 62.858 16.4672 62.881 16.3097 62.8456C16.1522 62.8103 16.0129 62.719 15.9176 62.5887C15.8223 62.4584 15.7775 62.2979 15.7916 62.1371C15.8056 61.9763 15.8776 61.8261 15.994 61.7143L18.702 59.2783C18.6432 59.2031 18.6013 59.1162 18.579 59.0234C18.5567 58.9307 18.5546 58.8342 18.5728 58.7405C18.591 58.6469 18.6291 58.5582 18.6845 58.4805C18.7399 58.4029 18.8113 58.338 18.894 58.2903L21.4833 56.7956C21.6252 56.7186 21.7901 56.6956 21.9476 56.731C22.1051 56.7663 22.2444 56.8576 22.3397 56.9879C22.435 57.1182 22.4798 57.2786 22.4657 57.4395C22.4517 57.6003 22.3797 57.7505 22.2633 57.8623L21.6047 58.4543L23.4967 57.3623C23.6397 57.2795 23.8084 57.2529 23.97 57.2874C24.1316 57.322 24.2746 57.4154 24.3712 57.5494C24.4679 57.6834 24.5113 57.8486 24.4931 58.0128C24.4749 58.1771 24.3963 58.3287 24.2727 58.4383L21.8793 60.561L24.642 58.961C24.788 58.8769 24.9604 58.8512 25.1245 58.8891C25.2886 58.9269 25.4324 59.0255 25.5268 59.165C25.6212 59.3045 25.6593 59.4746 25.6334 59.6411C25.6076 59.8075 25.5196 59.958 25.3873 60.0623L24.906 60.4396C25.0459 60.4084 25.1921 60.423 25.323 60.4814C25.4539 60.5398 25.5624 60.6388 25.6326 60.7638C25.7028 60.8887 25.7309 61.033 25.7126 61.1751C25.6944 61.3173 25.6308 61.4498 25.5313 61.553L23.8153 63.3343L28.554 60.5983C28.6959 60.5192 28.8618 60.4946 29.0206 60.5293C29.1793 60.5639 29.3199 60.6552 29.416 60.7862C29.5122 60.9172 29.5571 61.0788 29.5425 61.2406C29.5279 61.4024 29.4547 61.5533 29.3367 61.665L25.9207 64.7996L30.0847 62.3996C30.2267 62.3118 30.3966 62.2804 30.5607 62.3118C30.7247 62.3432 30.871 62.4351 30.9706 62.5692C31.0702 62.7033 31.1158 62.8699 31.0984 63.036C31.081 63.2022 31.0019 63.3557 30.8767 63.4663L27.1233 67.017L32.758 63.7623C32.9 63.681 33.0669 63.6548 33.227 63.6885C33.387 63.7223 33.5291 63.8138 33.6261 63.9456C33.7231 64.0773 33.7683 64.2401 33.753 64.403C33.7377 64.5659 33.6631 64.7175 33.5433 64.829L30.382 67.733L35.1007 65.009C35.246 64.9253 35.4175 64.8995 35.5811 64.9366C35.7446 64.9738 35.8881 65.0713 35.983 65.2095C36.0779 65.3478 36.1172 65.5168 36.093 65.6828C36.0688 65.8487 35.983 65.9995 35.8527 66.105L32.8967 68.4796L35.6887 66.8676C35.8304 66.7915 35.995 66.7693 36.1519 66.805C36.3088 66.8408 36.4475 66.932 36.5423 67.062C36.6372 67.192 36.6819 67.3519 36.6681 67.5122C36.6543 67.6725 36.583 67.8224 36.4673 67.9343L32.7833 71.249L36.5767 69.0663C36.7186 68.985 36.8856 68.9588 37.0456 68.9925C37.2057 69.0263 37.3478 69.1178 37.4448 69.2496C37.5418 69.3813 37.5869 69.5441 37.5717 69.707C37.5564 69.8699 37.4818 70.0215 37.362 70.133L35.71 71.661L38.546 70.025C38.688 69.9437 38.8549 69.9174 39.015 69.9512C39.175 69.985 39.3171 70.0765 39.4141 70.2082C39.5111 70.34 39.5563 70.5028 39.541 70.6657C39.5257 70.8286 39.4511 70.9802 39.3313 71.0916L36.398 73.7956L39.394 72.0623C39.5324 71.9831 39.6947 71.9561 39.8514 71.9863C40.008 72.0165 40.1486 72.1019 40.2477 72.2269C40.3468 72.3519 40.3977 72.5084 40.3913 72.6678C40.3848 72.8272 40.3215 72.979 40.2127 73.0956L37.09 76.4143C37.2307 76.4688 37.3484 76.57 37.4233 76.701C37.5118 76.8539 37.536 77.0358 37.4905 77.2065C37.445 77.3773 37.3335 77.523 37.1807 77.6116L34.4247 79.1996C34.324 79.2602 34.2088 79.2924 34.0913 79.293Z" fill="#E2A698"/>
<path d="M23.3797 71.3637C23.2441 71.3638 23.1117 71.3226 23.0001 71.2454C22.8885 71.1683 22.8031 71.059 22.7553 70.9321C22.7075 70.8051 22.6995 70.6666 22.7325 70.5351C22.7654 70.4035 22.8377 70.2851 22.9397 70.1957L25.0397 68.3517L21.8704 70.1797C21.7284 70.2622 21.5609 70.2893 21.4002 70.256C21.2394 70.2226 21.0965 70.1311 20.9991 69.9989C20.9016 69.8667 20.8563 69.7032 20.872 69.5398C20.8876 69.3763 20.963 69.2243 21.0837 69.113L25.0837 65.3797L21.2411 67.5984C21.1002 67.6819 20.9335 67.7107 20.7728 67.6791C20.612 67.6476 20.4685 67.5581 20.3696 67.4275C20.2707 67.297 20.2234 67.1346 20.2365 66.9713C20.2497 66.8081 20.3225 66.6554 20.4411 66.5424L24.2477 62.8517C24.1664 62.7825 24.1028 62.6948 24.0624 62.5959C24.022 62.497 24.006 62.3898 24.0157 62.2835C24.0253 62.1771 24.0604 62.0746 24.118 61.9846C24.1755 61.8946 24.2539 61.8198 24.3464 61.7664L26.9371 60.265C27.078 60.1815 27.2447 60.1527 27.4054 60.1843C27.5661 60.2158 27.7096 60.3053 27.8085 60.4359C27.9074 60.5664 27.9548 60.7288 27.9416 60.8921C27.9284 61.0553 27.8556 61.208 27.7371 61.321L25.2344 63.7477L29.4704 61.309C29.6124 61.2253 29.7804 61.1972 29.942 61.2301C30.1035 61.263 30.2471 61.3546 30.3451 61.4872C30.4431 61.6198 30.4884 61.784 30.4724 61.9481C30.4564 62.1122 30.3802 62.2645 30.2584 62.3757L26.2584 66.109L30.2117 63.8264C30.3551 63.7431 30.5243 63.7162 30.6864 63.7509C30.8485 63.7857 30.9919 63.8796 31.0885 64.0144C31.1851 64.1491 31.228 64.315 31.2089 64.4797C31.1898 64.6444 31.11 64.796 30.9851 64.905L28.0037 67.5264C28.1244 67.5682 28.2305 67.6438 28.3094 67.7441C28.3883 67.8445 28.4368 67.9654 28.449 68.0925C28.4612 68.2196 28.4367 68.3475 28.3783 68.461C28.3199 68.5746 28.2302 68.669 28.1197 68.733L23.7197 71.2744C23.6167 71.3346 23.4991 71.3655 23.3797 71.3637Z" fill="#D1968B"/>
<path d="M34.1674 79.2816C34.037 79.2814 33.9095 79.2429 33.8008 79.171C33.692 79.0991 33.6067 78.9968 33.5555 78.8769C33.5043 78.757 33.4893 78.6247 33.5125 78.4964C33.5357 78.3681 33.5961 78.2494 33.686 78.155L36.034 75.6923L31.914 78.0696C31.7704 78.1522 31.6012 78.1783 31.4394 78.1429C31.2776 78.1075 31.1347 78.0131 31.0387 77.8781C30.9427 77.7431 30.9003 77.5772 30.9199 77.4127C30.9395 77.2482 31.0196 77.0969 31.1447 76.9883L33.398 75.043L31.2127 76.3043C31.0749 76.3844 30.9129 76.4125 30.7562 76.3835C30.5995 76.3545 30.4583 76.2703 30.3583 76.1461C30.2584 76.0219 30.2062 75.8661 30.2113 75.7067C30.2164 75.5474 30.2784 75.3952 30.386 75.2776L33.598 71.7523C33.4805 71.7071 33.3781 71.6295 33.3029 71.5285C33.2276 71.4276 33.1824 71.3073 33.1727 71.1818C33.1629 71.0562 33.1889 70.9304 33.2477 70.819C33.3064 70.7076 33.3956 70.6152 33.5047 70.5523L36.0967 69.055C36.2345 68.9749 36.3965 68.9468 36.5532 68.9758C36.7099 69.0048 36.8511 69.089 36.9511 69.2132C37.051 69.3374 37.1032 69.4932 37.0981 69.6526C37.0931 69.8119 37.0311 69.9641 36.9234 70.0816L34.2567 73.0056L38.8274 70.367C38.9712 70.2828 39.1413 70.2555 39.3043 70.2905C39.4672 70.3255 39.6112 70.4202 39.7077 70.5561C39.8042 70.692 39.8464 70.859 39.8259 71.0244C39.8053 71.1898 39.7236 71.3415 39.5967 71.4496L37.3447 73.3936L39.3847 72.2163C39.5234 72.1379 39.6856 72.1118 39.8419 72.1427C39.9982 72.1736 40.1382 72.2594 40.2367 72.3847C40.3352 72.5099 40.3855 72.6662 40.3787 72.8254C40.3719 72.9846 40.3082 73.136 40.1994 73.2523L37.0754 76.5336C37.1864 76.5918 37.2789 76.68 37.342 76.7883C37.43 76.9413 37.4537 77.123 37.408 77.2934C37.3623 77.4639 37.2508 77.6092 37.098 77.6976L34.5074 79.195C34.4038 79.2537 34.2864 79.2836 34.1674 79.2816Z" fill="#D1968B"/>
<path d="M60.7144 60.6567C60.5832 60.6564 60.455 60.6174 60.3459 60.5447C60.2368 60.4719 60.1516 60.3685 60.1009 60.2476C60.0502 60.1266 60.0364 59.9933 60.0611 59.8645C60.0857 59.7357 60.1479 59.617 60.2397 59.5234L62.0997 57.63L59.6597 59.0367C59.5185 59.1231 59.3502 59.1539 59.1876 59.1231C59.025 59.0922 58.8796 59.002 58.7798 58.87C58.68 58.7379 58.6329 58.5734 58.6477 58.4086C58.6625 58.2437 58.738 58.0902 58.8597 57.978L61.0677 55.8754L58.1344 57.5687C57.9924 57.6489 57.826 57.6742 57.6666 57.64C57.5072 57.6058 57.3659 57.5144 57.2693 57.383C57.1728 57.2517 57.1277 57.0895 57.1426 56.9271C57.1576 56.7648 57.2315 56.6136 57.3504 56.502L60.089 53.99L56.5344 56.038C56.3903 56.1201 56.2208 56.1456 56.059 56.1094C55.8972 56.0733 55.7546 55.9781 55.6592 55.8425C55.5637 55.707 55.5222 55.5407 55.5428 55.3761C55.5633 55.2116 55.6445 55.0606 55.7704 54.9527L58.4704 52.6647L55.0677 54.6313C54.9211 54.7143 54.7486 54.7387 54.5848 54.6996C54.4209 54.6606 54.278 54.5609 54.1846 54.4208C54.0912 54.2806 54.0543 54.1103 54.0814 53.9441C54.1084 53.7779 54.1974 53.628 54.3304 53.5247L55.4704 52.6554L53.933 53.542C53.7881 53.6234 53.6179 53.6477 53.456 53.6102C53.294 53.5726 53.152 53.4759 53.0576 53.339C52.9633 53.2021 52.9235 53.0349 52.9461 52.8702C52.9687 52.7055 53.052 52.5551 53.1797 52.4487L56.829 49.478L52.377 52.0473C52.2328 52.1298 52.063 52.1554 51.9009 52.1191C51.7388 52.0829 51.596 51.9875 51.5006 51.8515C51.4052 51.7155 51.3639 51.5488 51.385 51.3841C51.406 51.2193 51.4878 51.0683 51.6144 50.9607L56.8944 46.5207L50.4824 50.2247C50.3353 50.3077 50.1622 50.3319 49.998 50.2922C49.8339 50.2525 49.6909 50.1521 49.5979 50.011C49.505 49.87 49.469 49.699 49.4973 49.5325C49.5256 49.366 49.6161 49.2164 49.7504 49.114L53.3237 46.4394L49.0864 48.8847C48.9446 48.9608 48.7801 48.983 48.6232 48.9473C48.4663 48.9116 48.3276 48.8203 48.2327 48.6903C48.1378 48.5604 48.0931 48.4005 48.1069 48.2401C48.1207 48.0798 48.192 47.9299 48.3077 47.818L53.0837 43.5327L47.1037 46.986C46.9563 47.0686 46.7831 47.0922 46.619 47.0519C46.455 47.0117 46.3123 46.9107 46.2198 46.7693C46.1274 46.6279 46.092 46.4567 46.121 46.2903C46.1499 46.1238 46.241 45.9746 46.3757 45.8727L46.7304 45.606L46.0637 45.9874C45.9196 46.0694 45.7501 46.0949 45.5883 46.0588C45.4265 46.0226 45.2839 45.9275 45.1885 45.7919C45.093 45.6563 45.0516 45.49 45.0721 45.3254C45.0927 45.1609 45.1738 45.0099 45.2997 44.902L48.7197 42.0074L44.4704 44.4594C44.3257 44.5428 44.1549 44.569 43.9918 44.5325C43.8288 44.4961 43.6853 44.3998 43.5899 44.2626C43.4945 44.1254 43.4541 43.9575 43.4766 43.7919C43.4992 43.6264 43.5831 43.4753 43.7117 43.3687L46.5544 41.0074L42.9837 43.0647C42.8385 43.1479 42.6674 43.1735 42.5042 43.1364C42.341 43.0993 42.1978 43.0021 42.1029 42.8643C42.0081 42.7264 41.9685 42.5579 41.9921 42.3923C42.0157 42.2266 42.1008 42.0759 42.2304 41.97L44.4304 40.1833L40.0304 42.7233C39.878 42.8031 39.7007 42.8208 39.5356 42.7729C39.3705 42.725 39.2302 42.6151 39.1442 42.4663C39.0581 42.3174 39.0329 42.141 39.0738 41.974C39.1147 41.807 39.2186 41.6623 39.3637 41.57L51.029 34.8354C51.174 34.7539 51.3441 34.7296 51.5061 34.7672C51.668 34.8048 51.8101 34.9015 51.9044 35.0384C51.9988 35.1753 52.0385 35.3425 52.016 35.5072C51.9934 35.6719 51.9101 35.8222 51.7824 35.9287L49.5824 37.7167L52.6797 35.9287C52.8244 35.8452 52.9952 35.8191 53.1583 35.8555C53.3213 35.8919 53.4648 35.9883 53.5602 36.1254C53.6556 36.2626 53.696 36.4306 53.6734 36.5961C53.6509 36.7617 53.567 36.9127 53.4384 37.0194L50.597 39.3793L54.4957 37.13C54.6398 37.0479 54.8093 37.0225 54.9711 37.0586C55.1329 37.0947 55.2755 37.1899 55.3709 37.3255C55.4664 37.4611 55.5079 37.6274 55.4873 37.7919C55.4667 37.9565 55.3856 38.1074 55.2597 38.2154L51.841 41.11L56.4717 38.4367C56.619 38.3558 56.7914 38.3335 56.9545 38.3742C57.1175 38.415 57.2591 38.5159 57.351 38.6566C57.4428 38.7973 57.4782 38.9676 57.4499 39.1332C57.4216 39.2989 57.3317 39.4478 57.1984 39.55L56.8437 39.8167L57.9624 39.1727C58.1042 39.0966 58.2687 39.0744 58.4256 39.1101C58.5825 39.1458 58.7212 39.2371 58.8161 39.367C58.9109 39.497 58.9556 39.6569 58.9418 39.8172C58.928 39.9776 58.8567 40.1275 58.741 40.2393L53.961 44.5314L62.361 39.6874C62.5081 39.6043 62.6812 39.5802 62.8454 39.6198C63.0095 39.6595 63.1525 39.76 63.2455 39.901C63.3384 40.042 63.3744 40.2131 63.3461 40.3796C63.3178 40.5461 63.2273 40.6956 63.093 40.798L59.525 43.4647L62.7984 41.5754C62.9426 41.4929 63.1124 41.4673 63.2745 41.5036C63.4366 41.5398 63.5794 41.6352 63.6748 41.7712C63.7702 41.9072 63.8115 42.0739 63.7904 42.2386C63.7694 42.4034 63.6876 42.5544 63.561 42.662L58.2677 47.1074L63.3837 44.154C63.5289 44.0708 63.7 44.0452 63.8632 44.0823C64.0264 44.1194 64.1696 44.2166 64.2645 44.3544C64.3594 44.4923 64.3989 44.6608 64.3753 44.8264C64.3517 44.9921 64.2666 45.1428 64.137 45.2487L60.4944 48.218L63.877 46.2647C64.0236 46.1817 64.1962 46.1574 64.36 46.1964C64.5238 46.2355 64.6668 46.3351 64.7602 46.4753C64.8535 46.6154 64.8904 46.7857 64.8634 46.952C64.8363 47.1182 64.7474 47.268 64.6144 47.3713L63.4744 48.2394L64.233 47.8034C64.3771 47.7213 64.5466 47.6958 64.7084 47.7319C64.8703 47.7681 65.0128 47.8632 65.1083 47.9988C65.2037 48.1344 65.2452 48.3007 65.2246 48.4653C65.2041 48.6298 65.1229 48.7808 64.997 48.8887L62.3024 51.1714L64.693 49.7914C64.835 49.7123 65.0009 49.6877 65.1596 49.7223C65.3183 49.7569 65.459 49.8483 65.5551 49.9793C65.6512 50.1103 65.6962 50.2719 65.6816 50.4337C65.6669 50.5955 65.5937 50.7464 65.4757 50.858L62.737 53.3687L65.193 51.9514C65.3341 51.8709 65.4998 51.8448 65.6588 51.8778C65.8178 51.9108 65.9593 52.0008 66.0567 52.1307C66.1541 52.2607 66.2007 52.4218 66.1877 52.5837C66.1748 52.7456 66.1032 52.8972 65.9864 53.01L63.7877 55.114L65.673 54.026C65.8128 53.9455 65.9769 53.9183 66.1351 53.9495C66.2934 53.9807 66.4349 54.0682 66.5335 54.1958C66.6322 54.3234 66.6812 54.4825 66.6715 54.6434C66.6619 54.8044 66.5942 54.9565 66.481 55.0714L64.6224 56.9647L66.149 56.082C66.3021 55.995 66.4833 55.9721 66.6532 56.0182C66.8231 56.0643 66.9679 56.1758 67.0559 56.3282C67.1439 56.4807 67.1681 56.6618 67.1231 56.832C67.0781 57.0022 66.9676 57.1477 66.8157 57.2367L61.0477 60.57C60.9464 60.6283 60.8312 60.6582 60.7144 60.6567Z" fill="#F4C0A6"/>
<path d="M28.4307 50.0215C28.2883 50.0212 28.1498 49.9754 28.0353 49.8908C27.9209 49.8061 27.8365 49.687 27.7946 49.5509C27.7528 49.4149 27.7555 49.2689 27.8026 49.1346C27.8496 49.0002 27.9384 48.8844 28.056 48.8042L34.9894 44.0815L26.9747 48.7081C26.8252 48.7933 26.6486 48.8174 26.4817 48.7754C26.3149 48.7334 26.1707 48.6284 26.0795 48.4826C25.9882 48.3367 25.9568 48.1612 25.992 47.9928C26.0271 47.8243 26.126 47.676 26.268 47.5788L31.8294 43.8455L26.1654 47.1148C26.016 47.2015 25.8388 47.2269 25.6711 47.1855C25.5034 47.1441 25.3583 47.0393 25.2664 46.8931C25.1744 46.7469 25.1428 46.5707 25.1782 46.4017C25.2136 46.2326 25.3132 46.0839 25.456 45.9868L31.228 42.0468L26.364 44.8561C26.2163 44.9402 26.042 44.9646 25.8768 44.9244C25.7117 44.8843 25.5681 44.7825 25.4754 44.64C25.3828 44.4974 25.3481 44.3249 25.3785 44.1577C25.4088 43.9904 25.5019 43.8411 25.6387 43.7402L29.6414 40.8148L29.124 41.1135C28.9805 41.1971 28.811 41.2241 28.6486 41.1892C28.4862 41.1544 28.3427 41.0602 28.2461 40.9251C28.1496 40.79 28.1069 40.6237 28.1265 40.4588C28.1461 40.2939 28.2265 40.1422 28.352 40.0335L30.848 37.8548C30.8 37.8097 30.7591 37.7575 30.7267 37.7002C30.6387 37.5472 30.615 37.3655 30.6607 37.195C30.7065 37.0246 30.8179 36.8792 30.9707 36.7908L34.256 34.8921C34.3996 34.8071 34.5698 34.779 34.733 34.8134C34.8962 34.8477 35.0407 34.942 35.1378 35.0776C35.2349 35.2133 35.2777 35.3804 35.2576 35.546C35.2375 35.7116 35.1561 35.8637 35.0294 35.9722L34.3747 36.5415L39.876 33.3655C40.0238 33.2814 40.1981 33.257 40.3632 33.2972C40.5284 33.3374 40.672 33.4391 40.7646 33.5817C40.8573 33.7242 40.892 33.8967 40.8616 34.064C40.8313 34.2312 40.7382 34.3806 40.6014 34.4815L36.5827 37.4148L45.868 32.0468C46.0176 31.9555 46.197 31.9267 46.3676 31.9667C46.5382 32.0067 46.6862 32.1122 46.7795 32.2604C46.8729 32.4086 46.9042 32.5877 46.8666 32.7588C46.8291 32.9299 46.7256 33.0794 46.5787 33.1748L40.816 37.1068L48.092 32.9068C48.2415 32.8216 48.4182 32.7975 48.585 32.8396C48.7519 32.8816 48.896 32.9865 48.9873 33.1324C49.0785 33.2783 49.1099 33.4538 49.0747 33.6222C49.0396 33.7906 48.9407 33.939 48.7987 34.0361L43.2427 37.7695L49.7587 34.0082C49.9081 33.9215 50.0853 33.8961 50.253 33.9375C50.4207 33.9788 50.5657 34.0836 50.6577 34.2299C50.7496 34.3761 50.7812 34.5522 50.7459 34.7213C50.7105 34.8904 50.6109 35.0391 50.468 35.1362L36.488 44.6682L36.5027 44.6935C36.5907 44.8465 36.6144 45.0281 36.5687 45.1986C36.5229 45.369 36.4115 45.5144 36.2587 45.6028L28.764 49.9295C28.6629 49.9889 28.548 50.0207 28.4307 50.0215Z" fill="#F4C0A6"/>
<path d="M67.2135 61.434C67.1133 61.4339 67.0143 61.4112 66.9241 61.3675C66.8338 61.3239 66.7546 61.2605 66.6922 61.182C66.5926 61.0568 66.5412 60.9001 66.5476 60.7402C66.554 60.5804 66.6176 60.4281 66.7269 60.3113L68.1469 58.7927L66.1949 59.9193C66.0517 60.0023 65.8827 60.0291 65.7209 59.9945C65.559 59.9598 65.4159 59.8662 65.3192 59.7318C65.2226 59.5974 65.1794 59.4319 65.1981 59.2674C65.2167 59.1029 65.2959 58.9513 65.4202 58.842L65.8629 58.454C65.7259 58.5316 65.5659 58.5582 65.4112 58.5292C65.2565 58.5001 65.1171 58.4172 65.0176 58.2953C64.9181 58.1733 64.865 58.02 64.8677 57.8626C64.8704 57.7052 64.9286 57.5539 65.0322 57.4353L67.6989 54.378L65.2669 55.782C65.128 55.8604 64.9657 55.8864 64.8093 55.8554C64.6529 55.8243 64.5128 55.7383 64.4145 55.6128C64.3161 55.4873 64.2659 55.3308 64.2731 55.1715C64.2803 55.0122 64.3443 54.8608 64.4535 54.7447L66.6682 52.4367L64.7709 53.5313C64.629 53.6084 64.4641 53.6314 64.3066 53.596C64.1491 53.5606 64.0098 53.4693 63.9145 53.339C63.8192 53.2087 63.7744 53.0483 63.7885 52.8875C63.8025 52.7267 63.8744 52.5765 63.9909 52.4647L64.9615 51.5873L64.4082 51.906C64.2661 51.991 64.0976 52.0201 63.9352 51.9877C63.7729 51.9552 63.6284 51.8636 63.53 51.7305C63.4315 51.5974 63.3861 51.4325 63.4025 51.2678C63.4189 51.103 63.496 50.9503 63.6189 50.8393L65.0389 49.506L64.0082 50.1007C63.8708 50.179 63.7101 50.206 63.5546 50.1768C63.3992 50.1475 63.2592 50.064 63.1597 49.9411C63.0602 49.8182 63.0076 49.6639 63.0114 49.5058C63.0151 49.3477 63.075 49.196 63.1802 49.078L65.8602 46.0993L63.4295 47.5033C63.2898 47.5792 63.1276 47.6027 62.9721 47.5696C62.8166 47.5364 62.6781 47.4487 62.5815 47.3224C62.485 47.1961 62.4368 47.0394 62.4456 46.8807C62.4544 46.7219 62.5196 46.5715 62.6295 46.4567L64.7442 44.3233L62.9589 45.354C62.8213 45.4332 62.6601 45.4608 62.504 45.4317C62.348 45.4027 62.2075 45.3189 62.1077 45.1955C62.0079 45.0721 61.9554 44.9171 61.9596 44.7585C61.9639 44.5998 62.0246 44.4479 62.1309 44.33L64.8842 41.2807L62.3749 42.7287C62.2368 42.8088 62.0745 42.8367 61.9176 42.8074C61.7607 42.778 61.6195 42.6933 61.5198 42.5687C61.42 42.4441 61.3683 42.2878 61.374 42.1282C61.3797 41.9687 61.4424 41.8165 61.5509 41.6993L63.4295 39.6593L61.8909 40.5473C61.7618 40.6226 61.6112 40.6524 61.4631 40.6318C61.3151 40.6113 61.1783 40.5416 61.0747 40.4339C60.971 40.3263 60.9065 40.1869 60.8916 40.0382C60.8766 39.8895 60.9121 39.7401 60.9922 39.614L61.5575 38.7127C61.4064 38.7252 61.2556 38.6858 61.1299 38.601C61.0041 38.5162 60.9111 38.3911 60.866 38.2463C60.821 38.1016 60.8266 37.9457 60.8821 37.8046C60.9375 37.6635 61.0393 37.5454 61.1709 37.47L63.1375 36.3353C63.2666 36.2607 63.417 36.2314 63.5646 36.2523C63.7122 36.2731 63.8486 36.3428 63.952 36.4503C64.0553 36.5578 64.1196 36.6968 64.1347 36.8452C64.1497 36.9935 64.1146 37.1426 64.0349 37.2687L63.5429 38.054L66.5415 36.3207C66.6796 36.2405 66.8418 36.2126 66.9988 36.242C67.1557 36.2713 67.2969 36.356 67.3966 36.4806C67.4964 36.6052 67.5481 36.7615 67.5424 36.9211C67.5367 37.0806 67.4739 37.2328 67.3655 37.35L65.4882 39.39L67.8802 38.0087C68.0176 37.9303 68.1783 37.9033 68.3337 37.9325C68.4892 37.9618 68.6292 38.0453 68.7287 38.1682C68.8282 38.2911 68.8808 38.4454 68.877 38.6035C68.8733 38.7616 68.8134 38.9133 68.7082 39.0313L65.9549 42.0807L68.4109 40.6687C68.5506 40.5927 68.7128 40.5692 68.8683 40.6024C69.0238 40.6356 69.1623 40.7233 69.2589 40.8496C69.3554 40.9759 69.4036 41.1326 69.3948 41.2913C69.386 41.4501 69.3208 41.6004 69.2109 41.7153L67.0949 43.8487L68.8402 42.842C68.9777 42.7628 69.139 42.7352 69.295 42.7642C69.4511 42.7933 69.5916 42.8771 69.6914 43.0005C69.7912 43.1239 69.8437 43.2789 69.8394 43.4375C69.8352 43.5962 69.7745 43.7481 69.6682 43.866L66.9869 46.8433L69.3655 45.47C69.5076 45.385 69.6762 45.3559 69.8385 45.3883C70.0008 45.4207 70.1453 45.5124 70.2438 45.6455C70.3422 45.7786 70.3877 45.9435 70.3712 46.1082C70.3548 46.2729 70.2777 46.4257 70.1549 46.5367L68.7335 47.87L69.7309 47.2953C69.8727 47.2183 70.0377 47.1953 70.1952 47.2306C70.3527 47.266 70.492 47.3573 70.5873 47.4876C70.6825 47.6179 70.7273 47.7783 70.7133 47.9391C70.6992 48.0999 70.6273 48.2502 70.5109 48.362L69.5415 49.238L70.0615 48.938C70.2004 48.8596 70.3627 48.8336 70.5191 48.8646C70.6755 48.8956 70.8156 48.9817 70.9139 49.1072C71.0123 49.2326 71.0625 49.3892 71.0553 49.5485C71.0481 49.7078 70.9841 49.8592 70.8749 49.9753L68.6682 52.2833L70.5229 51.2167C70.6596 51.1382 70.8197 51.1107 70.9748 51.139C71.1298 51.1674 71.2699 51.2498 71.3699 51.3716C71.47 51.4934 71.5237 51.6468 71.5214 51.8044C71.5191 51.962 71.4611 52.1138 71.3575 52.2327L68.6842 55.29L71.0629 53.9167C71.206 53.8349 71.3744 53.8091 71.5355 53.8442C71.6965 53.8794 71.8389 53.9729 71.935 54.1068C72.0311 54.2408 72.0742 54.4056 72.056 54.5694C72.0377 54.7332 71.9594 54.8845 71.8362 54.994L71.3909 55.3847C71.5306 55.3136 71.6908 55.2941 71.8435 55.3295C71.9962 55.3649 72.1315 55.4529 72.2258 55.5782C72.32 55.7034 72.3671 55.8579 72.3587 56.0144C72.3504 56.1709 72.2872 56.3195 72.1802 56.434L70.7549 57.9593L71.3869 57.594C71.5399 57.507 71.7211 57.484 71.891 57.5302C72.0609 57.5763 72.2057 57.6877 72.2937 57.8402C72.3817 57.9927 72.4059 58.1737 72.3609 58.3439C72.3159 58.5141 72.2054 58.6596 72.0535 58.7487L67.5469 61.3487C67.4454 61.4064 67.3303 61.4359 67.2135 61.434Z" fill="white"/>
<path d="M12.0637 60.7997C11.9434 60.7999 11.8253 60.7675 11.7219 60.706C11.6185 60.6445 11.5337 60.5562 11.4764 60.4504C11.4191 60.3446 11.3915 60.2253 11.3966 60.1051C11.4016 59.9849 11.4391 59.8683 11.505 59.7677L12.241 58.6397L9.33301 60.325C9.19012 60.4076 9.02171 60.4341 8.86036 60.3997C8.699 60.3652 8.55616 60.2721 8.45946 60.1384C8.36275 60.0047 8.31906 59.8399 8.33684 59.6759C8.35461 59.5119 8.43258 59.3603 8.55567 59.2504L9.40101 58.497L8.69034 58.9077C8.54746 58.9902 8.37905 59.0168 8.21769 58.9823C8.05633 58.9479 7.91349 58.8548 7.81679 58.7211C7.72009 58.5874 7.6764 58.4226 7.69417 58.2586C7.71194 58.0945 7.78992 57.9429 7.91301 57.833L9.86634 56.085L8.51834 56.8624C8.37731 56.9473 8.20984 56.977 8.0482 56.9458C7.88656 56.9147 7.74217 56.8248 7.64284 56.6935C7.54351 56.5622 7.49627 56.3988 7.51021 56.2348C7.52415 56.0708 7.59828 55.9177 7.71834 55.805L11.2877 52.369L8.93301 53.733C8.791 53.8155 8.62355 53.8427 8.46275 53.8093C8.30196 53.7759 8.15914 53.6844 8.06167 53.5522C7.9642 53.4201 7.91894 53.2566 7.93456 53.0931C7.95019 52.9296 8.0256 52.7777 8.14634 52.6664L11.4117 49.6437L9.31434 50.8544C9.17115 50.9374 9.00219 50.9642 8.84035 50.9295C8.6785 50.8948 8.53534 50.8012 8.43871 50.6668C8.34208 50.5324 8.29889 50.3669 8.31756 50.2025C8.33622 50.038 8.41539 49.8864 8.53967 49.777L11.2557 47.377L9.65567 48.3104C9.50969 48.3944 9.3373 48.4201 9.17316 48.3823C9.00901 48.3444 8.86528 48.2458 8.77087 48.1063C8.67645 47.9668 8.63835 47.7967 8.66423 47.6303C8.6901 47.4638 8.77803 47.3133 8.91034 47.209L9.63834 46.6357C9.49726 46.653 9.35435 46.6248 9.23046 46.5551C9.10657 46.4854 9.00819 46.378 8.94968 46.2484C8.89117 46.1189 8.87559 45.9741 8.90521 45.8351C8.93483 45.696 9.00811 45.5701 9.11434 45.4757L12.1223 42.809L10.241 43.8957C10.0957 43.9984 9.91548 44.0392 9.74007 44.0091C9.56466 43.979 9.4084 43.8804 9.30567 43.735C9.20295 43.5897 9.16216 43.4095 9.19229 43.2341C9.22242 43.0587 9.321 42.9024 9.46634 42.7997L11.1863 41.3597L10.5197 41.745C10.3755 41.83 10.2047 41.8576 10.0412 41.8225C9.87757 41.7874 9.73319 41.692 9.63666 41.5553C9.54013 41.4187 9.49851 41.2507 9.52006 41.0848C9.54162 40.9189 9.62477 40.7672 9.75301 40.6597L10.4103 40.1024C10.2825 40.1012 10.1578 40.0632 10.0509 39.9931C9.94406 39.923 9.85961 39.8237 9.80762 39.7069C9.75564 39.5902 9.73831 39.4609 9.7577 39.3346C9.7771 39.2083 9.83239 39.0902 9.91701 38.9944L10.6183 38.201C10.4765 38.1902 10.3418 38.1343 10.2339 38.0415C10.1261 37.9486 10.0508 37.8237 10.0191 37.685C9.98737 37.5463 10.0009 37.4011 10.0576 37.2706C10.1143 37.1401 10.2113 37.0311 10.3343 36.9597L13.2557 35.2717C13.3927 35.1933 13.553 35.166 13.7082 35.1947C13.8634 35.2234 14.0034 35.3063 14.1033 35.4285C14.2031 35.5508 14.2564 35.7045 14.2535 35.8623C14.2506 36.0201 14.1919 36.1718 14.0877 36.2904L13.6277 36.8117L15.7117 35.6117C15.8558 35.5282 16.0259 35.5017 16.1886 35.5374C16.3513 35.573 16.4947 35.6683 16.5907 35.8044C16.6866 35.9405 16.7282 36.1076 16.7072 36.2728C16.6861 36.438 16.604 36.5893 16.477 36.697L16.2103 36.921L17.0463 36.4397C17.1908 36.3555 17.3616 36.3286 17.5249 36.3644C17.6882 36.4002 17.8321 36.4961 17.928 36.633C18.024 36.7699 18.065 36.9378 18.043 37.1035C18.0209 37.2693 17.9374 37.4207 17.809 37.5277L16.0943 38.9704L17.173 38.349C17.3158 38.2689 17.4831 38.2442 17.643 38.2795C17.8029 38.3149 17.9442 38.4078 18.04 38.5407C18.1357 38.6735 18.1792 38.8369 18.1622 38.9998C18.1452 39.1626 18.0688 39.3135 17.9477 39.4237L14.9383 42.0904L16.6823 41.085C16.8281 41.0031 16.9993 40.9788 17.1621 41.0172C17.3249 41.0556 17.4673 41.1537 17.5611 41.2921C17.6549 41.4306 17.6932 41.5992 17.6685 41.7646C17.6438 41.93 17.5578 42.0801 17.4277 42.185L16.6383 42.809C16.753 42.797 16.8688 42.8162 16.9735 42.8645C17.0782 42.9129 17.1678 42.9886 17.233 43.0837C17.3296 43.2179 17.3729 43.3833 17.3544 43.5477C17.3359 43.712 17.257 43.8636 17.133 43.973L14.4157 46.373L15.8823 45.525C16.0243 45.4426 16.1918 45.4154 16.3526 45.4488C16.5134 45.4821 16.6562 45.5737 16.7537 45.7058C16.8512 45.838 16.8964 46.0015 16.8808 46.165C16.8652 46.3284 16.7898 46.4804 16.669 46.5917L13.4103 49.5997L15.3557 48.477C15.4967 48.3921 15.6642 48.3624 15.8258 48.3936C15.9875 48.4248 16.1318 48.5147 16.2312 48.6459C16.3305 48.7772 16.3777 48.9406 16.3638 49.1046C16.3499 49.2687 16.2757 49.4217 16.1557 49.5344L12.5797 52.9757L14.777 51.7077C14.9199 51.6252 15.0883 51.5986 15.2497 51.6331C15.411 51.6675 15.5539 51.7606 15.6506 51.8943C15.7473 52.028 15.7909 52.1928 15.7732 52.3568C15.7554 52.5209 15.6774 52.6725 15.5543 52.7824L13.5997 54.533L14.3463 54.1024C14.4892 54.0199 14.6576 53.9933 14.819 54.0277C14.9804 54.0622 15.1232 54.1553 15.2199 54.289C15.3166 54.4227 15.3603 54.5875 15.3425 54.7515C15.3247 54.9156 15.2468 55.0672 15.1237 55.177L14.1717 56.0264C14.3011 55.9967 14.4365 56.0063 14.5605 56.054C14.6844 56.1018 14.7913 56.1854 14.8674 56.2943C14.9434 56.4032 14.9853 56.5323 14.9875 56.6651C14.9896 56.7979 14.9521 56.9284 14.8797 57.0397L13.9463 58.469C14.0403 58.4866 14.1293 58.5245 14.2071 58.58C14.285 58.6355 14.3498 58.7073 14.397 58.7904C14.485 58.9434 14.5087 59.125 14.463 59.2955C14.4172 59.4659 14.3058 59.6113 14.153 59.6997L12.393 60.717C12.2924 60.7731 12.1788 60.8017 12.0637 60.7997Z" fill="white"/>
<path d="M6.10051 65.6562C5.98111 65.6562 5.86392 65.6241 5.76117 65.5633C5.65841 65.5025 5.57387 65.4153 5.51638 65.3106C5.45888 65.206 5.43054 65.0878 5.43432 64.9685C5.43809 64.8492 5.47384 64.733 5.53784 64.6322L6.38851 63.2989L3.19651 65.1349C3.05751 65.2074 2.89741 65.2286 2.74433 65.1948C2.59124 65.161 2.45497 65.0743 2.35947 64.95C2.26396 64.8257 2.21531 64.6717 2.22209 64.515C2.22886 64.3584 2.29062 64.2092 2.39651 64.0936L5.19651 61.1842L1.70317 63.2002C1.5573 63.2812 1.38638 63.3045 1.22415 63.2656C1.06191 63.2267 0.920167 63.1284 0.826892 62.9901C0.733616 62.8518 0.695593 62.6835 0.72033 62.5185C0.745067 62.3535 0.830766 62.2038 0.960506 62.0989L1.53917 61.6442C1.40996 61.6783 1.2735 61.6727 1.14749 61.6283C1.02148 61.5838 0.911743 61.5025 0.832506 61.3949C0.735212 61.2623 0.690377 61.0984 0.706622 60.9347C0.722866 60.771 0.799043 60.6192 0.920506 60.5082L4.89651 56.8736L1.70317 58.7176C1.5613 58.7956 1.39586 58.8194 1.23775 58.7844C1.07965 58.7494 0.93968 58.6581 0.84399 58.5274C0.7483 58.3968 0.703429 58.2358 0.717755 58.0745C0.73208 57.9132 0.804624 57.7626 0.921839 57.6509L5.42984 53.5522L1.70317 55.6989C1.55604 55.7838 1.38204 55.8094 1.21672 55.7703C1.05139 55.7313 0.9072 55.6306 0.813599 55.4888C0.719998 55.3471 0.684045 55.1749 0.713082 55.0076C0.74212 54.8402 0.833957 54.6902 0.969839 54.5882L1.58317 54.1296C1.43278 54.1802 1.26926 54.1755 1.12201 54.1164C0.974764 54.0572 0.853441 53.9475 0.779853 53.8069C0.706264 53.6663 0.685237 53.5041 0.72055 53.3494C0.755864 53.1947 0.845202 53.0576 0.972506 52.9629L1.51917 52.5629C1.37142 52.5968 1.21654 52.5793 1.08007 52.5133C0.943604 52.4473 0.833693 52.3368 0.768463 52.2C0.703233 52.0632 0.686579 51.9082 0.721248 51.7606C0.755916 51.6131 0.839837 51.4817 0.959173 51.3882L3.64451 49.2802L1.70317 50.4002C1.55611 50.4833 1.38301 50.5074 1.21884 50.4678C1.05467 50.4281 0.911669 50.3276 0.818729 50.1866C0.725789 50.0456 0.689835 49.8745 0.718132 49.708C0.746428 49.5415 0.836865 49.392 0.971173 49.2896L2.35517 48.2576L1.70317 48.6336C1.55671 48.7176 1.38381 48.743 1.21938 48.7045C1.05495 48.666 0.911255 48.5666 0.817309 48.4263C0.723363 48.2859 0.686172 48.1152 0.713246 47.9485C0.74032 47.7818 0.829643 47.6316 0.963173 47.5282L3.99651 45.1882L1.70184 46.5122C1.55514 46.5941 1.38295 46.6176 1.2197 46.5779C1.05644 46.5383 0.914171 46.4385 0.821335 46.2985C0.7285 46.1585 0.691946 45.9886 0.718985 45.8228C0.746024 45.657 0.834664 45.5075 0.967173 45.4042L3.80984 43.2509L1.70317 44.4656C1.55561 44.5489 1.38187 44.5728 1.21728 44.5326C1.05268 44.4924 0.909568 44.391 0.817034 44.2491C0.7245 44.1071 0.689486 43.9353 0.719107 43.7684C0.748729 43.6016 0.840764 43.4523 0.976506 43.3509L2.70984 42.0856L1.70317 42.6669C1.55833 42.7493 1.38788 42.7745 1.22539 42.7375C1.0629 42.7005 0.920158 42.604 0.825299 42.467C0.730439 42.33 0.690338 42.1624 0.712896 41.9973C0.735454 41.8321 0.819036 41.6815 0.947173 41.5749L4.99384 38.2589L1.70317 40.1536C1.5613 40.2354 1.39426 40.2622 1.23392 40.2287C1.07358 40.1953 0.931164 40.104 0.833839 39.9722C0.736273 39.8404 0.690762 39.6771 0.706014 39.5138C0.721266 39.3504 0.79621 39.1985 0.916506 39.0869L3.54184 36.6576L1.70317 37.7242C1.56313 37.8021 1.39973 37.8269 1.2429 37.7941C1.08607 37.7613 0.946298 37.6731 0.849159 37.5457C0.752019 37.4183 0.704016 37.2602 0.713935 37.1002C0.723854 36.9403 0.791032 36.7893 0.903173 36.6749L1.69384 35.8856C1.56777 35.9553 1.4225 35.9823 1.2798 35.9626C1.13709 35.9428 1.00462 35.8774 0.902228 35.776C0.799833 35.6747 0.733022 35.5429 0.7118 35.4004C0.690578 35.2579 0.716087 35.1124 0.784506 34.9856L1.36584 33.9056C1.22641 33.8897 1.09555 33.8302 0.991911 33.7356C0.888266 33.641 0.817119 33.5161 0.788604 33.3787C0.76009 33.2413 0.775661 33.0984 0.8331 32.9703C0.890539 32.8423 0.986918 32.7356 1.10851 32.6656L2.61517 31.7962C2.74079 31.7239 2.88658 31.6944 3.03044 31.7123C3.1743 31.7303 3.3084 31.7946 3.41241 31.8956C3.51642 31.9966 3.58467 32.1288 3.60682 32.272C3.62898 32.4153 3.60382 32.5619 3.53517 32.6896L3.07117 33.5509L5.44317 32.1829C5.58322 32.1051 5.74661 32.0803 5.90344 32.1131C6.06027 32.1459 6.20005 32.234 6.29719 32.3614C6.39433 32.4889 6.44233 32.647 6.43241 32.8069C6.42249 32.9668 6.35531 33.1178 6.24317 33.2322L5.45117 34.0216L8.02584 32.5336C8.16785 32.4511 8.3353 32.424 8.49609 32.4573C8.65689 32.4907 8.79971 32.5822 8.89718 32.7144C8.99465 32.8465 9.03991 33.01 9.02429 33.1735C9.00866 33.337 8.93325 33.4889 8.81251 33.6002L6.18984 36.0256L11.3992 33.0176C11.544 32.9351 11.7145 32.91 11.877 32.947C12.0394 32.984 12.1822 33.0805 12.277 33.2175C12.3719 33.3545 12.412 33.5221 12.3894 33.6872C12.3669 33.8523 12.2833 34.003 12.1552 34.1096L8.10851 37.4256L12.6978 34.7762C12.8454 34.693 13.0191 34.669 13.1837 34.7092C13.3483 34.7494 13.4914 34.8508 13.584 34.9928C13.6765 35.1347 13.7115 35.3065 13.6819 35.4734C13.6523 35.6402 13.5602 35.7895 13.4245 35.8909L11.6912 37.1562L12.3658 36.7669C12.5126 36.6834 12.6856 36.6586 12.8499 36.6977C13.0142 36.7368 13.1575 36.8368 13.2509 36.9774C13.3444 37.1181 13.381 37.289 13.3533 37.4556C13.3256 37.6221 13.2357 37.772 13.1018 37.8749L10.2632 40.0282L11.9592 39.0496C12.1054 38.9677 12.2771 38.9439 12.4401 38.9829C12.6031 39.0219 12.7454 39.1209 12.8387 39.2601C12.932 39.3993 12.9694 39.5685 12.9436 39.7341C12.9177 39.8997 12.8305 40.0494 12.6992 40.1536L9.66851 42.4962L11.5352 41.4162C11.6822 41.3332 11.8553 41.3091 12.0195 41.3487C12.1837 41.3884 12.3267 41.4889 12.4196 41.6299C12.5126 41.7709 12.5485 41.9419 12.5202 42.1084C12.4919 42.275 12.4015 42.4245 12.2672 42.5269L10.8885 43.5549L11.1832 43.3856C11.3291 43.3031 11.5007 43.2787 11.6639 43.3171C11.827 43.3555 11.9697 43.4539 12.0635 43.5928C12.1574 43.7317 12.1954 43.9008 12.1702 44.0665C12.1449 44.2322 12.0581 44.3823 11.9272 44.4869L9.24317 46.5922L10.7725 45.7096C10.9198 45.6259 11.0934 45.6013 11.258 45.641C11.4227 45.6806 11.5661 45.7815 11.6591 45.923C11.7522 46.0646 11.7878 46.2363 11.7588 46.4032C11.7299 46.57 11.6385 46.7196 11.5032 46.8216L10.7298 47.3949C10.8496 47.3856 10.9697 47.4083 11.0779 47.4605C11.1862 47.5127 11.2786 47.5927 11.3458 47.6922C11.4393 47.8339 11.4752 48.0059 11.4462 48.1732C11.4172 48.3404 11.3255 48.4903 11.1898 48.5922L10.3618 49.2122C10.4829 49.1945 10.6064 49.21 10.7194 49.2569C10.8323 49.3039 10.9304 49.3806 11.0032 49.4789C11.1001 49.6118 11.1445 49.7759 11.1278 49.9396C11.1111 50.1033 11.0344 50.255 10.9125 50.3656L6.40451 54.4656L9.52984 52.6602C9.67175 52.5811 9.83767 52.5566 9.99641 52.5912C10.1551 52.6258 10.2958 52.7172 10.3919 52.8482C10.488 52.9792 10.533 53.1408 10.5184 53.3026C10.5037 53.4644 10.4305 53.6153 10.3125 53.7269L6.33784 57.3642L8.96051 55.8509C9.10638 55.7699 9.2773 55.7466 9.43953 55.7855C9.60177 55.8244 9.74351 55.9228 9.83679 56.0611C9.93006 56.1994 9.96809 56.3677 9.94335 56.5327C9.91861 56.6976 9.83291 56.8474 9.70317 56.9522L8.91117 57.5736C9.02162 57.5648 9.13252 57.5833 9.23412 57.6275C9.33573 57.6717 9.42492 57.7402 9.49384 57.8269C9.5928 57.9535 9.64271 58.1116 9.63438 58.2721C9.62605 58.4325 9.56004 58.5846 9.44851 58.7002L6.63784 61.6122L8.07917 60.7816C8.2082 60.7082 8.35804 60.6799 8.50494 60.7013C8.65184 60.7227 8.7874 60.7925 8.89013 60.8997C8.99285 61.0069 9.05687 61.1452 9.07204 61.2929C9.0872 61.4406 9.05264 61.5891 8.97384 61.7149L7.96851 63.2976C8.10644 63.3157 8.23524 63.3766 8.33686 63.4716C8.43847 63.5667 8.50781 63.6911 8.53515 63.8275C8.56249 63.9639 8.54647 64.1055 8.48933 64.2323C8.43219 64.3592 8.33679 64.465 8.21651 64.5349L6.43384 65.5656C6.3329 65.6252 6.21775 65.6565 6.10051 65.6562Z" fill="#90A8ED"/>
<path d="M73.9383 66.0659C73.8048 66.0657 73.6745 66.0254 73.5641 65.9503C73.4538 65.8752 73.3686 65.7687 73.3194 65.6446C73.2703 65.5205 73.2596 65.3845 73.2886 65.2543C73.3176 65.124 73.3851 65.0054 73.4823 64.9139L73.9609 64.4646L72.6343 65.2299C72.4898 65.3141 72.319 65.341 72.1557 65.3052C71.9924 65.2694 71.8485 65.1736 71.7526 65.0367C71.6566 64.8998 71.6156 64.7318 71.6376 64.5661C71.6597 64.4004 71.7432 64.249 71.8716 64.1419L72.3823 63.7126L72.1796 63.8299C72.0397 63.9068 71.8769 63.9309 71.7208 63.8979C71.5646 63.8649 71.4255 63.777 71.3286 63.6502C71.2318 63.5233 71.1837 63.3659 71.193 63.2066C71.2024 63.0473 71.2686 62.8966 71.3796 62.7819L74.5889 59.5686L71.6209 61.2819C71.4805 61.3618 71.3159 61.3881 71.1576 61.3557C70.9994 61.3234 70.8582 61.2347 70.7604 61.1061C70.6627 60.9775 70.6149 60.8178 70.626 60.6566C70.6371 60.4955 70.7064 60.3438 70.8209 60.2299L74.4276 56.6859L71.0369 58.6419C70.8915 58.7245 70.7203 58.7494 70.5573 58.7117C70.3944 58.6739 70.2515 58.5763 70.1572 58.4381C70.0629 58.3 70.0239 58.1314 70.0481 57.9659C70.0722 57.8004 70.1577 57.65 70.2876 57.5446L71.3396 56.7033L70.6916 57.0779C70.5457 57.1651 70.372 57.1932 70.2061 57.1566C70.0401 57.12 69.8944 57.0214 69.7987 56.8809C69.703 56.7405 69.6646 56.5688 69.6913 56.4009C69.718 56.2331 69.8077 56.0818 69.9423 55.9779L71.1929 54.9846L70.3369 55.4779C70.1936 55.5599 70.025 55.5858 69.8637 55.5506C69.7024 55.5153 69.5599 55.4215 69.4638 55.2872C69.3677 55.153 69.3248 54.9878 69.3435 54.8238C69.3622 54.6597 69.4411 54.5085 69.5649 54.3993L73.0409 51.3632L69.8409 53.2139C69.6991 53.291 69.5341 53.314 69.3766 53.2786C69.2191 53.2432 69.0798 53.1519 68.9845 53.0216C68.8893 52.8913 68.8445 52.7309 68.8585 52.5701C68.8726 52.4093 68.9445 52.2591 69.0609 52.1473L73.5276 48.1099L69.2609 50.5766C69.1153 50.6613 68.9429 50.6876 68.7786 50.6504C68.6142 50.6132 68.4701 50.5151 68.3751 50.3759C68.2802 50.2366 68.2415 50.0666 68.2668 49.9001C68.2921 49.7335 68.3796 49.5826 68.5116 49.4779L71.2463 47.3006L68.8463 48.6872C68.6991 48.7722 68.5251 48.7977 68.3598 48.7587C68.1945 48.7196 68.0503 48.6189 67.9567 48.4772C67.8631 48.3354 67.8271 48.1633 67.8562 47.9959C67.8852 47.8285 67.9771 47.6785 68.1129 47.5766L69.2983 46.6899L68.4983 47.1459C68.3511 47.2279 68.1783 47.2511 68.0148 47.2108C67.8512 47.1706 67.7089 47.07 67.6165 46.9291C67.5241 46.7882 67.4884 46.6176 67.5167 46.4515C67.545 46.2855 67.6351 46.1363 67.7689 46.0339L68.7489 45.3099L68.1663 45.6446C68.0199 45.727 67.8478 45.7511 67.6844 45.712C67.521 45.673 67.3784 45.5737 67.285 45.434C67.1917 45.2943 67.1545 45.1246 67.1809 44.9587C67.2074 44.7928 67.2955 44.643 67.4276 44.5392L70.1756 42.4286L67.7623 43.8219C67.6184 43.9037 67.4492 43.929 67.2876 43.893C67.1261 43.8569 66.9837 43.7621 66.8882 43.6268C66.7928 43.4916 66.751 43.3257 66.7711 43.1614C66.7912 42.9971 66.8717 42.8461 66.9969 42.7379L72.6236 37.9499L67.1569 41.1032C67.0845 41.153 67.003 41.188 66.9171 41.2062C66.8312 41.2244 66.7425 41.2256 66.6562 41.2095C66.5698 41.1935 66.4875 41.1606 66.4138 41.1127C66.3402 41.0649 66.2767 41.003 66.2269 40.9306C66.1772 40.8582 66.1422 40.7767 66.124 40.6908C66.1058 40.6049 66.1046 40.5162 66.1207 40.4298C66.1367 40.3435 66.1696 40.2611 66.2174 40.1875C66.2653 40.1138 66.3272 40.0503 66.3996 40.0006L69.5196 37.5166L66.7129 39.1353C66.5693 39.2178 66.4001 39.2439 66.2383 39.2085C66.0765 39.1731 65.9336 39.0787 65.8376 38.9437C65.7416 38.8087 65.6992 38.6428 65.7188 38.4783C65.7384 38.3138 65.8185 38.1625 65.9436 38.0539L66.7689 37.3339L66.3689 37.5659C66.2387 37.6409 66.0869 37.6697 65.9383 37.6477C65.7896 37.6256 65.6528 37.5539 65.55 37.4443C65.4471 37.3347 65.3844 37.1936 65.3718 37.0438C65.3593 36.894 65.3978 36.7444 65.4809 36.6192L65.9849 35.8632C65.8422 35.8544 65.7061 35.8 65.5967 35.7079C65.4873 35.6158 65.4104 35.491 65.3774 35.3518C65.3444 35.2127 65.357 35.0666 65.4133 34.9352C65.4696 34.8038 65.5667 34.6939 65.6903 34.6219L67.6556 33.4859C67.7858 33.4109 67.9376 33.3821 68.0863 33.4042C68.2349 33.4262 68.3718 33.4979 68.4746 33.6075C68.5774 33.7171 68.6402 33.8583 68.6527 34.008C68.6652 34.1578 68.6268 34.3074 68.5436 34.4326L68.1769 34.9832L72.1636 32.6819C72.307 32.6009 72.4754 32.5759 72.6362 32.6117C72.797 32.6474 72.9388 32.7415 73.0344 32.8756C73.13 33.0098 73.1725 33.1746 73.1537 33.3382C73.135 33.5019 73.0564 33.6528 72.9329 33.7619L72.1063 34.4779L76.5889 31.8912C76.7346 31.8066 76.907 31.7802 77.0713 31.8174C77.2356 31.8547 77.3798 31.9528 77.4747 32.092C77.5697 32.2312 77.6084 32.4012 77.5831 32.5678C77.5577 32.7344 77.4703 32.8852 77.3383 32.9899L74.2236 35.4699L78.2943 33.1206C78.4382 33.0388 78.6074 33.0134 78.7689 33.0495C78.9305 33.0856 79.0728 33.1804 79.1683 33.3157C79.2638 33.4509 79.3055 33.6168 79.2854 33.7811C79.2653 33.9454 79.1848 34.0963 79.0596 34.2046L73.4329 38.9926L78.2956 36.1859C78.442 36.1035 78.6141 36.0794 78.7775 36.1185C78.9409 36.1575 79.0835 36.2568 79.1769 36.3965C79.2702 36.5362 79.3074 36.7059 79.2809 36.8718C79.2545 37.0377 79.1664 37.1875 79.0343 37.2913L76.2809 39.4059L78.2956 38.2432C78.443 38.1588 78.6172 38.1338 78.7824 38.1734C78.9476 38.2131 79.0915 38.3143 79.1846 38.4564C79.2777 38.5985 79.3131 38.7709 79.2834 38.9382C79.2537 39.1055 79.1613 39.2551 79.0249 39.3566L78.0543 40.0726L78.2956 39.9393C78.4427 39.8543 78.6167 39.8288 78.7821 39.8678C78.9474 39.9069 79.0916 40.0076 79.1852 40.1493C79.2788 40.2911 79.3147 40.4632 79.2857 40.6306C79.2567 40.798 79.1648 40.948 79.0289 41.0499L77.8383 41.9406L78.2956 41.6739C78.441 41.5928 78.6115 41.569 78.7736 41.6072C78.9357 41.6455 79.0776 41.743 79.1713 41.8806C79.2651 42.0182 79.304 42.1859 79.2804 42.3507C79.2568 42.5155 79.1723 42.6656 79.0436 42.7712L76.3116 44.9486L78.2956 43.8033C78.4374 43.7262 78.6024 43.7032 78.7599 43.7386C78.9174 43.7739 79.0567 43.8652 79.152 43.9955C79.2473 44.1258 79.292 44.2863 79.278 44.4471C79.2639 44.6079 79.192 44.7581 79.0756 44.8699L74.6076 48.9086L78.2956 46.7753C78.4389 46.6933 78.6076 46.6674 78.7689 46.7026C78.9302 46.7378 79.0727 46.8317 79.1688 46.9659C79.2649 47.1002 79.3077 47.2653 79.289 47.4294C79.2703 47.5934 79.1914 47.7447 79.0676 47.8539L75.5916 50.8886L78.2956 49.3286C78.4412 49.2445 78.6132 49.2185 78.7771 49.2558C78.941 49.2932 79.0848 49.3911 79.1796 49.5299C79.2747 49.6687 79.3138 49.8383 79.2891 50.0048C79.2644 50.1712 79.1776 50.3221 79.0463 50.4272L77.8036 51.4153L78.2983 51.1299C78.444 51.0452 78.6163 51.0189 78.7806 51.0561C78.945 51.0933 79.0891 51.1914 79.1841 51.3306C79.279 51.4699 79.3177 51.6399 79.2924 51.8064C79.2671 51.973 79.1796 52.1239 79.0476 52.2286L77.9876 53.0752L78.2983 52.8979C78.4387 52.818 78.6033 52.7918 78.7616 52.8241C78.9198 52.8564 79.061 52.9451 79.1588 53.0737C79.2566 53.2023 79.3043 53.362 79.2932 53.5232C79.2821 53.6844 79.2128 53.836 79.0983 53.9499L75.4983 57.4912L78.2983 55.8726C78.4381 55.7957 78.6009 55.7716 78.7571 55.8046C78.9132 55.8376 79.0524 55.9255 79.1492 56.0523C79.2461 56.1792 79.2942 56.3366 79.2848 56.4959C79.2755 56.6552 79.2093 56.8059 79.0983 56.9206L75.8876 60.1366L78.2876 58.7473C78.432 58.6645 78.6021 58.6387 78.7645 58.675C78.9269 58.7113 79.0699 58.8071 79.1653 58.9434C79.2607 59.0798 79.3017 59.2469 79.2802 59.4119C79.2586 59.5769 79.1761 59.7279 79.0489 59.8352L78.4449 60.3432C78.5883 60.3045 78.7405 60.3147 78.8773 60.3723C79.0142 60.4298 79.128 60.5314 79.2005 60.6609C79.2731 60.7905 79.3004 60.9405 79.278 61.0873C79.2556 61.2341 79.1848 61.3692 79.0769 61.4713L78.4889 62.0232C78.6439 61.992 78.8049 62.0169 78.9432 62.0934C79.0816 62.17 79.1882 62.2931 79.2441 62.441C79.3 62.5889 79.3016 62.7518 79.2485 62.9007C79.1954 63.0496 79.0911 63.1748 78.9543 63.2539L74.2663 65.9752C74.1669 66.0339 74.0537 66.0652 73.9383 66.0659Z" fill="#90A8ED"/>
<path d="M51.8248 8.87542C49.3901 8.38475 47.1581 8.28209 44.6794 7.75009C40.5608 -1.74991 39.4554 -1.28325 35.3954 7.89542C25.3794 8.94075 24.9954 9.40342 32.6474 16.1381C30.2834 26.4408 31.0168 26.1008 39.8274 21.2421C48.7221 26.3408 49.7034 26.1488 47.3688 15.8848C48.2954 14.3328 55.4821 10.0514 51.8248 8.87542ZM32.6581 16.0834C32.6581 16.0034 32.6488 16.0261 32.6581 16.0834ZM40.0501 21.1274C40.0794 21.1114 40.1088 21.0981 40.1368 21.0821C40.4034 20.9314 40.2341 21.1101 40.0501 21.1274ZM50.5368 10.7768C44.8034 15.8434 45.0128 15.3901 46.4714 22.8488C40.8034 18.9634 38.9554 19.6661 33.3368 23.1314C35.2034 15.8154 34.9181 14.8328 28.9794 10.1234C35.9328 9.51542 37.3368 9.47809 39.9448 2.66475C43.2781 10.4794 43.1754 9.00875 50.9981 10.1848C51.1288 10.3154 50.7621 10.5568 50.5368 10.7768Z" fill="black"/>
<path d="M26.9007 18.5726C25.2674 18.1952 23.786 18.1619 22.1007 17.7832C19.558 10.9832 17.8567 11.3832 15.338 17.9166C8.42338 18.6686 8.47671 19.2552 13.43 23.8779C11.938 30.3499 12.5567 31.4486 18.4594 27.5952C24.438 31.5059 25.566 30.2046 23.9047 23.5432C24.578 22.3192 29.2274 19.6432 26.9007 18.5726ZM25.5674 19.8592C22.4274 22.6752 21.2927 23.8592 22.634 28.1486C19.534 25.5139 17.662 26.3006 14.5874 28.3872C15.7994 22.9032 15.4847 23.1699 11.8194 19.5659C15.434 19.3712 17.5954 18.7192 18.582 14.9446C19.8954 19.2832 21.6487 19.2512 25.71 19.6819C25.694 19.6712 25.7407 19.6819 25.7407 19.6819C25.7367 19.7352 25.6034 19.8179 25.57 19.8592H25.5674Z" fill="black"/>
<path d="M69.3726 18.5721C67.7393 18.1948 66.2566 18.1614 64.5726 17.7828C62.0299 10.9828 60.3286 11.3828 57.8099 17.9161C50.8926 18.6668 50.9446 19.2601 55.8979 23.8828C54.4073 30.3548 55.0246 31.4534 60.9286 27.6001C66.9073 31.5108 68.0353 30.2094 66.3726 23.5481C67.0499 22.3188 71.6979 19.6428 69.3726 18.5721ZM68.0393 19.8588C64.8993 22.6748 63.7646 23.8588 65.1059 28.1481C62.0046 25.5134 60.1326 26.3001 57.0593 28.3868C58.2699 22.9028 57.9553 23.1694 54.2913 19.5654C57.9059 19.3708 60.0673 18.7188 61.0539 14.9441C62.3673 19.2828 64.1206 19.2508 68.1819 19.6814C68.1659 19.6708 68.2126 19.6814 68.2126 19.6814C68.2086 19.7348 68.0753 19.8174 68.0419 19.8588H68.0393Z" fill="black"/>
<path d="M21.1875 57.8394C21.2342 57.8154 21.2182 57.8234 21.1875 57.8394Z" fill="black"/>
<path d="M34.8014 78.1603H34.8121C34.7668 78.1789 34.7788 78.1736 34.8014 78.1603Z" fill="black"/>
<path d="M0.369813 61.6678C-0.11552 63.9718 1.18048 65.2945 3.47648 65.1825C7.11648 66.1158 9.51515 64.3092 9.52848 60.5478C11.5138 60.8652 13.9405 61.1505 14.7938 59.1638L17.4525 59.7732C13.6978 62.1358 15.3765 67.8678 19.9858 66.7465C19.8151 67.3757 19.8138 68.0389 19.9821 68.6689C20.1503 69.2988 20.4822 69.873 20.944 70.3333C21.4057 70.7936 21.981 71.1236 22.6115 71.2898C23.2419 71.456 23.9051 71.4526 24.5338 71.2798C23.6285 74.3638 27.1791 76.6358 29.8965 75.4132C29.9858 81.1772 37.1405 79.1825 39.1538 75.5718C41.3711 79.1172 47.6511 78.5878 47.9071 74.1905C50.1658 74.8772 53.3738 72.8798 53.1898 70.4678C56.0058 71.4865 60.0778 68.0345 58.0351 65.0812C60.4498 64.7852 62.6191 62.6958 61.8938 60.4145L64.8645 59.6038C65.5738 62.0945 68.1978 61.5652 70.3031 61.1158C70.6418 64.6265 71.9391 66.9572 75.8205 65.5358C77.0938 65.3092 79.1045 65.2212 79.5685 63.7332C79.7605 60.2585 79.5592 56.7078 79.6298 53.1998C79.6298 46.622 79.6298 40.042 79.6298 33.4598C78.5045 30.2292 73.8831 33.1118 71.4151 33.0158C69.4298 33.3705 65.2818 33.4438 64.9111 35.9318C62.8525 36.2465 60.1405 36.6772 60.3565 39.1798C57.4965 39.6278 55.1271 36.4932 52.6765 35.3025C49.8685 33.3092 47.0685 31.2358 43.4685 32.5998C40.2365 31.8825 37.0885 30.4998 33.8111 30.1212C27.7191 30.0732 24.5071 38.5745 18.6285 38.0052C18.6898 35.5918 16.0658 35.3998 14.0111 35.1745C13.4645 31.8052 8.44181 33.0865 5.94848 32.2412C4.03648 31.9745 0.511146 31.2332 0.36848 34.1278C0.043146 43.2838 0.505813 52.4958 0.369813 61.6678ZM19.3871 65.8932C16.5271 65.1505 16.7325 61.5105 18.8978 60.0492C19.4631 60.0905 20.2405 59.5825 19.9298 58.9718C20.2605 58.5822 20.632 58.2291 21.0378 57.9185C21.0285 57.9185 21.2071 57.8345 21.2378 57.8092C21.2626 57.8095 21.2873 57.8063 21.3111 57.7998C21.0831 57.8385 21.5885 57.7625 21.5991 57.7758C26.7885 59.0172 22.7778 63.8305 20.3485 65.8078C20.4098 65.7718 20.1498 65.9078 20.1751 65.8945C20.1285 65.9185 20.0618 65.9532 20.1751 65.8945C19.9169 65.9633 19.6451 65.9628 19.3871 65.8932ZM23.7258 70.1332C18.8925 68.0158 24.4205 62.9625 26.9525 61.4092C33.0778 62.0265 26.9578 70.1558 23.7258 70.1332ZM27.4338 74.1092C24.0125 71.1052 30.2338 66.1092 32.7178 64.8105C33.2165 64.901 33.6826 65.121 34.0695 65.4483C34.4564 65.7757 34.7505 66.199 34.9222 66.6759C35.094 67.1527 35.1374 67.6663 35.0482 68.1652C34.959 68.6641 34.7402 69.1308 34.4138 69.5185C32.3111 70.8825 30.3271 76.0558 27.4338 74.1092ZM35.7351 77.3665C35.5072 77.6353 35.2465 77.8744 34.9591 78.0785C34.9658 78.0785 34.7965 78.1612 34.7631 78.1892C34.7379 78.188 34.7127 78.1912 34.6885 78.1985C34.9178 78.1585 34.4138 78.2345 34.4031 78.2212C29.2818 77.0025 33.1085 72.0678 35.6525 70.1678C40.6191 70.0385 38.7765 75.2812 35.7351 77.3665ZM68.5725 34.3292C70.8925 34.5185 76.7965 31.3598 77.7031 33.9718C77.6018 44.0878 77.9618 54.3425 77.6018 64.4012C72.0658 66.7918 72.5045 61.0318 71.5165 57.2905C71.6378 53.4518 63.9765 34.0452 68.5725 34.3292ZM62.9631 37.6478C63.6184 37.4188 64.3022 37.2815 64.9951 37.2398C66.6431 44.7612 68.3885 52.2598 70.0165 59.7905C65.8485 61.5745 66.4605 56.2318 65.5818 53.6398C65.2485 48.9345 61.4378 41.6012 62.9631 37.6478ZM47.6018 33.8318C51.7911 35.8145 55.4858 41.1492 60.4951 39.9505C61.9138 46.2505 63.2045 52.5865 64.6951 58.8705L61.5951 59.7158C55.5378 53.5998 49.3285 47.0025 42.5685 41.7625C37.5445 40.4092 35.0938 45.5518 31.9365 48.3532C31.5824 48.6462 31.1673 48.8563 30.7214 48.9681C30.2756 49.0798 29.8104 49.0904 29.36 48.9989C28.9096 48.9075 28.4853 48.7165 28.1183 48.4398C27.7514 48.1631 27.4509 47.8077 27.2391 47.3998C25.3725 43.1665 31.0711 38.5198 33.9578 36.0185C38.3458 35.1225 43.1778 32.0852 47.6018 33.8318ZM22.6818 38.2585C29.7231 32.9132 31.7271 29.3038 40.9205 33.2758C37.9258 34.2558 34.6871 34.6332 31.8831 36.0758C29.1551 39.1358 22.9231 43.7078 25.5085 48.2545C26.2192 49.1054 27.185 49.705 28.2629 49.9646C29.3408 50.2242 30.4736 50.1299 31.4938 49.6958C35.5285 48.6292 37.3898 40.7985 42.0271 43.1145C47.8938 48.5158 53.5325 54.2865 59.3605 59.7745C61.0685 61.8118 59.2271 65.6278 56.6338 63.4798C52.3018 63.2385 57.7991 65.8798 56.5351 68.0425C55.8218 70.3092 53.3351 69.5665 52.2458 68.0585C51.8551 67.6838 50.0325 68.3052 50.4378 68.7612C52.7778 71.7972 49.7845 75.5372 46.9311 71.7612C46.5378 71.3892 44.7165 72.0132 45.1231 72.4652C48.1325 77.5145 42.9285 78.2185 40.2925 74.1745C41.8845 71.6252 39.2165 68.5918 36.4605 69.1918C38.5591 66.0265 34.7885 62.5772 31.5751 64.0505C31.9178 61.1718 28.5085 59.3985 26.1005 60.5225C26.4511 56.4838 20.8005 55.8052 18.6685 58.5065L15.1618 57.7065C16.2285 51.5278 17.4445 45.3772 18.4751 39.1932C19.2021 39.3265 19.9485 39.3125 20.67 39.1519C21.3914 38.9913 22.0733 38.6875 22.6751 38.2585H22.6818ZM16.6445 38.7038C15.5271 45.1318 14.3151 51.5478 13.1778 57.9758C13.2458 60.0772 11.2325 59.5852 9.76715 59.2172C11.1209 51.6438 12.4747 44.07 13.8285 36.4958C15.2338 36.5345 17.0805 36.9145 16.6378 38.7038H16.6445ZM2.30048 33.8332C2.34715 33.0812 2.03381 32.5145 3.08848 32.8505C5.78581 33.8865 11.5351 32.2452 12.0871 35.8732C10.3831 45.1345 8.83781 54.4545 7.11381 63.6932C6.81248 64.6772 6.61515 64.6065 5.76315 64.4932C4.34448 64.3238 2.05381 64.4318 2.29648 62.4185C2.27915 52.8892 2.31115 43.3598 2.30048 33.8332Z" fill="black"/>
</g>
</g>
<defs>
<clipPath id="clip0_3_11957">
<rect width="80" height="80" fill="white"/>
</clipPath>
</defs>
</svg>
