<svg width="80" height="80" viewBox="0 0 80 80" fill="none" xmlns="http://www.w3.org/2000/svg">
<g clip-path="url(#clip0_3_11959)">
<mask id="mask0_3_11959" style="mask-type:alpha" maskUnits="userSpaceOnUse" x="0" y="0" width="80" height="80">
<path d="M0 0H80V80H0V0Z" fill="black"/>
</mask>
<g mask="url(#mask0_3_11959)">
<path d="M12.9557 62.668C12.8089 62.668 12.6663 62.6195 12.5499 62.5302C12.4335 62.4409 12.3498 62.3156 12.3118 62.1738C12.2738 62.0321 12.2836 61.8818 12.3398 61.7462C12.396 61.6106 12.4953 61.4974 12.6224 61.424L15.8624 59.5573C15.9382 59.5091 16.0231 59.4767 16.1118 59.4621C16.2005 59.4475 16.2913 59.451 16.3786 59.4724C16.466 59.4938 16.5481 59.5326 16.62 59.5866C16.6919 59.6405 16.7522 59.7084 16.7972 59.7863C16.8422 59.8641 16.871 59.9503 16.8818 60.0395C16.8927 60.1288 16.8853 60.2193 16.8603 60.3057C16.8352 60.392 16.793 60.4724 16.736 60.542C16.6791 60.6116 16.6087 60.669 16.529 60.7106L13.289 62.5773C13.1878 62.6363 13.0728 62.6676 12.9557 62.668Z" fill="#FEC0F1"/>
<path d="M11.5515 79.0321C11.4161 79.0322 11.2838 78.991 11.1724 78.9141C11.0609 78.8371 10.9755 78.728 10.9276 78.6013C10.8797 78.4747 10.8715 78.3364 10.9041 78.2049C10.9367 78.0735 11.0086 77.9551 11.1102 77.8655L12.5115 76.6295L10.6635 77.6935C10.5165 77.7797 10.3421 77.8063 10.176 77.7679C10.01 77.7295 9.865 77.6289 9.77078 77.4869C9.67657 77.3449 9.64031 77.1723 9.66946 77.0043C9.69861 76.8364 9.79095 76.6861 9.92751 76.5841L12.9168 74.3175L9.37818 76.3681C9.2326 76.4497 9.06173 76.4737 8.89932 76.4354C8.73691 76.3971 8.59477 76.2993 8.50097 76.1612C8.40718 76.0232 8.36855 75.8551 8.39272 75.69C8.41689 75.5248 8.5021 75.3748 8.63151 75.2695L15.0435 70.1921L7.56618 74.5081C7.41886 74.5939 7.2443 74.6199 7.07838 74.5809C6.91245 74.5419 6.76777 74.4408 6.67405 74.2985C6.58033 74.1561 6.5447 73.9833 6.57449 73.8154C6.60427 73.6476 6.6972 73.4976 6.83418 73.3961L12.4342 69.2201L6.02351 72.9228C5.87413 73.0095 5.69694 73.0348 5.52925 72.9935C5.36156 72.9521 5.21647 72.8473 5.12452 72.7011C5.03258 72.5549 5.00097 72.3787 5.03635 72.2097C5.07172 72.0406 5.17133 71.8919 5.31418 71.7948L5.64618 71.5708L5.04485 71.9161C4.89821 72.0008 4.72483 72.0266 4.55991 71.9881C4.39499 71.9496 4.2509 71.8498 4.15688 71.709C4.06287 71.5681 4.02598 71.3968 4.05371 71.2297C4.08144 71.0626 4.1717 70.9124 4.30618 70.8095L10.4315 66.1321L3.37818 70.2028C3.23416 70.2836 3.06527 70.3081 2.90423 70.2715C2.74319 70.2349 2.60148 70.1398 2.50653 70.0047C2.41158 69.8696 2.37016 69.704 2.3903 69.5401C2.41043 69.3762 2.49069 69.2256 2.61551 69.1175L5.37151 66.7988L2.24618 68.5961C2.10412 68.684 1.93424 68.7153 1.77018 68.6839C1.60611 68.6526 1.45981 68.5607 1.36023 68.4266C1.26065 68.2925 1.21504 68.1259 1.23244 67.9597C1.24984 67.7936 1.32897 67.64 1.45418 67.5295L5.01551 64.1481L1.70885 66.0575C1.57462 66.1296 1.41974 66.1536 1.26998 66.1254C1.12023 66.0972 0.984643 66.0186 0.885809 65.9026C0.786975 65.7867 0.730856 65.6403 0.726799 65.488C0.722743 65.3357 0.770992 65.1865 0.863513 65.0655L2.93685 62.5788C2.78044 62.6451 2.60464 62.6491 2.44535 62.5901C2.28606 62.5312 2.15528 62.4136 2.07973 62.2615C2.00417 62.1093 1.98954 61.9341 2.03881 61.7716C2.08808 61.609 2.19754 61.4714 2.34485 61.3868L5.50618 59.5615C5.64173 59.4834 5.80043 59.4554 5.95451 59.4825C6.10858 59.5096 6.24822 59.5901 6.34898 59.7097C6.44974 59.8294 6.50521 59.9807 6.50567 60.1371C6.50613 60.2936 6.45156 60.4452 6.35151 60.5655L4.28618 63.0361L9.21951 60.1881C9.36084 60.1001 9.53 60.0681 9.6937 60.0985C9.85741 60.1289 10.0038 60.2195 10.1041 60.3524C10.2044 60.4853 10.2514 60.6509 10.2357 60.8167C10.22 60.9825 10.1429 61.1364 10.0195 61.2481L6.45285 64.6295L11.1968 61.8908C11.3409 61.8087 11.5104 61.7832 11.6722 61.8194C11.8341 61.8555 11.9766 61.9507 12.0721 62.0863C12.1675 62.2219 12.209 62.3882 12.1884 62.5527C12.1679 62.7172 12.0867 62.8682 11.9608 62.9761L9.20351 65.3041L18.7408 59.7988C18.8874 59.7159 19.06 59.6915 19.2238 59.7305C19.3876 59.7696 19.5306 59.8692 19.624 60.0094C19.7173 60.1495 19.7542 60.3198 19.7272 60.4861C19.7001 60.6523 19.6112 60.8021 19.4782 60.9055L13.3555 65.5801L20.8662 61.2441C21.0156 61.1574 21.1928 61.1321 21.3604 61.1735C21.5281 61.2148 21.6732 61.3196 21.7652 61.4658C21.8571 61.6121 21.8887 61.7882 21.8533 61.9573C21.818 62.1263 21.7184 62.2751 21.5755 62.3721L21.2515 62.5908L21.6395 62.3668C21.7868 62.2811 21.9614 62.255 22.1273 62.294C22.2932 62.333 22.4379 62.4341 22.5316 62.5765C22.6254 62.7188 22.661 62.8917 22.6312 63.0595C22.6014 63.2273 22.5085 63.3774 22.3715 63.4788L16.7635 67.6588L22.2635 64.4841C22.4091 64.4011 22.5807 64.376 22.7441 64.4138C22.9074 64.4515 23.0505 64.5495 23.1448 64.6881C23.2392 64.8267 23.2779 64.9957 23.2531 65.1615C23.2284 65.3273 23.1422 65.4778 23.0115 65.5828L16.5982 70.6655L21.5622 67.8001C21.7089 67.7166 21.8819 67.6919 22.0462 67.7309C22.2105 67.77 22.3538 67.87 22.4473 68.0106C22.5407 68.1513 22.5773 68.3222 22.5496 68.4888C22.5219 68.6554 22.4321 68.8052 22.2982 68.9081L18.0942 72.0868C18.2121 72.1162 18.3198 72.1773 18.4055 72.2634C18.4912 72.3495 18.5518 72.4575 18.5806 72.5755C18.6094 72.6936 18.6054 72.8173 18.5691 72.9333C18.5327 73.0492 18.4653 73.153 18.3742 73.2335L14.2022 76.9188C14.2691 77.0691 14.2781 77.2389 14.2274 77.3955C14.1767 77.552 14.0699 77.6843 13.9275 77.7668L11.8848 78.9468C11.7834 79.0046 11.6683 79.0341 11.5515 79.0321Z" fill="#FEC0F1"/>
<path d="M68.9557 62.668C68.8089 62.668 68.6663 62.6195 68.5499 62.5302C68.4335 62.4409 68.3498 62.3156 68.3118 62.1738C68.2738 62.0321 68.2836 61.8818 68.3398 61.7462C68.396 61.6106 68.4953 61.4974 68.6224 61.424L71.8624 59.5573C71.9382 59.5091 72.0231 59.4767 72.1118 59.4621C72.2005 59.4475 72.2913 59.451 72.3786 59.4724C72.466 59.4938 72.5481 59.5326 72.62 59.5866C72.6919 59.6405 72.7522 59.7084 72.7972 59.7863C72.8422 59.8641 72.871 59.9503 72.8818 60.0395C72.8927 60.1288 72.8853 60.2193 72.8603 60.3057C72.8352 60.392 72.793 60.4724 72.736 60.542C72.6791 60.6116 72.6087 60.669 72.529 60.7106L69.289 62.5773C69.1878 62.6363 69.0728 62.6676 68.9557 62.668Z" fill="#FEC0F1"/>
<path d="M67.0323 78.4995C66.8952 78.4995 66.7613 78.4572 66.6491 78.3783C66.5369 78.2995 66.4517 78.1879 66.4052 78.0589C66.3587 77.9299 66.3531 77.7896 66.3892 77.6573C66.4253 77.525 66.5014 77.407 66.607 77.3195L70.5763 74.0288L65.7896 76.7915C65.6426 76.8745 65.4695 76.8987 65.3053 76.859C65.1411 76.8194 64.9981 76.7189 64.9052 76.5779C64.8123 76.4368 64.7763 76.2658 64.8046 76.0993C64.8329 75.9328 64.9233 75.7832 65.0576 75.6808L69.107 72.6542L64.4056 75.3688C64.2575 75.4514 64.0834 75.4743 63.9189 75.433C63.7544 75.3917 63.6118 75.2892 63.5202 75.1464C63.4286 75.0037 63.3948 74.8314 63.4258 74.6646C63.4568 74.4978 63.5502 74.3492 63.687 74.2488L66.303 72.4008L63.2363 74.1702C63.0882 74.2539 62.9138 74.2778 62.7487 74.237C62.5835 74.1963 62.4402 74.094 62.348 73.9511C62.2558 73.8081 62.2218 73.6353 62.2528 73.4681C62.2839 73.3009 62.3777 73.1518 62.515 73.0515L66.4243 70.2515L61.9416 72.8395C61.794 72.9248 61.6193 72.9503 61.4535 72.9107C61.2876 72.8711 61.1432 72.7695 61.05 72.6268C60.9568 72.484 60.9218 72.311 60.9522 72.1432C60.9826 71.9755 61.0762 71.8257 61.2136 71.7248L66.4456 67.8822L60.4723 71.3342C60.3252 71.4172 60.1521 71.4413 59.988 71.4017C59.8238 71.362 59.6808 71.2615 59.5879 71.1205C59.4949 70.9795 59.459 70.8085 59.4873 70.642C59.5156 70.4755 59.606 70.3259 59.7403 70.2235L64.9603 66.3115L58.983 69.7622C58.8397 69.8429 58.6716 69.8679 58.5111 69.8322C58.3505 69.7965 58.2088 69.7028 58.1132 69.5689C58.0176 69.4351 57.9748 69.2707 57.9931 69.1072C58.0114 68.9438 58.0895 68.7929 58.2123 68.6835L61.3203 65.9822L57.979 67.9075C57.836 67.989 57.6679 68.0147 57.507 67.9797C57.3462 67.9447 57.204 67.8514 57.1078 67.7178C57.0117 67.5842 56.9683 67.4198 56.9861 67.2562C57.0039 67.0925 57.0817 66.9413 57.2043 66.8315L59.8656 64.4795L57.7323 65.7088C57.5953 65.7873 57.435 65.8146 57.2798 65.7858C57.1245 65.7571 56.9846 65.6743 56.8847 65.552C56.7849 65.4298 56.7316 65.2761 56.7345 65.1182C56.7373 64.9604 56.7961 64.8087 56.9003 64.6902L58.7376 62.6248C58.6114 62.6381 58.4841 62.6138 58.3717 62.555C58.2592 62.4962 58.1667 62.4054 58.1056 62.2942C58.0172 62.1411 57.9933 61.9591 58.0391 61.7883C58.0848 61.6175 58.1965 61.4719 58.3496 61.3835L61.511 59.5582C61.6481 59.4789 61.809 59.451 61.9648 59.4796C62.1206 59.5081 62.2611 59.5912 62.3613 59.7139C62.4614 59.8367 62.5145 59.9911 62.5112 60.1494C62.5078 60.3078 62.4482 60.4598 62.343 60.5782L60.6403 62.4902L64.9176 60.0222C65.0605 59.9421 65.2278 59.9173 65.3877 59.9527C65.5475 59.988 65.6888 60.0809 65.7846 60.2138C65.8803 60.3466 65.9239 60.51 65.9068 60.6729C65.8898 60.8358 65.8135 60.9867 65.6923 61.0968L63.0363 63.4502L66.6603 61.3582C66.8036 61.2774 66.9717 61.2525 67.1322 61.2881C67.2928 61.3238 67.4345 61.4176 67.5301 61.5514C67.6257 61.6852 67.6685 61.8497 67.6502 62.0131C67.6319 62.1765 67.5538 62.3275 67.431 62.4368L64.319 65.1395L73.951 59.5795C74.0981 59.4946 74.2721 59.469 74.4374 59.5081C74.6028 59.5471 74.747 59.6478 74.8406 59.7896C74.9342 59.9313 74.9701 60.1035 74.9411 60.2709C74.912 60.4382 74.8202 60.5882 74.6843 60.6902L69.4656 64.5995L76.2763 60.6675C76.424 60.5822 76.5987 60.5567 76.7645 60.5963C76.9304 60.6359 77.0747 60.7375 77.168 60.8802C77.2612 61.023 77.2962 61.196 77.2658 61.3638C77.2353 61.5315 77.1418 61.6813 77.0043 61.7822L71.7763 65.6222L77.587 62.2675C77.7351 62.1838 77.9095 62.1599 78.0746 62.2006C78.2398 62.2414 78.3831 62.3437 78.4753 62.4866C78.5674 62.6296 78.6015 62.8023 78.5705 62.9695C78.5394 63.1368 78.4456 63.2858 78.3083 63.3862L74.3937 66.1862L78.195 63.9902C78.3436 63.9016 78.5207 63.8743 78.6891 63.914C78.8574 63.9536 79.0038 64.0572 79.0972 64.2027C79.1906 64.3482 79.2239 64.5244 79.1899 64.6939C79.1559 64.8635 79.0573 65.0132 78.915 65.1115L76.2936 66.9648L78.223 65.8515C78.37 65.7685 78.5431 65.7443 78.7073 65.784C78.8715 65.8236 79.0145 65.9241 79.1074 66.0651C79.2004 66.2062 79.2363 66.3772 79.208 66.5437C79.1797 66.7102 79.0893 66.8598 78.955 66.9622L74.9096 69.9835L76.7323 68.9342C76.877 68.8507 77.0478 68.8246 77.2109 68.861C77.3739 68.8974 77.5174 68.9938 77.6128 69.1309C77.7082 69.2681 77.7486 69.4361 77.726 69.6016C77.7035 69.7672 77.6196 69.9182 77.491 70.0248L71.823 74.7248C71.9089 74.7817 71.9801 74.858 72.031 74.9475C72.1195 75.1005 72.1437 75.2823 72.0981 75.4531C72.0526 75.6238 71.9412 75.7695 71.7883 75.8582L67.3657 78.4102C67.2645 78.4692 67.1494 78.5001 67.0323 78.4995Z" fill="#FEC0F1"/>
<path d="M32.6421 60.665C32.5005 60.6649 32.3626 60.6196 32.2485 60.5358C32.1343 60.4521 32.0498 60.3341 32.0071 60.1991C31.9645 60.0641 31.966 59.919 32.0113 59.7848C32.0567 59.6507 32.1436 59.5345 32.2594 59.453L39.9927 54.0304L29.7087 59.9664C29.5601 60.0507 29.3848 60.0747 29.219 60.0335C29.0532 59.9923 28.9095 59.8891 28.8177 59.745C28.7258 59.601 28.6927 59.4271 28.7253 59.2594C28.7579 59.0917 28.8536 58.9429 28.9927 58.8437L40.3021 50.929L29.6634 57.065C29.5126 57.1573 29.3313 57.1859 29.1594 57.1446C28.9875 57.1032 28.839 56.9952 28.7467 56.8444C28.6544 56.6936 28.6258 56.5122 28.6672 56.3403C28.7086 56.1684 28.8166 56.02 28.9674 55.9277L31.2767 54.4304L29.3914 55.5197C29.2415 55.6036 29.0649 55.6263 28.8986 55.5832C28.7323 55.5401 28.589 55.4344 28.4988 55.2882C28.4085 55.142 28.3781 54.9666 28.414 54.7986C28.4499 54.6306 28.5493 54.4829 28.6914 54.3864L34.4394 50.5877L28.7901 53.8504C28.64 53.9439 28.4588 53.974 28.2866 53.934C28.1143 53.894 27.9649 53.7872 27.8714 53.637C27.7779 53.4869 27.7478 53.3058 27.7878 53.1335C27.8278 52.9612 27.9346 52.8119 28.0847 52.7184L36.0341 47.4064L27.7767 52.173C27.6266 52.2601 27.4485 52.2851 27.2802 52.243C27.112 52.2008 26.9667 52.0946 26.8754 51.9471C26.7841 51.7996 26.754 51.6223 26.7913 51.4528C26.8286 51.2834 26.9306 51.1352 27.0754 51.0397L34.8594 45.8837L26.4687 50.7277C26.3192 50.819 26.1398 50.8478 25.9692 50.8078C25.7986 50.7679 25.6506 50.6623 25.5572 50.5141C25.4638 50.3659 25.4325 50.1868 25.4701 50.0157C25.5077 49.8446 25.6112 49.6952 25.7581 49.5997L38.2914 41.0477L24.6274 48.9317C24.4772 49.0171 24.2997 49.0408 24.1324 48.9979C23.965 48.955 23.8208 48.8488 23.7302 48.7017C23.6397 48.5546 23.6097 48.378 23.6467 48.2093C23.6838 48.0405 23.7849 47.8927 23.9287 47.797L32.7074 42.0637L23.2047 47.549C23.0549 47.6343 22.8779 47.6581 22.7108 47.6157C22.5437 47.5732 22.3996 47.4676 22.3087 47.3212C22.2178 47.1747 22.1871 46.9987 22.2232 46.8301C22.2592 46.6616 22.3592 46.5135 22.5021 46.417L35.8647 37.4997L21.4367 45.8264C21.2868 45.9068 21.1118 45.9269 20.9475 45.8825C20.7832 45.8381 20.6422 45.7326 20.5532 45.5875C20.4642 45.4425 20.4341 45.2689 20.4689 45.1024C20.5038 44.9358 20.601 44.7889 20.7407 44.6917L31.8754 37.4477L19.9194 44.3504C19.7758 44.4329 19.6066 44.459 19.4447 44.4236C19.2829 44.3882 19.1401 44.2938 19.044 44.1588C18.948 44.0238 18.9057 43.8579 18.9253 43.6935C18.9449 43.529 19.025 43.3777 19.1501 43.269L20.3501 42.2304L18.7141 43.1744C18.5735 43.2554 18.4082 43.2824 18.2492 43.2504C18.0901 43.2183 17.9482 43.1293 17.8501 43.0001C17.752 42.8709 17.7043 42.7103 17.7161 42.5485C17.7279 42.3867 17.7983 42.2347 17.9141 42.121L20.1501 39.933L17.1567 41.6664C17.0137 41.7479 16.8456 41.7736 16.6848 41.7386C16.524 41.7036 16.3818 41.6103 16.2856 41.4767C16.1894 41.3431 16.1461 41.1787 16.1639 41.015C16.1817 40.8514 16.2594 40.7001 16.3821 40.5904L17.6847 39.437L15.9154 40.4584C15.7715 40.5415 15.6016 40.5679 15.4393 40.5323C15.2769 40.4967 15.1337 40.4017 15.0377 40.266C14.9417 40.1303 14.8999 39.9636 14.9204 39.7987C14.941 39.6337 15.0224 39.4824 15.1487 39.3744L15.9981 38.6397L14.7767 39.345C14.6391 39.4243 14.4777 39.4517 14.3216 39.4225C14.1654 39.3933 14.0249 39.3093 13.9252 39.1857C13.8255 39.062 13.7733 38.9069 13.7778 38.7481C13.7824 38.5893 13.8435 38.4374 13.9501 38.3197L16.5527 35.449L13.0247 37.4864C12.8804 37.5678 12.7109 37.5925 12.5493 37.5557C12.3877 37.5189 12.2456 37.4233 12.1507 37.2874C12.0559 37.1516 12.015 36.9853 12.036 36.8209C12.0571 36.6565 12.1386 36.5059 12.2647 36.3984L12.4927 36.2064H12.4834C12.352 36.282 12.1987 36.3105 12.0489 36.2873C11.8991 36.264 11.7616 36.1904 11.6593 36.0786C11.5569 35.9667 11.4957 35.8233 11.4858 35.6721C11.4759 35.5208 11.5178 35.3706 11.6047 35.2464L13.3154 32.8104L13.1714 32.8944C13.0955 32.9426 13.0107 32.975 12.9219 32.9896C12.8332 33.0042 12.7425 33.0007 12.6551 32.9793C12.5678 32.9579 12.4857 32.9191 12.4138 32.8651C12.3418 32.8112 12.2816 32.7432 12.2366 32.6654C12.1916 32.5875 12.1628 32.5014 12.1519 32.4121C12.1411 32.3229 12.1484 32.2324 12.1735 32.146C12.1985 32.0597 12.2408 31.9793 12.2977 31.9097C12.3546 31.8401 12.4251 31.7827 12.5047 31.741L15.2621 30.149C15.3935 30.0735 15.5468 30.0449 15.6966 30.0682C15.8464 30.0914 15.9838 30.165 16.0862 30.2768C16.1886 30.3887 16.2498 30.5321 16.2597 30.6834C16.2696 30.8346 16.2276 30.9848 16.1407 31.109L14.4314 33.5424L18.4887 31.1997C18.6333 31.1166 18.8037 31.0907 18.9665 31.127C19.1292 31.1634 19.2724 31.2594 19.3678 31.3962C19.4632 31.5329 19.5039 31.7005 19.4819 31.8658C19.4598 32.031 19.3766 32.1821 19.2487 32.289L19.0167 32.4837L19.5767 32.161C19.7144 32.0818 19.8758 32.0543 20.0319 32.0836C20.188 32.1128 20.3286 32.1968 20.4283 32.3204C20.5279 32.4441 20.5802 32.5992 20.5757 32.758C20.5711 32.9167 20.51 33.0687 20.4034 33.1864L17.8007 36.057L21.5421 33.897C21.6858 33.8155 21.8547 33.7903 22.016 33.8263C22.1773 33.8622 22.3195 33.9568 22.415 34.0917C22.5105 34.2265 22.5525 34.3921 22.5329 34.5562C22.5132 34.7202 22.4334 34.8712 22.3087 34.9797L21.4621 35.7064L22.7501 34.9637C22.8929 34.8824 23.0608 34.8568 23.2214 34.8917C23.382 34.9266 23.524 35.0196 23.6202 35.1529C23.7165 35.2861 23.7601 35.4502 23.7427 35.6136C23.7253 35.7771 23.6482 35.9283 23.5261 36.0384L22.2207 37.193L24.0701 36.1264C24.2106 36.0453 24.3759 36.0183 24.535 36.0504C24.694 36.0825 24.8359 36.1715 24.934 36.3007C25.0322 36.4299 25.0798 36.5904 25.068 36.7523C25.0563 36.9141 24.9859 37.0661 24.8701 37.1797L22.6341 39.3664L25.7221 37.5837C25.8657 37.5012 26.0349 37.4751 26.1967 37.5105C26.3585 37.5459 26.5014 37.6403 26.5974 37.7753C26.6935 37.9102 26.7358 38.0761 26.7162 38.2406C26.6966 38.4051 26.6165 38.5564 26.4914 38.665L25.2914 39.7024L52.9581 23.7317C53.108 23.6512 53.283 23.6311 53.4473 23.6755C53.6116 23.7199 53.7527 23.8255 53.8416 23.9705C53.9306 24.1156 53.9607 24.2892 53.9259 24.4557C53.891 24.6223 53.7938 24.7692 53.6541 24.8664L42.5141 32.1184L52.9581 26.089C53.1079 26.0038 53.2849 25.9799 53.452 26.0224C53.6191 26.0649 53.7632 26.1705 53.8541 26.3169C53.945 26.4634 53.9757 26.6394 53.9396 26.8079C53.9036 26.9765 53.8036 27.1246 53.6607 27.221L40.3034 36.1317L52.9581 28.8264C53.1085 28.7389 53.2873 28.7137 53.4561 28.7562C53.6248 28.7987 53.7703 28.9056 53.8614 29.0539C53.9524 29.2023 53.9819 29.3803 53.9434 29.5501C53.9049 29.7198 53.8015 29.8678 53.6554 29.9624L44.8834 35.6957L52.9581 31.029C53.1074 30.9423 53.2846 30.917 53.4523 30.9584C53.62 30.9997 53.7651 31.1045 53.8571 31.2507C53.949 31.397 53.9806 31.5731 53.9452 31.7422C53.9099 31.9112 53.8103 32.06 53.6674 32.157L41.1341 40.7117L52.9594 33.885C53.1093 33.7984 53.2871 33.7734 53.455 33.8155C53.623 33.8575 53.768 33.9633 53.8594 34.1104C53.951 34.2578 53.9815 34.4351 53.9444 34.6047C53.9073 34.7743 53.8055 34.9227 53.6607 35.0184L45.8781 40.1797L52.9581 36.093C53.1081 36.0039 53.287 35.9772 53.4565 36.0185C53.626 36.0599 53.7725 36.166 53.8647 36.3141C53.9568 36.4623 53.9872 36.6406 53.9493 36.8109C53.9114 36.9812 53.8083 37.1299 53.6621 37.225L45.7141 42.5317L52.9581 38.3517C53.1077 38.2711 53.2824 38.2507 53.4465 38.2947C53.6106 38.3386 53.7518 38.4435 53.8412 38.588C53.9305 38.7326 53.9614 38.9057 53.9273 39.0722C53.8933 39.2387 53.797 39.3859 53.6581 39.4837L47.9247 43.2757L52.9647 40.3664C53.1156 40.2741 53.2969 40.2455 53.4688 40.2869C53.6407 40.3282 53.7891 40.4362 53.8814 40.587C53.9737 40.7379 54.0023 40.9192 53.9609 41.0911C53.9195 41.263 53.8116 41.4114 53.6607 41.5037L51.3501 43.001L52.9101 42.101C53.0587 42.0167 53.234 41.9927 53.3998 42.0339C53.5656 42.0751 53.7093 42.1784 53.8011 42.3224C53.893 42.4665 53.9261 42.6403 53.8935 42.808C53.8609 42.9757 53.7652 43.1245 53.6261 43.2237L42.3141 51.1384L52.3807 45.3317C52.5293 45.2474 52.7046 45.2234 52.8704 45.2646C53.0363 45.3057 53.1799 45.409 53.2718 45.5531C53.3637 45.6971 53.3967 45.8709 53.3641 46.0387C53.3316 46.2064 53.2358 46.3552 53.0967 46.4544L45.3634 51.8837L51.3487 48.429C51.496 48.3453 51.6696 48.3208 51.8343 48.3604C51.9989 48.4001 52.1424 48.5009 52.2354 48.6425C52.3284 48.7841 52.364 48.9557 52.3351 49.1226C52.3061 49.2895 52.2147 49.4391 52.0794 49.541L46.5581 53.6437L50.5887 51.317C50.7316 51.2345 50.9 51.2079 51.0614 51.2424C51.2227 51.2769 51.3656 51.37 51.4623 51.5036C51.559 51.6373 51.6027 51.8021 51.5849 51.9662C51.5671 52.1302 51.4892 52.2818 51.3661 52.3917L47.1461 56.153L50.3034 54.3317C50.4463 54.2492 50.6147 54.2226 50.7761 54.2571C50.9374 54.2915 51.0803 54.3846 51.177 54.5183C51.2737 54.652 51.3173 54.8168 51.2996 54.9808C51.2818 55.1449 51.2038 55.2965 51.0807 55.4064L50.2221 56.173L50.3061 56.125C50.4169 56.0609 50.5438 56.0301 50.6717 56.0362C50.7996 56.0423 50.923 56.0852 51.0272 56.1595C51.1314 56.2339 51.212 56.3367 51.2593 56.4557C51.3066 56.5747 51.3187 56.7047 51.2941 56.8304L50.8767 58.9477C50.998 58.9889 51.1048 59.0641 51.1844 59.1643C51.264 59.2646 51.3131 59.3857 51.3258 59.5131C51.3384 59.6405 51.3141 59.7688 51.2558 59.8828C51.1974 59.9967 51.1075 60.0915 50.9967 60.1557L50.3301 60.5397C50.2193 60.6034 50.0925 60.6339 49.9649 60.6276C49.8372 60.6213 49.7141 60.5784 49.6101 60.5041C49.5061 60.4298 49.4257 60.3271 49.3784 60.2084C49.3311 60.0896 49.319 59.9598 49.3434 59.8344L49.7007 58.013L45.3007 60.5464C45.1571 60.6289 44.9879 60.655 44.8261 60.6196C44.6643 60.5842 44.5214 60.4898 44.4254 60.3548C44.3293 60.2198 44.287 60.0539 44.3066 59.8895C44.3262 59.725 44.4063 59.5737 44.5314 59.465L45.3887 58.6984L42.1887 60.5464C42.0458 60.6289 41.8774 60.6555 41.7161 60.621C41.5547 60.5865 41.4119 60.4935 41.3152 60.3598C41.2185 60.2261 41.1748 60.0613 41.1926 59.8972C41.2103 59.7332 41.2883 59.5816 41.4114 59.4717L45.6301 55.7117L37.2394 60.5557C37.0921 60.6394 36.9185 60.6639 36.7539 60.6243C36.5892 60.5847 36.4458 60.4838 36.3528 60.3422C36.2597 60.2007 36.2241 60.029 36.2531 59.8621C36.282 59.6952 36.3735 59.5456 36.5087 59.4437L42.0314 55.3397L32.9807 60.5637C32.8792 60.6277 32.7621 60.6628 32.6421 60.665Z" fill="#A3584A"/>
<path d="M47.2737 12.8223C47.1274 12.8218 46.9853 12.7731 46.8694 12.6839C46.7534 12.5946 46.67 12.4697 46.6321 12.3283C46.5942 12.187 46.6039 12.0371 46.6596 11.9018C46.7153 11.7665 46.814 11.6533 46.9404 11.5796L49.4391 10.1303C49.5921 10.0433 49.7733 10.0203 49.9432 10.0664C50.1131 10.1126 50.2579 10.224 50.3459 10.3765C50.4339 10.5289 50.4581 10.71 50.4131 10.8802C50.3681 11.0504 50.2576 11.1959 50.1057 11.2849L47.6071 12.7329C47.5059 12.7918 47.3908 12.8226 47.2737 12.8223Z" fill="#A3584A"/>
<path d="M40.6018 7.49316C40.4555 7.49265 40.3134 7.44401 40.1975 7.35475C40.0815 7.26548 39.9982 7.14055 39.9603 6.99922C39.9224 6.85789 39.932 6.70801 39.9877 6.5727C40.0434 6.43739 40.1421 6.32417 40.2685 6.25049L42.7672 4.80649C42.843 4.76203 42.9269 4.73301 43.014 4.7211C43.1011 4.70919 43.1897 4.71462 43.2747 4.7371C43.3597 4.75957 43.4395 4.79863 43.5093 4.85204C43.5791 4.90544 43.6377 4.97214 43.6817 5.04828C43.7256 5.12442 43.7541 5.2085 43.7654 5.29569C43.7768 5.38287 43.7708 5.47144 43.7477 5.55629C43.7247 5.64114 43.6851 5.72059 43.6312 5.79008C43.5774 5.85956 43.5103 5.91771 43.4338 5.96116L40.9352 7.40383C40.834 7.4627 40.7189 7.49354 40.6018 7.49316Z" fill="#A3584A"/>
<path d="M26.7073 39.0264C26.5633 39.0262 26.4232 38.9793 26.308 38.8928C26.1928 38.8063 26.1088 38.6849 26.0684 38.5466C26.028 38.4083 26.0335 38.2607 26.084 38.1258C26.1345 37.991 26.2274 37.8761 26.3487 37.7984L28.5593 36.381L27.0407 37.257C26.8911 37.3376 26.7163 37.358 26.5522 37.3141C26.3881 37.2701 26.2469 37.1652 26.1575 37.0207C26.0682 36.8762 26.0374 36.703 26.0714 36.5365C26.1054 36.3701 26.2017 36.2229 26.3407 36.125L34.2673 30.8957L27.0407 35.0664C26.8904 35.1503 26.7134 35.1729 26.5468 35.1294C26.3802 35.0858 26.237 34.9795 26.147 34.8327C26.0571 34.6859 26.0274 34.5099 26.0643 34.3417C26.1011 34.1735 26.2016 34.0261 26.3447 33.9304L31.4287 30.6317L27.0407 33.165C26.8917 33.2491 26.7162 33.2728 26.5503 33.2311C26.3844 33.1894 26.2409 33.0855 26.1495 32.941C26.0581 32.7964 26.0257 32.6223 26.059 32.4545C26.0923 32.2868 26.1889 32.1383 26.3287 32.0397L39.5367 22.8957L27.0407 30.109C26.8911 30.1929 26.7149 30.2159 26.5488 30.1732C26.3827 30.1305 26.2394 30.0255 26.1487 29.8799C26.0581 29.7343 26.027 29.5594 26.062 29.3915C26.097 29.2236 26.1954 29.0756 26.3367 28.9784L35.822 22.6157L27.0407 27.6824C26.8914 27.7663 26.7156 27.7896 26.5496 27.7474C26.3836 27.7052 26.2403 27.6007 26.1492 27.4557C26.0582 27.3106 26.0264 27.1361 26.0606 26.9683C26.0948 26.8005 26.1922 26.6523 26.3327 26.5544L31.2007 23.253L27.0473 25.653C26.8994 25.7379 26.7245 25.7629 26.5587 25.7228C26.3929 25.6827 26.2488 25.5805 26.156 25.4373C26.0632 25.2942 26.0289 25.1209 26.06 24.9532C26.0911 24.7855 26.1854 24.636 26.3233 24.5357L35.7033 17.753L27.0407 22.749C26.8919 22.8321 26.7171 22.8551 26.5519 22.8134C26.3868 22.7716 26.2439 22.6681 26.1526 22.5243C26.0613 22.3804 26.0285 22.2071 26.061 22.0399C26.0935 21.8727 26.1888 21.7242 26.3273 21.625L33.1793 16.861L27.0407 20.3997C26.8906 20.4867 26.7125 20.5118 26.5442 20.4696C26.3759 20.4274 26.2307 20.3213 26.1394 20.1738C26.0481 20.0262 26.0179 19.8489 26.0552 19.6795C26.0926 19.5101 26.1945 19.3619 26.3393 19.2664L27.9593 18.1904L27.0407 18.7237C26.8946 18.8051 26.7233 18.8287 26.5607 18.7897C26.3981 18.7507 26.2561 18.6521 26.1628 18.5133C26.0695 18.3746 26.0318 18.2058 26.0571 18.0406C26.0824 17.8753 26.1688 17.7256 26.2993 17.621L31.85 13.3104L27.0407 16.0877C26.8924 16.1692 26.7186 16.1912 26.5547 16.1493C26.3908 16.1074 26.2489 16.0048 26.1578 15.8622C26.0668 15.7195 26.0333 15.5476 26.0643 15.3813C26.0953 15.215 26.1884 15.0666 26.3247 14.9664L27.1847 14.3624L27.0407 14.445C26.8973 14.5283 26.7281 14.5552 26.566 14.5205C26.4039 14.4857 26.2605 14.3918 26.1639 14.257C26.0673 14.1223 26.0244 13.9564 26.0435 13.7917C26.0626 13.627 26.1424 13.4754 26.2673 13.3664L27.7193 12.0944L27.0407 12.485C26.9033 12.5634 26.7425 12.5904 26.5871 12.5611C26.4317 12.5319 26.2917 12.4484 26.1922 12.3255C26.0927 12.2026 26.0401 12.0483 26.0438 11.8902C26.0476 11.732 26.1074 11.5804 26.2127 11.4624L28.6673 8.74503L27.042 9.67836C26.9064 9.75647 26.7477 9.78441 26.5937 9.75731C26.4396 9.7302 26.2999 9.64978 26.1992 9.5301C26.0984 9.41043 26.043 9.25914 26.0425 9.1027C26.042 8.94625 26.0966 8.79463 26.1967 8.67437L27.218 7.4477C27.0861 7.41963 26.9659 7.35226 26.8731 7.25447C26.7804 7.15667 26.7194 7.03305 26.6983 6.89991C26.6772 6.76677 26.697 6.63036 26.755 6.50869C26.8131 6.38702 26.9066 6.28579 27.0233 6.21836L29.4673 4.8077C29.6029 4.7296 29.7616 4.70165 29.9157 4.72876C30.0697 4.75586 30.2094 4.83629 30.3101 4.95596C30.4109 5.07563 30.4664 5.22693 30.4668 5.38337C30.4673 5.53981 30.4127 5.69143 30.3127 5.8117L29.6087 6.65703L31.6567 5.47437C31.7942 5.39514 31.9555 5.36757 32.1115 5.39662C32.2675 5.42567 32.4081 5.50943 32.5079 5.63285C32.6076 5.75626 32.6601 5.91123 32.6559 6.06989C32.6516 6.22854 32.5909 6.38047 32.4847 6.49836L30.03 9.21836L32.9113 7.5557C33.0547 7.47241 33.2239 7.44552 33.386 7.48027C33.5481 7.51503 33.6915 7.60894 33.7881 7.74368C33.8847 7.87842 33.9276 8.04432 33.9085 8.20901C33.8894 8.37369 33.8096 8.52534 33.6847 8.63437L32.234 9.90503L39.6233 5.63837C39.7719 5.55406 39.9472 5.53002 40.113 5.57121C40.2788 5.6124 40.4225 5.71568 40.5144 5.85973C40.6062 6.00378 40.6393 6.1776 40.6067 6.34532C40.5742 6.51304 40.4784 6.66185 40.3393 6.76103L39.4687 7.3717L39.6233 7.2837C39.7694 7.20229 39.9407 7.17873 40.1033 7.21769C40.2659 7.25665 40.4079 7.35529 40.5012 7.49405C40.5945 7.6328 40.6322 7.80155 40.6069 7.96683C40.5816 8.1321 40.4952 8.28185 40.3647 8.38636L34.8207 12.6944L45.754 6.3797C45.8284 6.33356 45.9112 6.30253 45.9976 6.28838C46.084 6.27423 46.1723 6.27724 46.2576 6.29724C46.3428 6.31724 46.4233 6.35383 46.4944 6.40492C46.5655 6.45602 46.6259 6.52061 46.672 6.59503C46.7181 6.66945 46.7492 6.75222 46.7633 6.83863C46.7775 6.92504 46.7744 7.01338 46.7544 7.09863C46.7345 7.18387 46.6979 7.26434 46.6468 7.33545C46.5957 7.40655 46.5311 7.46689 46.4567 7.51303L44.8273 8.59436L46.254 7.77036C46.4028 7.68496 46.5788 7.66022 46.7454 7.7013C46.912 7.74237 47.0563 7.84609 47.1484 7.99088C47.2405 8.13567 47.2732 8.31038 47.2397 8.47866C47.2062 8.64694 47.1091 8.79584 46.9687 8.89437L40.1233 13.6544L46.294 10.093C46.4419 10.0081 46.6168 9.98316 46.7826 10.0233C46.9484 10.0634 47.0925 10.1656 47.1853 10.3087C47.2781 10.4519 47.3124 10.6252 47.2813 10.7929C47.2502 10.9606 47.1559 11.11 47.018 11.2104L37.638 17.9997L46.294 12.9957C46.4433 12.9118 46.6191 12.8885 46.7851 12.9307C46.951 12.9729 47.0944 13.0773 47.1854 13.2224C47.2765 13.3674 47.3082 13.5419 47.274 13.7097C47.2399 13.8775 47.1425 14.0258 47.002 14.1237L42.134 17.4317L52.3127 11.5544C52.4624 11.4676 52.64 11.4424 52.8079 11.4842C52.9759 11.526 53.121 11.6315 53.2126 11.7783C53.3042 11.9251 53.3351 12.1018 53.2988 12.271C53.2625 12.4403 53.1618 12.5887 53.018 12.685L43.5367 19.0437L52.9607 13.5997C53.1096 13.5156 53.2851 13.492 53.451 13.5337C53.6169 13.5754 53.7604 13.6792 53.8518 13.8238C53.9433 13.9683 53.9757 14.1425 53.9423 14.3102C53.909 14.4779 53.8124 14.6265 53.6727 14.725L40.4647 23.869L52.9607 16.6664C53.111 16.5824 53.2879 16.5598 53.4545 16.6034C53.6211 16.6469 53.7643 16.7533 53.8543 16.9001C53.9442 17.0469 53.9739 17.2228 53.9371 17.391C53.9002 17.5592 53.7997 17.7066 53.6567 17.8024L48.5727 21.101L52.9607 18.5677C53.1103 18.4871 53.285 18.4667 53.4491 18.5107C53.6132 18.5546 53.7544 18.6595 53.8438 18.804C53.9331 18.9485 53.964 19.1217 53.9299 19.2882C53.8959 19.4547 53.7996 19.6019 53.6607 19.6997L45.734 24.9237L52.958 20.753C53.1087 20.6688 53.2861 20.6463 53.4531 20.6903C53.62 20.7342 53.7633 20.8412 53.853 20.9887C53.9426 21.1362 53.9716 21.3128 53.9337 21.4812C53.8958 21.6496 53.7941 21.7967 53.65 21.8917L51.4393 23.3077L52.958 22.4317C53.1104 22.352 53.2876 22.3342 53.4528 22.3822C53.6179 22.4301 53.7581 22.5399 53.8442 22.6888C53.9302 22.8377 53.9554 23.014 53.9145 23.181C53.8736 23.348 53.7698 23.4928 53.6247 23.585L27.0407 38.933C26.9397 38.993 26.8247 39.0251 26.7073 39.0264Z" fill="#A3584A"/>
<path d="M33.3697 8.13964C33.2409 8.13962 33.1149 8.10229 33.0068 8.03218C32.8988 7.96206 32.8134 7.86216 32.7609 7.74454C32.7085 7.62692 32.6912 7.49663 32.7112 7.3694C32.7312 7.24218 32.7877 7.12347 32.8737 7.02764L35.103 4.5463L33.7084 5.3463C33.5706 5.42552 33.409 5.4529 33.2528 5.42352C33.0966 5.39413 32.9561 5.30991 32.8565 5.18604C32.7569 5.06217 32.7049 4.9068 32.7097 4.74794C32.7146 4.58908 32.776 4.43718 32.883 4.31964L33.727 3.3943C33.6069 3.33611 33.5071 3.24321 33.4404 3.12764C33.352 2.97452 33.328 2.79255 33.3738 2.62177C33.4195 2.45099 33.5312 2.30538 33.6844 2.21697L36.1297 0.807636C36.2675 0.728355 36.429 0.700909 36.5852 0.730246C36.7415 0.759584 36.8821 0.843775 36.9817 0.967636C37.0813 1.09154 37.1334 1.24698 37.1285 1.4059C37.1236 1.56482 37.0621 1.71676 36.955 1.8343L36.7604 2.04764L38.063 1.29697C38.2003 1.21858 38.3609 1.1915 38.5162 1.22056C38.6716 1.24962 38.8116 1.33293 38.9112 1.45562C39.0108 1.57832 39.0636 1.73241 39.0602 1.89042C39.0567 2.04843 38.9972 2.20008 38.8924 2.3183L36.663 4.7983L39.4777 3.17297C39.5536 3.12473 39.6384 3.09235 39.7271 3.07775C39.8159 3.06316 39.9066 3.06666 39.9939 3.08806C40.0813 3.10945 40.1634 3.14828 40.2353 3.20223C40.3072 3.25617 40.3675 3.32411 40.4125 3.40195C40.4575 3.47979 40.4863 3.56594 40.4971 3.65519C40.508 3.74445 40.5007 3.83498 40.4756 3.92133C40.4506 4.00768 40.4083 4.08807 40.3514 4.15767C40.2944 4.22726 40.224 4.28463 40.1444 4.3263L33.703 8.0503C33.6019 8.10948 33.4868 8.14034 33.3697 8.13964Z" fill="#A3584A"/>
<path d="M31.9244 79.2915C31.7827 79.2916 31.6446 79.2466 31.5303 79.1629C31.4159 79.0792 31.3312 78.9613 31.2884 78.8262C31.2456 78.6911 31.2469 78.5459 31.2922 78.4116C31.3376 78.2773 31.4245 78.161 31.5404 78.0795L39.4977 72.4795L28.6684 78.7262C28.5196 78.8116 28.3436 78.8363 28.177 78.7952C28.0104 78.7542 27.8661 78.6504 27.774 78.5057C27.6819 78.3609 27.6492 78.1862 27.6827 78.0179C27.7162 77.8496 27.8133 77.7007 27.9537 77.6022L38.7911 70.0435L28.3751 76.0555C28.2245 76.1412 28.0465 76.1649 27.8787 76.1217C27.711 76.0784 27.5667 75.9715 27.4763 75.8236C27.386 75.6758 27.3568 75.4986 27.3949 75.3295C27.433 75.1605 27.5354 75.013 27.6804 74.9182L29.7391 73.5848L28.3751 74.3715C28.2251 74.4554 28.0486 74.4781 27.8823 74.435C27.716 74.3918 27.5727 74.2862 27.4824 74.14C27.3922 73.9938 27.3618 73.8184 27.3977 73.6504C27.4336 73.4824 27.5329 73.3347 27.6751 73.2382L31.7151 70.5715L28.3817 72.4982C28.2342 72.5848 28.0591 72.6114 27.8925 72.5725C27.7259 72.5336 27.5806 72.4321 27.4868 72.2891C27.3929 72.1461 27.3576 71.9724 27.3882 71.8041C27.4188 71.6358 27.5129 71.4857 27.6511 71.3848L36.0777 65.1515L28.3751 69.5982C28.229 69.6811 28.0569 69.7058 27.8934 69.6674C27.7298 69.629 27.5868 69.5302 27.493 69.3908C27.3991 69.2515 27.3614 69.0818 27.3872 68.9158C27.4131 68.7498 27.5006 68.5997 27.6324 68.4955L33.2777 64.0955L28.3751 66.9315C28.2333 67.0076 28.0688 67.0298 27.9119 66.9941C27.755 66.9584 27.6163 66.8671 27.5214 66.7371C27.4265 66.6072 27.3819 66.4473 27.3956 66.2869C27.4094 66.1266 27.4807 65.9767 27.5964 65.8648L31.3631 62.4795L28.3751 64.1968C28.2315 64.2781 28.0629 64.3032 27.9018 64.2673C27.7408 64.2315 27.5988 64.1371 27.5033 64.0026C27.4077 63.8681 27.3655 63.703 27.3846 63.5391C27.4038 63.3752 27.4831 63.2243 27.6071 63.1155L28.1271 62.6688C28.0076 62.6843 27.8862 62.667 27.7757 62.619C27.6653 62.5709 27.5699 62.4939 27.4997 62.3959C27.4296 62.298 27.3873 62.1829 27.3773 62.0629C27.3673 61.9428 27.39 61.8223 27.4431 61.7142L28.1537 60.2635C28.0042 60.2722 27.8561 60.2302 27.7333 60.1444C27.6105 60.0587 27.5202 59.934 27.4769 59.7906C27.4336 59.6472 27.4399 59.4934 27.4947 59.354C27.5495 59.2146 27.6497 59.0977 27.7791 59.0222L29.3271 58.1288C29.4507 58.0572 29.5941 58.0272 29.7361 58.0432C29.8781 58.0592 30.0112 58.1204 30.1157 58.2178C30.2203 58.3152 30.2908 58.4436 30.3169 58.5841C30.3429 58.7246 30.3231 58.8698 30.2604 58.9982L29.6044 60.3315L33.4271 58.1315C33.5707 58.049 33.7399 58.0229 33.9017 58.0583C34.0636 58.0937 34.2064 58.1881 34.3024 58.3231C34.3985 58.458 34.4408 58.6239 34.4212 58.7884C34.4016 58.9529 34.3215 59.1042 34.1964 59.2128L33.8844 59.4795L36.2231 58.1315C36.3649 58.0554 36.5294 58.0332 36.6863 58.0689C36.8432 58.1046 36.9819 58.1959 37.0768 58.3259C37.1716 58.4558 37.2163 58.6157 37.2025 58.7761C37.1887 58.9364 37.1174 59.0863 37.0017 59.1982L33.2351 62.5808L40.9537 58.1315C41.0998 58.0485 41.2719 58.0238 41.4354 58.0623C41.599 58.1007 41.742 58.1995 41.8358 58.3388C41.9297 58.4782 41.9675 58.6478 41.9416 58.8138C41.9158 58.9798 41.8282 59.13 41.6964 59.2342L36.0497 63.6342L45.5804 58.1315C45.7279 58.047 45.902 58.0221 46.0672 58.0617C46.2325 58.1013 46.3763 58.2025 46.4694 58.3447C46.5626 58.4868 46.5979 58.6591 46.5682 58.8264C46.5385 58.9937 46.4461 59.1434 46.3097 59.2448L37.8817 65.4755L50.5657 58.1542C50.7161 58.0641 50.8959 58.0369 51.0662 58.0784C51.2365 58.12 51.3836 58.2269 51.4756 58.3761C51.5677 58.5253 51.5973 58.7047 51.558 58.8755C51.5187 59.0464 51.4137 59.1948 51.2658 59.2888L47.2457 61.9382L51.6271 59.4048C51.7773 59.3233 51.953 59.3026 52.118 59.3469C52.283 59.3912 52.4247 59.4972 52.5139 59.643C52.603 59.7887 52.6328 59.9632 52.597 60.1302C52.5613 60.2973 52.4627 60.4443 52.3218 60.5408L50.2524 61.8808L51.6284 61.0875C51.7772 61.0021 51.9532 60.9774 52.1198 61.0184C52.2864 61.0595 52.4308 61.1632 52.5228 61.308C52.6149 61.4528 52.6476 61.6275 52.6141 61.7958C52.5806 61.9641 52.4835 62.113 52.3431 62.2115L41.5017 69.7742L51.6284 63.9315C51.7771 63.8446 51.9537 63.8187 52.1211 63.8591C52.2885 63.8995 52.4337 64.0031 52.5264 64.1482C52.6192 64.2933 52.6521 64.4687 52.6185 64.6376C52.5848 64.8064 52.487 64.9557 52.3457 65.0542L44.3897 70.6648L51.6284 66.4862C51.7751 66.4043 51.9473 66.3808 52.1106 66.4205C52.2738 66.4601 52.4161 66.5599 52.5089 66.6999C52.6018 66.8399 52.6383 67.0098 52.6113 67.1756C52.5842 67.3414 52.4956 67.4909 52.3631 67.5942L45.6178 72.7022L51.6284 69.2355C51.7749 69.1514 51.9478 69.1261 52.1122 69.1646C52.2766 69.203 52.4203 69.3025 52.5143 69.4428C52.6082 69.5831 52.6454 69.7539 52.6183 69.9206C52.5913 70.0873 52.5019 70.2375 52.3684 70.3408L48.8537 73.0488L51.6284 71.4488C51.7668 71.3687 51.9293 71.3409 52.0864 71.3706C52.2435 71.4003 52.3847 71.4854 52.4843 71.6105C52.5838 71.7356 52.6351 71.8923 52.6288 72.0521C52.6225 72.2119 52.5589 72.364 52.4497 72.4808L49.3284 75.8328L51.6284 74.4995C51.7645 74.4208 51.924 74.3927 52.0788 74.4202C52.2335 74.4477 52.3736 74.529 52.4743 74.6497C52.5749 74.7705 52.6297 74.9229 52.6288 75.0801C52.628 75.2373 52.5717 75.3892 52.4697 75.5088L51.8617 76.2208C52.0152 76.1978 52.1718 76.229 52.3047 76.3091C52.4376 76.3892 52.5384 76.5131 52.5898 76.6596C52.6411 76.806 52.6398 76.9657 52.586 77.1113C52.5322 77.2568 52.4293 77.379 52.2951 77.4568L49.2631 79.1982C49.1271 79.2761 48.9681 79.3037 48.8139 79.276C48.6597 79.2484 48.5201 79.1673 48.4197 79.047C48.3193 78.9267 48.2645 78.7749 48.2648 78.6182C48.2652 78.4615 48.3208 78.31 48.4217 78.1902L48.9404 77.5822L46.1351 79.1982C45.9969 79.2774 45.8349 79.3045 45.6785 79.2746C45.522 79.2448 45.3814 79.1598 45.2821 79.0353C45.1829 78.9107 45.1315 78.7547 45.1373 78.5955C45.1431 78.4364 45.2057 78.2845 45.3137 78.1675L48.4364 74.8142L40.8484 79.1982C40.7019 79.2841 40.5281 79.3109 40.3625 79.2731C40.1969 79.2352 40.052 79.1356 39.9574 78.9945C39.8628 78.8534 39.8256 78.6815 39.8534 78.514C39.8812 78.3464 39.972 78.1958 40.1071 78.0928L43.6271 75.3822L37.0151 79.1982C36.8683 79.2817 36.6953 79.3064 36.531 79.2674C36.3668 79.2283 36.2234 79.1283 36.13 78.9877C36.0365 78.847 36 78.6761 36.0276 78.5095C36.0553 78.3429 36.1452 78.1931 36.2791 78.0902L43.0257 72.9822L32.2577 79.1982C32.157 79.2585 32.0419 79.2907 31.9244 79.2915Z" fill="#23A094"/>
<path d="M19.7673 59.8933C18.4478 59.4889 17.0418 59.4592 15.7064 59.8074C14.371 60.1556 13.1586 60.8681 12.2046 61.8653C7.54725 55.9586 -3.11275 62.4466 1.40458 69.1293C4.16592 72.3293 7.31925 75.2186 10.2166 78.3133C10.3951 78.5435 10.6218 78.7318 10.8808 78.8653C11.1397 78.9987 11.4247 79.0739 11.7158 79.0858C12.0068 79.0976 12.297 79.0457 12.5659 78.9336C12.8348 78.8216 13.076 78.6522 13.2726 78.4373C17.5019 73.7053 29.8046 65.1026 19.7673 59.8933ZM12.8433 77.1613C12.6486 77.3613 12.4513 77.592 12.2473 77.816C9.40059 75 6.64725 72.0946 3.84725 69.2333C-0.931416 63.5453 6.35792 56.4986 11.0953 63.2693C13.9953 63.8893 14.4659 58.368 19.1833 61.1573C26.3006 66.6946 16.4699 72.8986 12.8433 77.1613Z" fill="black"/>
<path d="M75.7724 59.9343C74.4525 59.5535 73.0544 59.5355 71.7251 59.8823C70.3959 60.2291 69.1847 60.9279 68.2191 61.905C63.6191 56.0476 52.8658 62.4756 57.3951 69.133C60.1698 72.3156 63.3044 75.209 66.1951 78.2943C66.8284 79.3996 68.4178 79.1156 69.2458 78.401C73.4351 73.7023 85.8004 65.0716 75.7724 59.9343ZM68.8484 77.1983C68.6564 77.3956 68.4631 77.6263 68.2618 77.853C65.4138 75.021 62.6618 72.1196 59.8498 69.2516C55.0804 63.553 62.2884 56.397 67.0831 63.2423C70.1644 63.6276 70.4791 58.3223 75.1724 61.1316C82.2991 66.6996 72.5138 72.9316 68.8484 77.1983Z" fill="black"/>
<path d="M54.3076 14.3478C54.3348 13.5751 54.1478 12.8099 53.7673 12.1368C53.3868 11.4637 52.8276 10.909 52.1515 10.5338C51.4754 10.1587 50.7088 9.97772 49.9363 10.011C49.1638 10.0443 48.4156 10.2905 47.7743 10.7225C48.5236 6.51449 44.6209 3.00115 40.9876 5.51049C41.7023 -0.792182 32.2729 -0.740181 32.3476 5.27582C27.0143 2.98115 24.8369 8.31582 25.6969 12.9385V36.6038C22.9116 34.5132 20.7369 31.3212 17.4049 30.1265C12.9796 28.9838 8.87161 34.5185 12.3289 38.0318C17.3649 44.3185 28.3436 49.7252 28.3636 58.3812C25.5556 59.5425 27.6463 73.7678 27.0303 77.4478C27.5089 80.4478 31.6969 78.8452 33.8303 79.2358C37.8449 78.5958 51.1236 80.7998 52.8276 77.8065C53.2663 75.1118 52.8089 72.2452 52.9609 69.5038C52.3916 66.5052 54.4636 59.8252 51.6276 58.2665C50.9129 52.6932 53.5156 47.7892 54.2596 42.4118C54.3752 33.0705 54.3912 23.7158 54.3076 14.3478ZM50.9503 78.0972C44.4943 78.1092 37.9343 78.0892 31.4436 78.0972C30.4436 78.0972 29.1303 78.4372 28.9689 77.0812C29.0089 71.1932 28.8903 65.1452 29.0089 59.3092C36.1516 59.3025 43.2943 59.3212 50.4369 59.3025C51.2303 59.6478 51.0329 60.7918 51.0329 61.5105C50.9343 66.9878 51.2103 72.6932 50.9503 78.0972ZM52.3236 42.5958C51.6476 47.8345 49.0143 52.5958 49.6876 58.0238H30.3076C32.3236 48.1945 8.06761 38.6332 14.1743 31.9398C17.5863 29.3465 22.8063 37.3065 25.7743 39.0612C26.2009 39.4385 27.6409 39.3398 27.6409 38.5638C27.6409 28.6456 27.6409 18.7265 27.6409 8.80649C27.6002 8.26582 27.7216 7.72527 27.9895 7.25386C28.2573 6.78246 28.6596 6.40157 29.1449 6.15982C34.8209 4.55982 31.5569 20.7398 32.3689 24.2518C32.3689 24.4958 34.2996 24.2438 34.2996 23.7345V10.3052C34.6236 7.94382 32.9823 2.16116 36.6436 2.03849C39.7596 2.24382 39.0276 6.66649 39.0276 8.75582C39.0489 13.2585 39.0276 17.8225 39.0276 22.3558V24.2558C39.0276 24.7518 40.9596 24.4212 40.9596 23.7385C40.9676 18.6852 40.9436 13.6238 40.9676 8.57582C41.1076 6.45048 43.3516 5.03182 44.9276 6.92382C46.3769 9.03315 45.3943 11.8212 45.7183 14.2012C45.6503 17.5345 45.7183 20.9092 45.6943 24.2558C45.6943 24.5945 47.6263 24.3132 47.6263 23.7385C48.1876 20.8772 45.5343 8.67182 51.3596 12.0305C52.6036 13.1798 52.3503 14.9518 52.3516 16.4812C52.2116 25.1732 52.7103 33.9118 52.3236 42.5958Z" fill="black"/>
</g>
</g>
<defs>
<clipPath id="clip0_3_11959">
<rect width="80" height="80" fill="white"/>
</clipPath>
</defs>
</svg>
