<svg width="81" height="80" viewBox="0 0 81 80" fill="none" xmlns="http://www.w3.org/2000/svg">
<g clip-path="url(#clip0_3_11958)">
<mask id="mask0_3_11958" style="mask-type:alpha" maskUnits="userSpaceOnUse" x="0" y="0" width="81" height="80">
<path d="M0.5 0H80.5V80H0.5V0Z" fill="black"/>
</mask>
<g mask="url(#mask0_3_11958)">
<path d="M74.3319 79.2807C74.1997 79.2809 74.0705 79.2418 73.9605 79.1684C73.8506 79.095 73.765 78.9906 73.7145 78.8684C73.6641 78.7462 73.6511 78.6118 73.6772 78.4822C73.7034 78.3526 73.7674 78.2337 73.8613 78.1407L75.0373 76.97L72.3933 78.4953C72.2534 78.5722 72.0906 78.5963 71.9344 78.5633C71.7783 78.5303 71.6392 78.4424 71.5423 78.3156C71.4455 78.1887 71.3974 78.0313 71.4067 77.872C71.4161 77.7127 71.4823 77.562 71.5933 77.4473L74.3586 74.69L70.5853 76.8673C70.4435 76.9434 70.279 76.9656 70.1221 76.9299C69.9652 76.8942 69.8265 76.8029 69.7316 76.673C69.6367 76.543 69.592 76.3831 69.6058 76.2228C69.6196 76.0625 69.6909 75.9125 69.8066 75.8007L71.9319 73.894L69.1853 75.4793C69.0401 75.5626 68.8689 75.5882 68.7058 75.551C68.5426 75.5139 68.3994 75.4168 68.3045 75.2789C68.2096 75.1411 68.1701 74.9726 68.1937 74.8069C68.2173 74.6412 68.3023 74.4905 68.4319 74.3847L69.0199 73.9113L68.1279 74.4247C67.9821 74.5099 67.8093 74.5366 67.6445 74.4993C67.4797 74.4621 67.3353 74.3637 67.2403 74.224C67.1453 74.0843 67.1069 73.9137 67.1328 73.7468C67.1587 73.5798 67.247 73.429 67.3799 73.3247L67.5266 73.21L67.1359 73.4353C66.9942 73.5096 66.8306 73.5304 66.6748 73.4939C66.5191 73.4575 66.3816 73.3663 66.2875 73.237C66.1934 73.1076 66.1489 72.9487 66.1622 72.7893C66.1755 72.6299 66.2457 72.4806 66.3599 72.3687L68.4119 70.5313L65.7533 72.0647C65.6098 72.1469 65.4409 72.1729 65.2793 72.1376C65.1178 72.1023 64.9751 72.0081 64.879 71.8735C64.783 71.7389 64.7404 71.5734 64.7595 71.4091C64.7787 71.2449 64.8582 71.0936 64.9826 70.9847L66.7626 69.438L64.4546 70.7713C64.3126 70.8563 64.144 70.8854 63.9816 70.853C63.8193 70.8206 63.6748 70.7289 63.5764 70.5958C63.4779 70.4628 63.4325 70.2978 63.4489 70.1331C63.4653 69.9684 63.5425 69.8157 63.6653 69.7047L66.1986 67.33L62.9106 69.2247C62.7654 69.3095 62.5935 69.3363 62.4293 69.2997C62.2652 69.2631 62.1209 69.1659 62.0255 69.0274C61.93 68.8889 61.8904 68.7195 61.9146 68.5531C61.9388 68.3867 62.025 68.2355 62.1559 68.13L62.8639 67.5553L61.8319 68.15C61.6887 68.2307 61.5206 68.2557 61.36 68.22C61.1995 68.1843 61.0578 68.0906 60.9622 67.9568C60.8666 67.823 60.8238 67.6585 60.8421 67.4951C60.8604 67.3316 60.9384 67.1807 61.0613 67.0713L62.8599 65.506L60.5293 66.8513C60.386 66.9333 60.2173 66.9592 60.056 66.924C59.8947 66.8888 59.7522 66.7949 59.6561 66.6607C59.56 66.5264 59.5172 66.3612 59.5358 66.1972C59.5545 66.0331 59.6334 65.8819 59.7573 65.7727L61.6439 64.1193L59.2026 65.5273C59.0578 65.6098 58.8873 65.6349 58.7248 65.5979C58.5623 65.5609 58.4196 65.4644 58.3247 65.3274C58.2299 65.1904 58.1898 65.0228 58.2123 64.8577C58.2349 64.6926 58.3185 64.5419 58.4466 64.4353L59.3626 63.6847L58.0893 64.418C57.9494 64.4948 57.7866 64.519 57.6304 64.486C57.4743 64.453 57.3352 64.3651 57.2383 64.2382C57.1415 64.1114 57.0934 63.954 57.1027 63.7947C57.1121 63.6353 57.1783 63.4847 57.2893 63.37L62.5213 58.1313C62.4801 57.9884 62.488 57.8358 62.5436 57.6979C62.5991 57.5599 62.6992 57.4445 62.8279 57.37L63.9826 56.7033C64.1225 56.6265 64.2853 56.6023 64.4414 56.6353C64.5976 56.6683 64.7367 56.7562 64.8336 56.8831C64.9304 57.0099 64.9785 57.1673 64.9692 57.3267C64.9598 57.486 64.8936 57.6367 64.7826 57.7513L61.8079 60.7233L65.7346 58.4567C65.8794 58.3742 66.0499 58.349 66.2124 58.386C66.3749 58.423 66.5176 58.5196 66.6125 58.6566C66.7073 58.7936 66.7474 58.9612 66.7249 59.1263C66.7023 59.2914 66.6187 59.4421 66.4906 59.5487L65.5733 60.3007L66.8466 59.5673C66.9897 59.4868 67.1575 59.4619 67.3179 59.4975C67.4782 59.5331 67.6197 59.6265 67.7154 59.76C67.8111 59.8935 67.8541 60.0576 67.8362 60.2209C67.8184 60.3841 67.7409 60.535 67.6186 60.6447L65.7306 62.2993L68.1719 60.8913C68.3152 60.8106 68.4833 60.7856 68.6438 60.8213C68.8044 60.857 68.9461 60.9507 69.0417 61.0845C69.1373 61.2184 69.1801 61.3828 69.1618 61.5463C69.1435 61.7097 69.0654 61.8606 68.9426 61.97L67.1439 63.5353L69.4719 62.1913C69.6174 62.1041 69.7905 62.0757 69.9562 62.1116C70.1219 62.1476 70.2677 62.2454 70.3638 62.385C70.46 62.5247 70.4993 62.6957 70.4738 62.8633C70.4483 63.031 70.3599 63.1826 70.2266 63.2873L69.5213 63.858L70.5479 63.266C70.69 63.181 70.8586 63.1519 71.0209 63.1843C71.1832 63.2167 71.3277 63.3084 71.4262 63.4415C71.5246 63.5746 71.5701 63.7395 71.5536 63.9042C71.5372 64.0689 71.4601 64.2217 71.3373 64.3327L68.8039 66.7073L72.0986 64.8127C72.2421 64.7304 72.411 64.7044 72.5726 64.7397C72.7341 64.7751 72.8768 64.8692 72.9728 65.0038C73.0689 65.1384 73.1115 65.3039 73.0924 65.4682C73.0732 65.6324 72.9937 65.7837 72.8693 65.8927L71.0879 67.4407L73.3973 66.1073C73.5401 66.026 73.708 66.0004 73.8686 66.0353C74.0292 66.0702 74.1712 66.1632 74.2674 66.2965C74.3637 66.4297 74.4073 66.5938 74.3899 66.7573C74.3725 66.9207 74.2954 67.072 74.1733 67.182L72.1173 69.0127L74.7706 67.4807C74.9165 67.3954 75.0892 67.3687 75.254 67.406C75.4188 67.4432 75.5633 67.5417 75.6583 67.6814C75.7533 67.8211 75.7917 67.9916 75.7658 68.1585C75.7398 68.3255 75.6515 68.4764 75.5186 68.5807L75.3666 68.6993L75.7666 68.4713C75.912 68.386 76.0843 68.3589 76.2489 68.3955C76.4134 68.4321 76.558 68.5297 76.6535 68.6686C76.749 68.8076 76.7883 68.9775 76.7635 69.1443C76.7387 69.311 76.6517 69.4622 76.5199 69.5673L75.9346 70.038L76.8226 69.526C76.9644 69.4499 77.1289 69.4277 77.2858 69.4634C77.4427 69.4991 77.5814 69.5904 77.6763 69.7204C77.7712 69.8503 77.8158 70.0102 77.802 70.1705C77.7883 70.3309 77.7169 70.4808 77.6013 70.5927L75.4759 72.4993L78.0986 70.9913C78.2385 70.9145 78.4013 70.8903 78.5574 70.9233C78.7136 70.9563 78.8527 71.0442 78.9496 71.1711C79.0464 71.2979 79.0945 71.4553 79.0852 71.6147C79.0758 71.774 79.0096 71.9247 78.8986 72.0393L76.1346 74.798L78.7826 73.2687C78.9227 73.1908 79.086 73.166 79.2429 73.1988C79.3997 73.2316 79.5395 73.3198 79.6366 73.4472C79.7338 73.5746 79.7818 73.7327 79.7718 73.8927C79.7619 74.0526 79.6947 74.2036 79.5826 74.318L78.3719 75.5273C78.5281 75.4754 78.698 75.4831 78.8488 75.5489C78.9997 75.6147 79.1209 75.7339 79.1891 75.8837C79.2572 76.0335 79.2676 76.2032 79.2182 76.3602C79.1687 76.5172 79.063 76.6503 78.9213 76.734L74.6653 79.198C74.5633 79.2542 74.4484 79.2827 74.3319 79.2807Z" fill="#90A8ED"/>
<path d="M38.6945 71.2173C38.5517 71.217 38.4128 71.1709 38.2982 71.0858C38.1835 71.0007 38.0993 70.881 38.0578 70.7444C38.0163 70.6078 38.0197 70.4615 38.0676 70.327C38.1155 70.1925 38.2053 70.0769 38.3238 69.9973L50.9238 61.5373L34.3505 71.1066C34.1999 71.1923 34.0219 71.216 33.8541 71.1728C33.6864 71.1295 33.5421 71.0226 33.4517 70.8747C33.3614 70.7269 33.3322 70.5497 33.3703 70.3806C33.4084 70.2116 33.5108 70.0641 33.6558 69.9693L44.9651 62.7039L31.0798 70.7199C30.9289 70.8062 30.7502 70.8301 30.5819 70.7865C30.4136 70.7429 30.2689 70.6353 30.1788 70.4866C30.0888 70.3379 30.0603 70.1598 30.0996 69.9905C30.1389 69.8211 30.2428 69.6738 30.3891 69.5799L41.5505 62.5213L28.3331 70.1506C28.1826 70.2322 28.0065 70.2527 27.8412 70.208C27.676 70.1632 27.5343 70.0566 27.4455 69.9102C27.3567 69.7638 27.3276 69.5889 27.3643 69.4217C27.401 69.2544 27.5006 69.1077 27.6425 69.0119L42.7985 59.4119L25.6051 69.3346C25.4546 69.4162 25.2785 69.4367 25.1132 69.392C24.948 69.3472 24.8063 69.2406 24.7175 69.0942C24.6287 68.9478 24.5996 68.7729 24.6363 68.6057C24.673 68.4384 24.7726 68.2917 24.9145 68.1959L43.5118 56.4013L22.9171 68.2879C22.7665 68.3722 22.589 68.3947 22.4221 68.3507C22.2552 68.3067 22.1118 68.1997 22.0222 68.0522C21.9325 67.9047 21.9036 67.7282 21.9414 67.5598C21.9793 67.3914 22.081 67.2442 22.2251 67.1493L46.4291 51.6426L20.0558 66.8693C19.9049 66.9567 19.7257 66.9815 19.5567 66.9384C19.3877 66.8953 19.2424 66.7877 19.1518 66.6386C19.0612 66.4893 19.0327 66.3104 19.0726 66.1403C19.1125 65.9703 19.2176 65.8227 19.3651 65.7293L43.1171 50.6919L17.6398 65.3999C17.4884 65.4872 17.3089 65.5116 17.1397 65.4678C16.9706 65.424 16.8254 65.3156 16.7354 65.1658C16.6454 65.016 16.6178 64.8369 16.6585 64.667C16.6992 64.4971 16.805 64.35 16.9531 64.2573L39.9425 49.8239L15.5638 63.8973C15.4125 63.9887 15.231 64.0162 15.0593 63.9738C14.8877 63.9315 14.7399 63.8226 14.6485 63.6713C14.5571 63.5199 14.5295 63.3385 14.5719 63.1668C14.6143 62.9951 14.7231 62.8473 14.8745 62.7559L40.8091 46.4173L13.5131 62.1759C13.3618 62.2673 13.1803 62.2949 13.0087 62.2525C12.837 62.2101 12.6892 62.1013 12.5978 61.9499C12.5064 61.7986 12.4789 61.6171 12.5212 61.4455C12.5636 61.2738 12.6725 61.126 12.8238 61.0346L41.0438 43.2013L11.5518 60.2306C11.4002 60.3131 11.2224 60.3335 11.056 60.2876C10.8896 60.2417 10.7475 60.133 10.6596 59.9845C10.5717 59.8359 10.5448 59.6591 10.5846 59.4911C10.6245 59.3232 10.7279 59.1772 10.8731 59.0839L15.6865 56.1653L10.5611 59.1239C10.4094 59.2148 10.2278 59.2417 10.0563 59.1987C9.88478 59.1557 9.73736 59.0463 9.64648 58.8946C9.5556 58.7429 9.5287 58.5613 9.57171 58.3898C9.61472 58.2182 9.72411 58.0708 9.87581 57.9799L32.6531 43.8386L9.16381 57.3999C9.01211 57.4908 8.83051 57.5177 8.65898 57.4747C8.48745 57.4317 8.34003 57.3223 8.24914 57.1706C8.15826 57.0189 8.13137 56.8373 8.17438 56.6658C8.21739 56.4942 8.32677 56.3468 8.47848 56.2559L30.3318 42.7239L7.93181 55.6573C7.78027 55.7411 7.60207 55.7626 7.43493 55.7173C7.26779 55.672 7.12482 55.5635 7.03629 55.4147C6.94776 55.2658 6.92061 55.0884 6.96059 54.9199C7.00056 54.7514 7.10453 54.6051 7.25048 54.5119L21.1171 46.0359L7.01181 54.1773C6.85975 54.2676 6.67803 54.2939 6.50662 54.2502C6.33522 54.2066 6.18816 54.0967 6.09781 53.9446C6.00746 53.7925 5.98122 53.6108 6.02485 53.4394C6.06848 53.268 6.17842 53.121 6.33048 53.0306L21.0305 44.0386L6.14781 52.6266C5.99558 52.7166 5.81383 52.7424 5.64254 52.6984C5.47126 52.6544 5.32447 52.5442 5.23448 52.3919C5.14448 52.2397 5.11864 52.058 5.16265 51.8867C5.20666 51.7154 5.31691 51.5686 5.46914 51.4786L10.6478 48.3413L5.49448 51.3159C5.34322 51.398 5.16611 51.4183 5.00019 51.3728C4.83426 51.3272 4.69238 51.2193 4.60421 51.0715C4.51604 50.9237 4.48841 50.7476 4.5271 50.58C4.56579 50.4123 4.66781 50.2661 4.81181 50.1719L20.9451 40.2746L4.75314 49.6213C4.6015 49.7037 4.42378 49.7242 4.25737 49.6783C4.09097 49.6324 3.94886 49.5237 3.86094 49.3752C3.77301 49.2266 3.74614 49.0497 3.78597 48.8818C3.8258 48.7138 3.92922 48.5679 4.07448 48.4746L13.3811 42.8093L4.18114 48.1199C4.02926 48.2106 3.84757 48.2373 3.67604 48.194C3.50451 48.1508 3.35718 48.0411 3.26648 47.8893C3.17577 47.7374 3.14912 47.5557 3.19238 47.3842C3.23564 47.2126 3.34526 47.0653 3.49714 46.9746L22.4971 35.2479L3.56381 46.1813C3.41228 46.2725 3.23072 46.2998 3.05906 46.2572C2.8874 46.2145 2.73971 46.1055 2.64848 45.9539C2.55724 45.8024 2.52994 45.6208 2.57257 45.4492C2.61521 45.2775 2.72428 45.1298 2.87581 45.0386L28.8065 28.7559L2.93981 43.6893C2.78846 43.7807 2.607 43.8082 2.43534 43.7658C2.26368 43.7235 2.11589 43.6146 2.02448 43.4633C1.93307 43.3119 1.90552 43.1305 1.94791 42.9588C1.99029 42.7871 2.09913 42.6393 2.25048 42.5479L27.9105 26.3853L2.49714 41.0546C2.34589 41.1366 2.16878 41.157 2.00285 41.1114C1.83693 41.0659 1.69505 40.9579 1.60687 40.8102C1.5187 40.6624 1.49108 40.4863 1.52977 40.3186C1.56846 40.151 1.67047 40.0048 1.81448 39.9106L13.9638 32.4533L2.31048 39.1773C2.1586 39.2638 1.9788 39.2872 1.80981 39.2425C1.64082 39.1978 1.49616 39.0885 1.40699 38.9381C1.31782 38.7877 1.29128 38.6084 1.33308 38.4386C1.37488 38.2689 1.48168 38.1224 1.63048 38.0306L7.67048 34.3453L2.23048 37.4866C2.07932 37.5699 1.90178 37.5912 1.73518 37.5463C1.56857 37.5013 1.42589 37.3935 1.33714 37.2455C1.24838 37.0976 1.22046 36.9209 1.25925 36.7528C1.29805 36.5846 1.40053 36.4381 1.54514 36.3439L16.9598 26.7733L2.23714 35.2706C2.0856 35.3544 1.9074 35.3759 1.74026 35.3306C1.57312 35.2854 1.43016 35.1768 1.34163 35.028C1.25309 34.8792 1.22594 34.7018 1.26592 34.5333C1.30589 34.3648 1.40986 34.2185 1.55581 34.1253L6.31581 31.2119L2.34781 33.5026C2.19655 33.5846 2.01944 33.605 1.85352 33.5594C1.6876 33.5139 1.54571 33.4059 1.45754 33.2582C1.36937 33.1104 1.34174 32.9343 1.38043 32.7666C1.41913 32.599 1.52114 32.4528 1.66514 32.3586L8.08914 28.4013L2.56648 31.6013C2.41596 31.6828 2.23982 31.7034 2.07457 31.6586C1.90932 31.6139 1.76762 31.5073 1.67883 31.3609C1.59004 31.2145 1.56097 31.0396 1.59764 30.8723C1.63431 30.7051 1.73392 30.5584 1.87581 30.4626L19.2545 19.4359L3.10248 28.7546C2.95196 28.8362 2.77582 28.8567 2.61057 28.812C2.44532 28.7672 2.30362 28.6606 2.21483 28.5142C2.12604 28.3678 2.09697 28.1929 2.13364 28.0257C2.17031 27.8584 2.26992 27.7117 2.41181 27.6159L18.0278 17.6466L3.92648 25.7879C3.77522 25.87 3.59811 25.8903 3.43219 25.8448C3.26626 25.7992 3.12438 25.6913 3.03621 25.5435C2.94804 25.3958 2.92041 25.2196 2.9591 25.052C2.99779 24.8843 3.09981 24.7381 3.24381 24.6439L4.48381 23.8759C4.34421 23.9114 4.19693 23.9014 4.06338 23.8475C3.92983 23.7935 3.81695 23.6984 3.74114 23.5759C3.65175 23.4256 3.62499 23.2462 3.66664 23.0764C3.70829 22.9065 3.81502 22.7598 3.96381 22.6679L7.53981 20.4266L5.64781 21.5186C5.49676 21.6032 5.31871 21.6258 5.15133 21.5815C4.98395 21.5372 4.84037 21.4295 4.75098 21.2812C4.6616 21.1329 4.63341 20.9556 4.67238 20.7869C4.71136 20.6182 4.81444 20.4713 4.95981 20.3773L6.78514 19.2293C6.64375 19.2745 6.49142 19.2722 6.3515 19.2225C6.21158 19.1729 6.09179 19.0788 6.01048 18.9546C5.91801 18.8095 5.88525 18.6342 5.91905 18.4655C5.95285 18.2967 6.05058 18.1476 6.19181 18.0493L17.3771 10.2333L10.3265 14.3039C10.1787 14.388 10.0044 14.4124 9.83927 14.3722C9.6741 14.332 9.53051 14.2303 9.43788 14.0878C9.34524 13.9452 9.31055 13.7727 9.3409 13.6054C9.37125 13.4382 9.46434 13.2888 9.60114 13.1879L14.9638 9.29193C14.8352 9.23429 14.728 9.13776 14.6571 9.01594C14.5687 8.86282 14.5448 8.68085 14.5905 8.51007C14.6363 8.33929 14.748 8.19368 14.9011 8.10527L23.1891 3.31994C23.3368 3.23776 23.5102 3.21475 23.6742 3.25554C23.8382 3.29633 23.9806 3.39789 24.0726 3.53967C24.1645 3.68144 24.1992 3.85286 24.1697 4.01925C24.1401 4.18564 24.0484 4.33457 23.9131 4.43594L20.6731 6.7906L30.1278 1.3346C30.2766 1.2492 30.4526 1.22446 30.6192 1.26553C30.7858 1.3066 30.9302 1.41032 31.0222 1.55511C31.1143 1.6999 31.147 1.87462 31.1135 2.0429C31.08 2.21118 30.9829 2.36007 30.8425 2.4586L19.6531 10.2679L36.0558 0.80127C36.2066 0.718354 36.3836 0.696953 36.5498 0.741531C36.716 0.786117 36.8585 0.893227 36.9475 1.04047C37.0366 1.18772 37.0652 1.36369 37.0275 1.53158C36.9898 1.69946 36.8886 1.84626 36.7451 1.94127L35.1958 2.91727L38.6905 0.899933C38.8414 0.818199 39.018 0.797798 39.1835 0.842964C39.349 0.88813 39.4908 0.995399 39.5793 1.14244C39.6677 1.28947 39.6961 1.46497 39.6584 1.63239C39.6208 1.79981 39.52 1.94626 39.3771 2.04127L35.8198 4.26794L41.1971 1.1666C41.3481 1.08595 41.5244 1.06648 41.6893 1.11221C41.8543 1.15794 41.9953 1.26537 42.0832 1.41224C42.1712 1.55911 42.1992 1.73418 42.1616 1.90117C42.124 2.06816 42.0236 2.21429 41.8811 2.30927L41.2425 2.70927L43.2758 1.53593C43.4244 1.46739 43.5931 1.45592 43.7496 1.50371C43.9062 1.5515 44.0397 1.65521 44.1247 1.79508C44.2097 1.93495 44.2403 2.1012 44.2106 2.26217C44.181 2.42314 44.0931 2.56757 43.9638 2.66794L28.3638 12.6226L46.2612 2.2986C46.4117 2.21703 46.5878 2.1965 46.7531 2.24124C46.9183 2.286 47.06 2.39261 47.1488 2.53899C47.2376 2.68537 47.2667 2.8603 47.23 3.02753C47.1933 3.19476 47.0937 3.34148 46.9518 3.43727L29.5731 14.4639L48.9811 3.26394C49.133 3.17341 49.3147 3.14693 49.4861 3.19031C49.6575 3.23369 49.8046 3.34339 49.8951 3.49527C49.9857 3.64715 50.0122 3.82877 49.9688 4.00018C49.9254 4.17159 49.8157 4.31874 49.6638 4.40927L43.2078 8.37194L50.7491 4.01994C50.9007 3.93615 51.0789 3.91462 51.246 3.9599C51.4132 4.00517 51.5561 4.11371 51.6447 4.26254C51.7332 4.41135 51.7603 4.58878 51.7204 4.75727C51.6804 4.92576 51.5764 5.07208 51.4305 5.16527L46.6758 8.07594L52.3372 4.80127C52.4889 4.71039 52.6704 4.68349 52.842 4.7265C53.0135 4.76951 53.1609 4.8789 53.2518 5.0306C53.3427 5.1823 53.3696 5.3639 53.3266 5.53543C53.2836 5.70696 53.1742 5.85438 53.0225 5.94527L37.5931 15.5293L54.2598 5.90527C54.4114 5.82149 54.5896 5.79995 54.7567 5.84523C54.9238 5.89051 55.0668 5.99905 55.1553 6.14787C55.2439 6.29669 55.271 6.47412 55.231 6.64261C55.1911 6.8111 55.0871 6.95741 54.9411 7.05061L48.9345 10.7199L55.6838 6.82394C55.8354 6.74015 56.0136 6.71862 56.1807 6.76389C56.3478 6.80917 56.4908 6.91771 56.5793 7.06654C56.6679 7.21535 56.695 7.39278 56.655 7.56127C56.6151 7.72976 56.5111 7.87608 56.3652 7.96927L44.2198 15.4359L57.2065 7.9386C57.3578 7.84719 57.5393 7.81965 57.711 7.86203C57.8826 7.90442 58.0304 8.01325 58.1218 8.1646C58.2132 8.31595 58.2408 8.49742 58.1984 8.66908C58.156 8.84073 58.0472 8.98852 57.8958 9.07994L32.2305 25.2373L59.2571 9.63727C59.4082 9.55264 59.5863 9.53009 59.7536 9.5744C59.921 9.61871 60.0646 9.7264 60.154 9.87469C60.2434 10.023 60.2715 10.2002 60.2326 10.3689C60.1936 10.5376 60.0905 10.6846 59.9451 10.7786L34.0265 27.0519L61.1051 11.4186C61.257 11.3279 61.4387 11.3012 61.6103 11.3445C61.7818 11.3878 61.9291 11.4974 62.0198 11.6493C62.1105 11.8012 62.1372 11.9828 62.0939 12.1544C62.0507 12.3259 61.941 12.4732 61.7892 12.5639L42.7758 24.2973L62.4731 12.9239C62.625 12.8374 62.8048 12.814 62.9738 12.8587C63.1428 12.9034 63.2875 13.0127 63.3766 13.1631C63.4658 13.3135 63.4923 13.4928 63.4505 13.6626C63.4087 13.8323 63.3019 13.9788 63.1531 14.0706L53.8652 19.7239L63.4905 14.1679C63.6417 14.0859 63.8189 14.0656 63.9848 14.1111C64.1507 14.1567 64.2926 14.2646 64.3807 14.4124C64.4689 14.5601 64.4965 14.7362 64.4579 14.9039C64.4192 15.0716 64.3172 15.2178 64.1731 15.3119L48.0238 25.2239L64.5891 15.6599C64.7408 15.5775 64.9185 15.557 65.0849 15.6029C65.2513 15.6488 65.3934 15.7575 65.4814 15.906C65.5693 16.0546 65.5962 16.2315 65.5563 16.3994C65.5165 16.5674 65.4131 16.7133 65.2678 16.8066L60.1198 19.9266L65.3998 16.8786C65.5517 16.7921 65.7315 16.7686 65.9005 16.8134C66.0695 16.8581 66.2141 16.9674 66.3033 17.1178C66.3925 17.2681 66.419 17.4475 66.3772 17.6172C66.3354 17.787 66.2286 17.9335 66.0798 18.0253L51.3891 27.0159L66.3118 18.4013C66.4634 18.3175 66.6416 18.296 66.8087 18.3412C66.9758 18.3865 67.1188 18.495 67.2073 18.6439C67.2959 18.7927 67.323 18.9701 67.283 19.1386C67.2431 19.3071 67.1391 19.4534 66.9931 19.5466L53.1638 28.0013L67.1292 19.9386C67.2806 19.8533 67.4594 19.8305 67.6274 19.8751C67.7954 19.9197 67.9394 20.0281 68.0286 20.1773C68.1178 20.3265 68.1452 20.5047 68.1049 20.6738C68.0647 20.8429 67.96 20.9896 67.8131 21.0826L45.9398 34.6279L68.0358 21.8679C68.1109 21.8229 68.1942 21.7932 68.2808 21.7803C68.3674 21.7675 68.4557 21.7719 68.5406 21.7932C68.6256 21.8145 68.7055 21.8523 68.7758 21.9045C68.8461 21.9566 68.9055 22.0222 68.9505 22.0973C68.9955 22.1724 69.0252 22.2556 69.0381 22.3422C69.0509 22.4289 69.0465 22.5172 69.0253 22.6021C69.004 22.687 68.9661 22.7669 68.914 22.8373C68.8618 22.9076 68.7963 22.9669 68.7211 23.0119L45.9278 37.1666L68.8331 23.9426C68.9848 23.8601 69.1625 23.8397 69.3289 23.8856C69.4953 23.9315 69.6374 24.0402 69.7254 24.1887C69.8133 24.3373 69.8402 24.5141 69.8003 24.6821C69.7605 24.85 69.6571 24.996 69.5118 25.0893L64.7091 28.0013L69.2971 25.3533C69.4478 25.2728 69.6236 25.2531 69.7882 25.2985C69.9529 25.3438 70.0939 25.4505 70.1822 25.5968C70.2704 25.743 70.2992 25.9175 70.2625 26.0843C70.2259 26.2511 70.1266 26.3975 69.9852 26.4933L41.7705 44.3226L69.9905 28.0293C70.1418 27.9379 70.3233 27.9103 70.495 27.9527C70.6666 27.9951 70.8144 28.1039 70.9058 28.2553C70.9972 28.4066 71.0248 28.5881 70.9824 28.7597C70.94 28.9314 70.8312 29.0792 70.6798 29.1706L44.7532 45.5079L70.4572 30.6679C70.608 30.5862 70.7846 30.5658 70.9502 30.611C71.1157 30.6561 71.2575 30.7634 71.3459 30.9104C71.4344 31.0575 71.4628 31.233 71.4251 31.4004C71.3875 31.5678 71.2867 31.7143 71.1438 31.8093L48.1451 46.2493L70.7132 33.2199C70.8645 33.1283 71.046 33.1006 71.2178 33.1429C71.3896 33.1852 71.5376 33.2939 71.6292 33.4453C71.7207 33.5966 71.7485 33.7782 71.7062 33.9499C71.6639 34.1217 71.5552 34.2697 71.4038 34.3613L47.6705 49.3906L70.7745 36.0479C70.9253 35.9595 71.1049 35.9339 71.2745 35.9767C71.444 36.0194 71.59 36.127 71.681 36.2764C71.7719 36.4258 71.8005 36.6049 71.7607 36.7751C71.7208 36.9454 71.6156 37.0932 71.4678 37.1866L47.2651 52.6919L70.5785 39.2253C70.7289 39.1458 70.9039 39.1268 71.0679 39.1722C71.2318 39.2176 71.3721 39.324 71.4602 39.4695C71.5483 39.615 71.5774 39.7886 71.5417 39.9549C71.5059 40.1212 71.4079 40.2675 71.2678 40.3639L52.6571 52.1759L70.1438 42.0813C70.2943 41.9997 70.4705 41.9792 70.6357 42.0239C70.801 42.0687 70.9427 42.1753 71.0315 42.3217C71.1203 42.468 71.1493 42.643 71.1127 42.8102C71.076 42.9774 70.9764 43.1241 70.8345 43.2199L55.6878 52.8199L69.4785 44.8586C69.6294 44.7723 69.8081 44.7484 69.9764 44.792C70.1447 44.8356 70.2894 44.9433 70.3795 45.092C70.4695 45.2407 70.498 45.4187 70.4587 45.5881C70.4194 45.7574 70.3155 45.9047 70.1692 45.9986L59.0025 53.0653L68.6198 47.5133C68.7702 47.4305 68.9468 47.409 69.1126 47.4532C69.2785 47.4974 69.421 47.6038 69.5103 47.7504C69.5997 47.897 69.629 48.0724 69.5923 48.2401C69.5556 48.4077 69.4556 48.5548 69.3131 48.6506L58.0118 55.9119L67.3291 50.5346C67.4784 50.4539 67.6528 50.4331 67.8169 50.4766C67.9809 50.52 68.1222 50.6244 68.212 50.7684C68.3018 50.9124 68.3332 51.0852 68.3 51.2516C68.2668 51.418 68.1713 51.5655 68.0331 51.6639L55.4305 60.1199L64.9998 54.5959C65.1482 54.5126 65.3229 54.4891 65.488 54.5304C65.6531 54.5717 65.7962 54.6745 65.8879 54.8179C65.9797 54.9613 66.0131 55.1343 65.9813 55.3015C65.9496 55.4688 65.855 55.6175 65.7171 55.7173L57.2571 61.6866L61.0305 59.5053C61.1064 59.457 61.1912 59.4246 61.2799 59.41C61.3687 59.3955 61.4594 59.399 61.5467 59.4204C61.6341 59.4417 61.7162 59.4806 61.7881 59.5345C61.86 59.5885 61.9203 59.6564 61.9653 59.7342C62.0103 59.8121 62.0391 59.8982 62.0499 59.9875C62.0608 60.0767 62.0535 60.1673 62.0284 60.2536C62.0033 60.34 61.9611 60.4204 61.9042 60.49C61.8472 60.5596 61.7768 60.6169 61.6972 60.6586L45.2145 70.1773C45.0661 70.2606 44.8914 70.2841 44.7263 70.2428C44.5612 70.2015 44.4181 70.0987 44.3264 69.9553C44.2346 69.8119 44.2012 69.6389 44.233 69.4717C44.2647 69.3044 44.3593 69.1557 44.4971 69.0559L52.9598 63.0853L39.0305 71.1279C38.9285 71.1873 38.8125 71.2181 38.6945 71.2173Z" fill="white"/>
<path d="M37.6203 65.9268C37.4776 65.9269 37.3385 65.8813 37.2237 65.7966C37.1088 65.7118 37.0242 65.5924 36.9822 65.456C36.9403 65.3196 36.9432 65.1733 36.9907 65.0386C37.0381 64.904 37.1275 64.7881 37.2456 64.7081L47.7563 57.5748L33.683 65.6988C33.5332 65.7855 33.3556 65.8107 33.1877 65.7689C33.0198 65.7271 32.8746 65.6216 32.7831 65.4748C32.6915 65.328 32.6605 65.1513 32.6969 64.9821C32.7332 64.8129 32.8339 64.6644 32.9776 64.5681L47.431 54.9028L29.883 65.0361C29.7321 65.1178 29.5555 65.1382 29.39 65.0931C29.2244 65.0479 29.0827 64.9406 28.9942 64.7936C28.9057 64.6465 28.8774 64.4711 28.915 64.3036C28.9527 64.1362 29.0534 63.9898 29.1963 63.8948L31.5803 62.4001L27.9536 64.4934C27.803 64.5739 27.6272 64.5935 27.4626 64.5482C27.2979 64.5029 27.1569 64.3962 27.0686 64.2499C26.9804 64.1037 26.9516 63.9292 26.9883 63.7624C27.0249 63.5956 27.1242 63.4492 27.2656 63.3534L35.1643 58.3908L25.8843 63.7481C25.7326 63.839 25.551 63.8659 25.3795 63.8229C25.2079 63.7798 25.0605 63.6705 24.9696 63.5188C24.8788 63.3671 24.8519 63.1855 24.8949 63.0139C24.9379 62.8424 25.0473 62.695 25.199 62.6041L30.195 59.5014L24.1563 62.9868C24.0049 63.0721 23.8261 63.0949 23.6581 63.0503C23.4901 63.0057 23.3461 62.8972 23.2569 62.748C23.1677 62.5988 23.1403 62.4207 23.1805 62.2516C23.2208 62.0825 23.3255 61.9358 23.4723 61.8428L27.1803 59.5534L22.6123 62.1908C22.4614 62.277 22.2827 62.3009 22.1144 62.2573C21.9461 62.2137 21.8014 62.1061 21.7113 61.9574C21.6212 61.8087 21.5928 61.6307 21.6321 61.4613C21.6714 61.2919 21.7753 61.1446 21.9216 61.0508L38.4176 50.5841L20.5336 60.9094C20.3823 60.9967 20.2027 61.0211 20.0335 60.9773C19.8644 60.9335 19.7192 60.825 19.6292 60.6753C19.5392 60.5255 19.5116 60.3464 19.5523 60.1765C19.5931 60.0066 19.6989 59.8594 19.847 59.7668L34.7803 50.3894L18.7643 59.6321C18.6134 59.7205 18.4339 59.7461 18.2643 59.7034C18.0947 59.6606 17.9488 59.553 17.8578 59.4036C17.7669 59.2543 17.7383 59.0752 17.7781 58.9049C17.818 58.7346 17.9232 58.5869 18.071 58.4934L40.971 43.7854L16.671 57.8148C16.5201 57.8965 16.3435 57.9169 16.178 57.8717C16.0124 57.8266 15.8707 57.7193 15.7822 57.5723C15.6937 57.4252 15.6654 57.2497 15.703 57.0823C15.7407 56.9149 15.8414 56.7684 15.9843 56.6734L30.7083 47.4934L15.2763 56.4001C15.1248 56.4913 14.9432 56.5186 14.7716 56.476C14.5999 56.4334 14.4522 56.3243 14.361 56.1728C14.2697 56.0212 14.2424 55.8397 14.2851 55.668C14.3277 55.4963 14.4368 55.3487 14.5883 55.2574L31.735 44.5334L13.9123 54.8174C13.7613 54.9021 13.5832 54.9246 13.4158 54.8803C13.2484 54.836 13.1049 54.7283 13.0155 54.58C12.9261 54.4317 12.8979 54.2545 12.9369 54.0858C12.9759 53.9171 13.0789 53.7701 13.2243 53.6761L30.867 42.6334L12.6763 53.1361C12.5246 53.227 12.343 53.2539 12.1715 53.2109C11.9999 53.1678 11.8525 53.0585 11.7616 52.9068C11.6708 52.7551 11.6439 52.5735 11.6869 52.4019C11.7299 52.2304 11.8393 52.083 11.991 51.9921L27.1083 42.5921L11.6416 51.5254C11.4906 51.6101 11.3125 51.6326 11.1452 51.5883C10.9778 51.544 10.8342 51.4363 10.7448 51.288C10.6554 51.1397 10.6272 50.9625 10.6662 50.7938C10.7052 50.6251 10.8083 50.4781 10.9536 50.3841L30.9536 37.7961L10.5683 49.5601C10.4169 49.6474 10.2374 49.6717 10.0682 49.6279C9.89906 49.5842 9.75386 49.4757 9.66386 49.3259C9.57387 49.1762 9.54626 48.9971 9.58699 48.8272C9.62772 48.6572 9.73352 48.5101 9.88164 48.4174L25.135 38.9254L9.76831 47.7974C9.6166 47.8883 9.43501 47.9152 9.26348 47.8722C9.09194 47.8292 8.94452 47.7198 8.85364 47.5681C8.76276 47.4164 8.73586 47.2348 8.77887 47.0633C8.82188 46.8917 8.93127 46.7443 9.08297 46.6534L23.1976 37.8841L9.10297 46.0174C8.95162 46.1088 8.77016 46.1364 8.5985 46.094C8.42684 46.0516 8.27905 45.9428 8.18764 45.7914C8.09623 45.6401 8.06868 45.4586 8.11107 45.2869C8.15345 45.1153 8.26229 44.9675 8.41364 44.8761L27.459 32.8761L8.45897 43.8494C8.30709 43.9401 8.1254 43.9668 7.95387 43.9235C7.78233 43.8803 7.63501 43.7706 7.54431 43.6188C7.4536 43.4669 7.42695 43.2852 7.47021 43.1136C7.51346 42.9421 7.62309 42.7948 7.77497 42.7041L16.4976 37.3254L8.08297 42.1814C7.93109 42.268 7.75129 42.2914 7.5823 42.2467C7.41331 42.2019 7.26865 42.0926 7.17949 41.9422C7.09032 41.7919 7.06378 41.6125 7.10558 41.4428C7.14738 41.273 7.25418 41.1265 7.40297 41.0347L10.1403 39.3601L7.83631 40.6934C7.68443 40.7841 7.50273 40.8108 7.3312 40.7675C7.15967 40.7243 7.01234 40.6146 6.92164 40.4627C6.83094 40.3109 6.80428 40.1292 6.84754 39.9576C6.8908 39.7861 7.00043 39.6388 7.15231 39.5481L13.319 35.7481L7.64964 39.0174C7.49809 39.1012 7.3199 39.1227 7.15276 39.0775C6.98562 39.0322 6.84265 38.9236 6.75412 38.7748C6.66559 38.626 6.63844 38.4486 6.67841 38.2801C6.71839 38.1116 6.82236 37.9653 6.96831 37.8721L10.475 35.7147L7.56431 37.3974C7.41384 37.4849 7.23511 37.5101 7.06632 37.4676C6.89753 37.4251 6.75207 37.3182 6.66101 37.1699C6.56995 37.0215 6.54052 36.8435 6.579 36.6737C6.61749 36.504 6.72084 36.356 6.86697 36.2614L27.607 22.7788L7.63364 34.3094C7.48249 34.3927 7.30494 34.4141 7.13834 34.3691C6.97174 34.3242 6.82905 34.2163 6.7403 34.0684C6.65154 33.9204 6.62362 33.7437 6.66242 33.5756C6.70121 33.4074 6.80369 33.2609 6.94831 33.1668L11.6976 30.2201L7.83097 32.4494C7.68067 32.5334 7.5037 32.556 7.33712 32.5124C7.17055 32.4688 7.02729 32.3625 6.93734 32.2157C6.84739 32.0689 6.81773 31.893 6.85457 31.7248C6.89141 31.5566 6.99189 31.4092 7.13497 31.3134L23.2976 20.7881L8.43364 29.3667C8.28347 29.4483 8.10774 29.469 7.94272 29.4247C7.7777 29.3804 7.636 29.2744 7.54686 29.1286C7.45772 28.9829 7.42795 28.8084 7.4637 28.6413C7.49945 28.4743 7.59799 28.3273 7.73897 28.2308L19.1643 20.8361L9.30831 26.5254C9.1587 26.6093 8.98253 26.6323 8.81642 26.5896C8.65031 26.5469 8.50703 26.4419 8.41638 26.2963C8.32573 26.1507 8.29468 25.9757 8.32968 25.8078C8.36468 25.64 8.46303 25.492 8.60431 25.3947L20.871 17.1601L10.9376 22.8934C10.7883 22.9762 10.6128 22.9984 10.4475 22.9556C10.2822 22.9128 10.1396 22.8082 10.0492 22.6634C9.95872 22.5186 9.92729 22.3445 9.96137 22.1772C9.99544 22.0099 10.0924 21.862 10.2323 21.7641L17.347 16.9641L13.0896 19.4188C12.9434 19.5022 12.7709 19.5273 12.6069 19.4888C12.443 19.4503 12.2996 19.3512 12.2057 19.2114C12.1118 19.0716 12.0743 18.9014 12.1008 18.7351C12.1272 18.5687 12.2157 18.4186 12.3483 18.3148L18.203 13.7814C18.0574 13.7785 17.9167 13.7281 17.8025 13.6377C17.6882 13.5473 17.6068 13.422 17.5705 13.281C17.5342 13.1399 17.5451 12.9908 17.6015 12.8566C17.658 12.7223 17.7568 12.6102 17.883 12.5374L25.4643 8.16275C25.6106 8.07927 25.783 8.05424 25.947 8.09271C26.111 8.13118 26.2543 8.23028 26.3482 8.37011C26.4421 8.50993 26.4796 8.68011 26.4532 8.84645C26.4267 9.01279 26.3383 9.16294 26.2056 9.26675L20.9176 13.3654L33.1643 6.29875C33.3134 6.21885 33.4872 6.19857 33.6506 6.24204C33.8141 6.28551 33.9549 6.38947 34.0446 6.53286C34.1342 6.67625 34.166 6.84836 34.1336 7.01433C34.1011 7.1803 34.0067 7.32773 33.8696 7.42675L26.7523 12.2267L37.259 6.16008C37.4087 6.0733 37.5863 6.04815 37.7543 6.08994C37.9222 6.13173 38.0673 6.23719 38.1589 6.38403C38.2505 6.53086 38.2814 6.70756 38.2451 6.87677C38.2088 7.04598 38.1081 7.19443 37.9643 7.29075L25.6976 15.5201L41.2043 6.57075C41.3546 6.48677 41.5316 6.4642 41.6982 6.50776C41.8647 6.55132 42.008 6.65764 42.0979 6.80445C42.1879 6.95127 42.2176 7.12719 42.1807 7.29538C42.1439 7.46357 42.0434 7.61098 41.9003 7.70675L30.467 15.1068L44.111 7.23075C44.2609 7.15028 44.4359 7.13018 44.6002 7.17458C44.7645 7.21899 44.9056 7.32452 44.9945 7.46957C45.0835 7.61463 45.1136 7.78821 45.0788 7.95477C45.0439 8.12132 44.9467 8.26824 44.807 8.36542L28.639 18.8988L47.0923 8.24542C47.2435 8.16217 47.421 8.14077 47.5876 8.18573C47.7542 8.23068 47.8969 8.33849 47.9857 8.48647C48.0744 8.63446 48.1023 8.8111 48.0635 8.97924C48.0247 9.14739 47.9223 9.29394 47.7776 9.38808L43.051 12.3214L48.8083 8.99875C48.9588 8.91125 49.1375 8.88607 49.3063 8.92858C49.4751 8.9711 49.6205 9.07795 49.7116 9.22629C49.8027 9.37463 49.8321 9.55271 49.7936 9.72246C49.7551 9.89222 49.6518 10.0402 49.5056 10.1348L28.7643 23.6161L51.5176 10.4801C51.6692 10.3963 51.8474 10.3748 52.0145 10.42C52.1817 10.4653 52.3246 10.5739 52.4132 10.7227C52.5017 10.8715 52.5288 11.0489 52.4889 11.2174C52.4489 11.3859 52.3449 11.5322 52.199 11.6254L48.699 13.7774L52.8723 11.3681C53.0242 11.2774 53.2059 11.2507 53.3774 11.294C53.5489 11.3372 53.6963 11.4469 53.787 11.5988C53.8777 11.7506 53.9043 11.9323 53.8611 12.1039C53.8178 12.2754 53.7082 12.4227 53.5563 12.5134L47.3963 16.3081L54.231 12.3667C54.383 12.2764 54.5648 12.2502 54.7362 12.2938C54.821 12.3154 54.9008 12.3535 54.971 12.4059C55.0411 12.4584 55.1002 12.5241 55.145 12.5994C55.1897 12.6747 55.2192 12.7581 55.2317 12.8448C55.2442 12.9314 55.2395 13.0197 55.2179 13.1046C55.1963 13.1895 55.1582 13.2693 55.1058 13.3394C55.0533 13.4096 54.9876 13.4687 54.9123 13.5134L52.1496 15.2001L55.3883 13.3334C55.5398 13.2481 55.7185 13.2253 55.8866 13.2699C56.0546 13.3145 56.1985 13.4229 56.2877 13.5721C56.3769 13.7213 56.4043 13.8995 56.3641 14.0686C56.3239 14.2377 56.2192 14.3844 56.0723 14.4774L47.3416 19.8667L56.6456 14.4948C56.797 14.4033 56.9785 14.3758 57.1501 14.4182C57.3218 14.4606 57.4696 14.5694 57.561 14.7207C57.6524 14.8721 57.6799 15.0536 57.6376 15.2252C57.5952 15.3969 57.4863 15.5447 57.335 15.6361L38.2883 27.6361L58.2016 16.1334C58.3528 16.0502 58.5303 16.0288 58.6969 16.0737C58.8635 16.1187 59.0062 16.2265 59.095 16.3745C59.1837 16.5225 59.2117 16.6991 59.1729 16.8672C59.1341 17.0354 59.0316 17.1819 58.887 17.2761L44.7643 26.0521L59.403 17.6001C59.5547 17.5092 59.7363 17.4823 59.9078 17.5253C60.0793 17.5683 60.2268 17.6777 60.3176 17.8294C60.4085 17.9811 60.4354 18.1627 60.3924 18.3342C60.3494 18.5058 60.24 18.6532 60.0883 18.7441L44.859 28.2228L60.5283 19.1761C60.6791 19.0932 60.8561 19.0718 61.0223 19.1163C61.1885 19.1609 61.331 19.268 61.42 19.4153C61.5091 19.5625 61.5377 19.7385 61.5 19.9064C61.4623 20.0743 61.3611 20.2211 61.2176 20.3161L41.199 32.9174L61.7083 21.0774C61.8595 20.9942 62.037 20.9728 62.2036 21.0177C62.3702 21.0627 62.5129 21.1705 62.6017 21.3185C62.6904 21.4665 62.7183 21.6431 62.6795 21.8112C62.6407 21.9794 62.5383 22.1259 62.3936 22.2201L47.2883 31.6134L62.5883 22.7801C62.7394 22.6954 62.9174 22.6729 63.0848 22.7172C63.2522 22.7615 63.3958 22.8692 63.4851 23.0175C63.5745 23.1658 63.6027 23.343 63.5637 23.5117C63.5248 23.6804 63.4217 23.8274 63.2763 23.9214L45.6416 34.9587L63.419 24.6921C63.5705 24.6008 63.7521 24.5735 63.9237 24.6162C64.0954 24.6588 64.2431 24.7679 64.3343 24.9194C64.4255 25.0709 64.4529 25.2525 64.4102 25.4242C64.3676 25.5958 64.2585 25.7435 64.107 25.8348L46.947 36.5761L64.1163 26.6668C64.2672 26.585 64.4438 26.5646 64.6093 26.6098C64.7749 26.6549 64.9166 26.7622 65.0051 26.9093C65.0936 27.0563 65.1219 27.2318 65.0843 27.3992C65.0466 27.5666 64.9459 27.7131 64.803 27.8081L50.0976 36.9801L64.6563 28.5801C64.8069 28.4944 64.9849 28.4707 65.1527 28.5139C65.3204 28.5572 65.4647 28.6641 65.555 28.812C65.6454 28.9598 65.6746 29.137 65.6365 29.306C65.5984 29.475 65.496 29.6226 65.351 29.7174L42.4483 44.4214L65.1643 31.3094C65.3158 31.2182 65.4974 31.1909 65.6691 31.2335C65.7541 31.2546 65.8341 31.2923 65.9045 31.3443C65.975 31.3963 66.0345 31.4617 66.0796 31.5368C66.1248 31.6118 66.1548 31.695 66.1678 31.7816C66.1808 31.8682 66.1767 31.9565 66.1556 32.0415C66.1344 32.1265 66.0968 32.2065 66.0448 32.277C65.9927 32.3474 65.9273 32.4069 65.8523 32.4521L50.919 41.8321L65.3963 33.4734C65.5473 33.3871 65.726 33.3633 65.8943 33.4069C66.0626 33.4505 66.2072 33.5581 66.2973 33.7068C66.3874 33.8555 66.4158 34.0335 66.3765 34.2029C66.3372 34.3722 66.2333 34.5196 66.087 34.6134L49.583 45.0801L65.4496 35.9214C65.6015 35.8307 65.7832 35.8041 65.9548 35.8473C66.1263 35.8906 66.2736 36.0002 66.3643 36.1521C66.455 36.304 66.4817 36.4857 66.4384 36.6572C66.3952 36.8287 66.2855 36.976 66.1336 37.0667L62.4123 39.3641L65.3683 37.6574C65.52 37.5665 65.7016 37.5396 65.8731 37.5826C66.0447 37.6257 66.1921 37.735 66.283 37.8868C66.3739 38.0385 66.4008 38.22 66.3577 38.3916C66.3147 38.5631 66.2053 38.7105 66.0536 38.8014L61.043 41.9134L65.1643 39.5308C65.3154 39.4461 65.4934 39.4236 65.6608 39.4679C65.8282 39.5122 65.9718 39.6199 66.0611 39.7682C66.1505 39.9165 66.1787 40.0937 66.1397 40.2624C66.1008 40.4311 65.9977 40.578 65.8523 40.6721L57.9736 45.6254L64.7736 41.6987C64.925 41.6115 65.1046 41.5871 65.2737 41.6309C65.4429 41.6747 65.5881 41.7831 65.6781 41.9329C65.7681 42.0827 65.7957 42.2618 65.755 42.4317C65.7142 42.6016 65.6084 42.7487 65.4603 42.8414L63.071 44.3321L64.2803 43.6348C64.4299 43.5509 64.6061 43.5279 64.7722 43.5706C64.9383 43.6133 65.0816 43.7183 65.1722 43.8639C65.2629 44.0095 65.2939 44.1844 65.2589 44.3523C65.2239 44.5202 65.1256 44.6682 64.9843 44.7654L50.535 54.4308L62.9576 47.2588C63.1073 47.1701 63.2856 47.1434 63.4546 47.1844C63.6236 47.2254 63.7699 47.3308 63.8623 47.4782C63.9547 47.6255 63.9858 47.8032 63.9491 47.9731C63.9123 48.1431 63.8106 48.292 63.6656 48.3881L53.1536 55.5228L60.9656 51.0134C61.1155 50.9319 61.2908 50.9109 61.4557 50.9547C61.6205 50.9986 61.7623 51.104 61.8518 51.2492C61.9413 51.3944 61.9717 51.5683 61.9369 51.7353C61.902 51.9023 61.8045 52.0495 61.6643 52.1468L59.3856 53.6414C59.5255 53.6453 59.6607 53.693 59.7719 53.778C59.8831 53.8629 59.9648 53.9807 60.0053 54.1146C60.0459 54.2485 60.0433 54.3918 59.9979 54.5242C59.9525 54.6566 59.8666 54.7713 59.7523 54.8521L55.6283 57.7988C55.7555 57.8552 55.8611 57.951 55.9296 58.0721C56.0177 58.2249 56.0417 58.4064 55.9962 58.5769C55.9507 58.7473 55.8395 58.8928 55.687 58.9814L46.719 64.1588C46.5706 64.2458 46.3943 64.2722 46.227 64.2323C46.0597 64.1924 45.9142 64.0894 45.8211 63.9448C45.7279 63.8001 45.6943 63.6251 45.7272 63.4563C45.7601 63.2874 45.857 63.1378 45.9976 63.0388L47.7776 61.7681L41.2723 65.5241C41.1221 65.6095 40.9446 65.6332 40.7773 65.5903C40.6099 65.5474 40.4657 65.4412 40.3751 65.2941C40.2846 65.147 40.2546 64.9704 40.2917 64.8017C40.3287 64.6329 40.4298 64.4851 40.5736 64.3894L41.387 63.8561L37.9536 65.8374C37.8524 65.8963 37.7374 65.9271 37.6203 65.9268Z" fill="#23A094"/>
<path d="M25.1785 52.6274C25.0339 52.6276 24.8932 52.5807 24.7776 52.4938C24.662 52.407 24.5778 52.2849 24.5376 52.146C24.4974 52.0071 24.5035 51.8589 24.5549 51.7238C24.6063 51.5886 24.7002 51.4739 24.8225 51.3968L27.8425 49.4888L22.5612 52.5341C22.4109 52.6181 22.2339 52.6407 22.0674 52.5971C21.9008 52.5535 21.7575 52.4472 21.6676 52.3004C21.5776 52.1536 21.548 51.9777 21.5848 51.8095C21.6216 51.6413 21.7221 51.4939 21.8652 51.3981L32.5639 44.4808L19.2159 52.1874C19.0652 52.2717 18.8877 52.2942 18.7208 52.2502C18.5539 52.2062 18.4105 52.0992 18.3209 51.9517C18.2312 51.8042 18.2023 51.6277 18.2402 51.4593C18.278 51.2909 18.3797 51.1437 18.5239 51.0488L26.6225 45.8674L17.7105 51.0141C17.5606 51.098 17.384 51.1207 17.2177 51.0776C17.0514 51.0345 16.9082 50.9288 16.8179 50.7826C16.7276 50.6364 16.6973 50.461 16.7331 50.293C16.769 50.125 16.8684 49.9773 17.0105 49.8808L28.3679 42.3808L16.9012 49.0008C16.8265 49.0465 16.7436 49.077 16.6571 49.0907C16.5706 49.1043 16.4823 49.1008 16.3972 49.0803C16.3121 49.0598 16.2318 49.0227 16.161 48.9712C16.0902 48.9197 16.0302 48.8548 15.9845 48.7801C15.9388 48.7054 15.9083 48.6225 15.8947 48.536C15.881 48.4495 15.8845 48.3612 15.905 48.2761C15.9255 48.191 15.9626 48.1107 16.0141 48.0399C16.0656 47.9691 16.1305 47.9091 16.2052 47.8634L21.3132 44.5634L16.8745 47.1274C16.7257 47.2128 16.5497 47.2376 16.3831 47.1965C16.2165 47.1554 16.0722 47.0517 15.9801 46.9069C15.8881 46.7621 15.8554 46.5874 15.8889 46.4191C15.9223 46.2509 16.0194 46.102 16.1599 46.0034L26.1959 38.9914L16.8745 44.3728C16.7276 44.457 16.5541 44.4821 16.3893 44.443C16.2245 44.4039 16.0808 44.3036 15.9873 44.1624C15.8938 44.0212 15.8575 43.8497 15.8859 43.6828C15.9142 43.5158 16.005 43.3659 16.1399 43.2634L24.8505 36.6941L16.8745 41.2981C16.7263 41.3827 16.5512 41.4072 16.3854 41.3665C16.2196 41.3258 16.0757 41.2231 15.9834 41.0795C15.8911 40.9359 15.8574 40.7624 15.8892 40.5947C15.9211 40.427 16.016 40.2779 16.1545 40.1781L18.9292 38.1968L16.8745 39.3834C16.7273 39.4672 16.5537 39.4917 16.389 39.452C16.2243 39.4124 16.0809 39.3115 15.9879 39.17C15.8949 39.0284 15.8592 38.8568 15.8882 38.6899C15.9172 38.523 16.0086 38.3734 16.1439 38.2714L17.7212 37.1021L16.8745 37.5901C16.7369 37.6684 16.5759 37.6952 16.4203 37.6657C16.2647 37.6361 16.1247 37.5521 16.0254 37.4287C15.9261 37.3054 15.874 37.1507 15.8784 36.9924C15.8827 36.8341 15.9433 36.6825 16.0492 36.5648L18.9105 33.4328L16.8745 34.6074C16.7635 34.6714 16.6364 34.702 16.5085 34.6957C16.3805 34.6893 16.2571 34.6462 16.153 34.5715C16.0489 34.4968 15.9685 34.3937 15.9215 34.2745C15.8745 34.1553 15.8628 34.0251 15.8879 33.8994L16.3252 31.7221C16.1727 31.6706 16.0446 31.5648 15.9652 31.4248C15.8771 31.2719 15.8532 31.0904 15.8987 30.92C15.9442 30.7495 16.0553 30.6041 16.2079 30.5154L16.8745 30.1301C16.9855 30.0661 17.1126 30.0355 17.2406 30.0419C17.3686 30.0483 17.492 30.0914 17.5961 30.1661C17.7002 30.2408 17.7805 30.3439 17.8276 30.4631C17.8746 30.5822 17.8863 30.7125 17.8612 30.8381L17.4839 32.7154L21.9732 30.1248C22.1109 30.0456 22.2723 30.0181 22.4284 30.0473C22.5845 30.0765 22.7251 30.1605 22.8247 30.2841C22.9244 30.4078 22.9767 30.563 22.9721 30.7217C22.9676 30.8805 22.9065 31.0324 22.7999 31.1501L19.9412 34.2808L27.1492 30.1194C27.2965 30.0357 27.4701 30.0112 27.6347 30.0508C27.7994 30.0905 27.9428 30.1913 28.0358 30.3329C28.1289 30.4745 28.1645 30.6461 28.1355 30.813C28.1066 30.9799 28.0152 31.1295 27.8799 31.2314L26.3012 32.4008L30.2599 30.1154C30.4082 30.0309 30.5832 30.0064 30.749 30.047C30.9148 30.0877 31.0587 30.1904 31.151 30.334C31.2433 30.4776 31.277 30.6511 31.2452 30.8188C31.2133 30.9866 31.1184 31.1357 30.9799 31.2354L28.2025 33.2168L33.5839 30.1114C33.7308 30.029 33.9034 30.0052 34.0671 30.0449C34.2308 30.0845 34.3734 30.1847 34.4663 30.3252C34.5592 30.4657 34.5954 30.6361 34.5678 30.8023C34.5401 30.9684 34.4506 31.1179 34.3172 31.2208L25.6105 37.7901L38.9172 30.1061C39.0661 30.0177 39.2436 29.9907 39.4121 30.0308C39.5806 30.071 39.7268 30.1751 39.8199 30.3212C39.9129 30.4672 39.9455 30.6438 39.9106 30.8134C39.8758 30.9831 39.7763 31.1325 39.6332 31.2301L29.5905 38.2461L43.7012 30.1034C43.852 30.0111 44.0333 29.9825 44.2052 30.0239C44.3772 30.0653 44.5256 30.1733 44.6179 30.3241C44.7102 30.4749 44.7388 30.6562 44.6974 30.8281C44.656 31 44.548 31.1485 44.3972 31.2408L39.3012 34.5341L46.9679 30.1061C47.118 30.0191 47.2961 29.994 47.4644 30.0362C47.6327 30.0784 47.7779 30.1845 47.8692 30.332C47.9605 30.4796 47.9907 30.6569 47.9533 30.8263C47.916 30.9957 47.8141 31.1439 47.6692 31.2394L36.2945 38.7501L51.2732 30.1021C51.4241 30.0137 51.6036 29.9881 51.7732 30.0308C51.9428 30.0736 52.0888 30.1812 52.1797 30.3306C52.2706 30.4799 52.2993 30.659 52.2594 30.8293C52.2195 30.9995 52.1143 31.1473 51.9665 31.2408L43.8772 36.4154L54.8199 30.0981C54.9707 30.0058 55.152 29.9772 55.3239 30.0186C55.4958 30.06 55.6442 30.168 55.7365 30.3188C55.8288 30.4696 55.8574 30.6509 55.8161 30.8228C55.7747 30.9947 55.6667 31.1431 55.5159 31.2354L44.8212 38.1461L56.1279 31.6128C56.2785 31.5323 56.4543 31.5126 56.619 31.558C56.7836 31.6033 56.9246 31.71 57.0129 31.8563C57.1011 32.0025 57.1299 32.177 57.0932 32.3438C57.0566 32.5106 56.9573 32.657 56.8159 32.7528L53.8025 34.6674L56.1279 33.3248C56.2768 33.2407 56.4524 33.217 56.6182 33.2587C56.7841 33.3005 56.9276 33.4043 57.019 33.5488C57.1105 33.6934 57.1429 33.8675 57.1095 34.0353C57.0762 34.203 56.9796 34.3515 56.8399 34.4501L44.2519 43.1434L56.1279 36.2888C56.2777 36.2072 56.4531 36.1862 56.6179 36.2301C56.7827 36.2739 56.9245 36.3793 57.014 36.5245C57.1035 36.6697 57.134 36.8437 57.0991 37.0107C57.0642 37.1776 56.9667 37.3249 56.8265 37.4221L53.3332 39.7154L56.1332 38.1021C56.2817 38.0165 56.4575 37.9913 56.624 38.0319C56.7905 38.0725 56.935 38.1756 57.0275 38.3199C57.12 38.4642 57.1534 38.6386 57.1206 38.8068C57.0879 38.9751 56.9917 39.1243 56.8519 39.2234L49.8305 44.1968L56.1332 40.5581C56.2825 40.4742 56.4583 40.4509 56.6243 40.4931C56.7902 40.5353 56.9336 40.6397 57.0247 40.7848C57.1157 40.9298 57.1474 41.1043 57.1133 41.2721C57.0791 41.44 56.9817 41.5882 56.8412 41.6861L55.7132 42.4541L56.1332 42.2128C56.2802 42.1286 56.4536 42.1035 56.6184 42.1425C56.7832 42.1816 56.9269 42.2819 57.0205 42.4231C57.114 42.5643 57.1502 42.7358 57.1219 42.9028C57.0936 43.0697 57.0027 43.2197 56.8679 43.3221L53.4012 45.9301L56.1292 44.3568C56.2689 44.2772 56.4326 44.2508 56.5902 44.2824C56.7479 44.314 56.8888 44.4015 56.987 44.5288C57.0852 44.656 57.1341 44.8145 57.1247 44.975C57.1153 45.1355 57.0483 45.2872 56.9359 45.4021L53.4692 48.9194L56.1359 47.3821C56.2729 47.3028 56.4336 47.2748 56.5893 47.3032C56.7451 47.3316 56.8856 47.4144 56.9859 47.537C57.0861 47.6595 57.1394 47.8137 57.1364 47.9719C57.1333 48.1302 57.0741 48.2822 56.9692 48.4008L55.8185 49.7021C55.9516 49.7282 56.0735 49.7942 56.1681 49.8914C56.2626 49.9885 56.3253 50.1122 56.3478 50.2459C56.3702 50.3796 56.3514 50.517 56.2938 50.6397C56.2361 50.7624 56.1424 50.8647 56.0252 50.9328L53.2865 52.5074C53.1495 52.5867 52.9888 52.6147 52.8331 52.5863C52.6773 52.558 52.5368 52.4751 52.4366 52.3526C52.3363 52.2301 52.283 52.0759 52.286 51.9176C52.2891 51.7594 52.3483 51.6073 52.4532 51.4888L53.2612 50.5741L49.8599 52.5341C49.7202 52.6147 49.556 52.6419 49.3978 52.6106C49.2396 52.5794 49.098 52.4919 48.9994 52.3643C48.9008 52.2367 48.8517 52.0777 48.8614 51.9167C48.871 51.7557 48.9387 51.6037 49.0519 51.4888L52.5185 47.9714L44.6172 52.5341C44.4703 52.6183 44.2968 52.6434 44.132 52.6043C43.9672 52.5653 43.8235 52.465 43.73 52.3238C43.6365 52.1826 43.6002 52.0111 43.6285 51.8441C43.6569 51.6771 43.7477 51.5272 43.8825 51.4248L47.3425 48.8194L40.9012 52.5341C40.7522 52.617 40.577 52.6396 40.4118 52.5973C40.2466 52.555 40.1039 52.451 40.013 52.3067C39.9222 52.1624 39.8901 51.9887 39.9233 51.8214C39.9566 51.6542 40.0527 51.506 40.1919 51.4074L41.3172 50.6394L38.0399 52.5341C37.8917 52.6166 37.7176 52.6396 37.5531 52.5983C37.3886 52.5569 37.246 52.4545 37.1544 52.3117C37.0628 52.169 37.0291 51.9966 37.06 51.8299C37.091 51.6631 37.1844 51.5144 37.3212 51.4141L44.3452 46.4394L33.7865 52.5341C33.6366 52.618 33.46 52.6407 33.2937 52.5976C33.1274 52.5545 32.9842 52.4488 32.8939 52.3026C32.8036 52.1564 32.7733 51.981 32.8091 51.813C32.845 51.645 32.9444 51.4973 33.0865 51.4008L36.5839 49.1061L30.6439 52.5341C30.4953 52.6153 30.3213 52.6368 30.1574 52.5944C29.9934 52.552 29.8518 52.4488 29.7612 52.3058C29.6706 52.1627 29.6378 51.9905 29.6695 51.8242C29.7012 51.6578 29.795 51.5098 29.9319 51.4101L42.5185 42.7154L25.5119 52.5341C25.4109 52.594 25.2959 52.6262 25.1785 52.6274Z" fill="#90A8ED"/>
<path d="M32.7491 35.2944C32.6058 35.2945 32.4663 35.2483 32.3513 35.1629C32.2363 35.0774 32.1519 34.9571 32.1106 34.8199C32.0693 34.6827 32.0733 34.5358 32.122 34.4011C32.1707 34.2663 32.2616 34.1508 32.3811 34.0718L35.1664 32.2384L30.0224 35.2011C29.8736 35.2865 29.6976 35.3112 29.531 35.2702C29.3644 35.2291 29.2201 35.1254 29.128 34.9806C29.036 34.8358 29.0033 34.6611 29.0367 34.4928C29.0702 34.3245 29.1673 34.1756 29.3078 34.0771L37.1744 28.6104L25.7664 35.2011C25.6167 35.2838 25.441 35.3057 25.2755 35.2624C25.1101 35.2192 24.9676 35.1139 24.8775 34.9686C24.7874 34.8232 24.7567 34.6488 24.7916 34.4814C24.8265 34.3139 24.9244 34.1664 25.0651 34.0691L29.1091 31.3878L22.4998 35.2011C22.3507 35.284 22.1756 35.3066 22.0104 35.2643C21.8451 35.222 21.7024 35.118 21.6116 34.9737C21.5207 34.8293 21.4886 34.6557 21.5219 34.4884C21.5551 34.3212 21.6513 34.173 21.7904 34.0744L28.7424 29.3171L19.1798 34.8371C19.0312 34.9214 18.8559 34.9454 18.69 34.9043C18.5242 34.8631 18.3806 34.7598 18.2887 34.6157C18.1968 34.4717 18.1638 34.2979 18.1963 34.1301C18.2289 33.9624 18.3246 33.8136 18.4638 33.7144L26.3691 28.1678L17.4598 33.3144C17.3104 33.3972 17.1349 33.4194 16.9696 33.3766C16.8043 33.3338 16.6618 33.2292 16.5713 33.0844C16.4808 32.9396 16.4494 32.7655 16.4835 32.5982C16.5176 32.4309 16.6145 32.283 16.7544 32.1851L19.3558 30.4371L16.9211 31.8424C16.7752 31.9249 16.6035 31.9493 16.4404 31.9109C16.2772 31.8725 16.1345 31.7741 16.0407 31.6352C15.9469 31.4963 15.9088 31.3272 15.9341 31.1615C15.9594 30.9958 16.0461 30.8457 16.1771 30.7411L23.1171 25.2851L16.8731 28.8851C16.7261 28.9693 16.5527 28.9944 16.3879 28.9553C16.2231 28.9163 16.0794 28.8159 15.9858 28.6747C15.8923 28.5336 15.8561 28.3621 15.8844 28.1951C15.9127 28.0281 16.0036 27.8782 16.1384 27.7758L18.3758 26.0918L16.8731 26.9598C16.7313 27.0359 16.5668 27.0581 16.4099 27.0224C16.253 26.9866 16.1143 26.8954 16.0194 26.7654C15.9245 26.6354 15.8799 26.4755 15.8937 26.3152C15.9074 26.1549 15.9787 26.005 16.0944 25.8931L18.4011 23.8251L16.8731 24.7064C16.7368 24.7842 16.5774 24.8114 16.423 24.7832C16.2686 24.755 16.1291 24.6733 16.0291 24.5524C15.929 24.4315 15.8748 24.2791 15.876 24.1222C15.8773 23.9652 15.9338 23.8138 16.0358 23.6944L17.2358 22.3118C17.0977 22.2938 16.9688 22.2331 16.867 22.1382C16.7652 22.0432 16.6957 21.9188 16.6682 21.7824C16.6407 21.6459 16.6566 21.5043 16.7136 21.3773C16.7707 21.2503 16.8661 21.1444 16.9864 21.0744L19.7184 19.4971C19.8549 19.4185 20.0148 19.3908 20.1697 19.4188C20.3247 19.4468 20.4647 19.5288 20.565 19.6502C20.6653 19.7716 20.7194 19.9245 20.7177 20.082C20.716 20.2395 20.6586 20.3912 20.5558 20.5104L19.6344 21.5771L23.2878 19.4678C23.4295 19.3917 23.5941 19.3694 23.751 19.4052C23.9079 19.4409 24.0466 19.5322 24.1414 19.6621C24.2363 19.7921 24.281 19.952 24.2672 20.1123C24.2534 20.2726 24.1821 20.4226 24.0664 20.5344L21.7584 22.6038L27.1971 19.4678C27.344 19.3836 27.5175 19.3585 27.6823 19.3975C27.8471 19.4366 27.9908 19.5369 28.0843 19.6781C28.1778 19.8193 28.2141 19.9908 28.1858 20.1578C28.1574 20.3247 28.0666 20.4747 27.9318 20.5771L25.6998 22.2544L30.5318 19.4678C30.6777 19.3837 30.8501 19.358 31.0143 19.3959C31.1784 19.4337 31.3221 19.5323 31.4166 19.6718C31.511 19.8114 31.5491 19.9814 31.5232 20.1479C31.4973 20.3143 31.4094 20.4648 31.2771 20.5691L24.3358 26.0264L35.6998 19.4678C35.8491 19.385 36.0246 19.3628 36.1899 19.4056C36.3552 19.4484 36.4978 19.553 36.5882 19.6978C36.6787 19.8426 36.7101 20.0167 36.676 20.184C36.642 20.3513 36.545 20.4992 36.4051 20.5971L33.8051 22.3438L38.7851 19.4678C38.9334 19.3863 39.1071 19.3643 39.2711 19.4062C39.435 19.4481 39.5769 19.5507 39.6679 19.6933C39.759 19.8359 39.7924 20.0078 39.7614 20.1742C39.7304 20.3405 39.6374 20.4888 39.5011 20.5891L31.5918 26.1344L43.1491 19.4678C43.2982 19.3825 43.4745 19.3581 43.6412 19.3997C43.8079 19.4413 43.9521 19.5456 44.0438 19.6909C44.1355 19.8362 44.1675 20.0113 44.1332 20.1796C44.0989 20.3479 44.0009 20.4966 43.8598 20.5944L36.9131 25.3491L47.0998 19.4678C47.2496 19.3825 47.4266 19.3587 47.5937 19.4011C47.7608 19.4436 47.9049 19.5492 47.9958 19.6957C48.0867 19.8421 48.1173 20.0181 48.0813 20.1867C48.0452 20.3552 47.9453 20.5033 47.8024 20.5998L43.7504 23.2864L50.3664 19.4678C50.5152 19.3824 50.6913 19.3576 50.8578 19.3987C51.0244 19.4398 51.1688 19.5435 51.2608 19.6883C51.3529 19.8331 51.3856 20.0078 51.3521 20.1761C51.3186 20.3443 51.2216 20.4932 51.0811 20.5918L43.2144 26.0491L53.9051 19.8771C54.055 19.7932 54.2316 19.7705 54.3979 19.8136C54.5642 19.8568 54.7074 19.9624 54.7977 20.1086C54.888 20.2548 54.9184 20.4302 54.8825 20.5982C54.8466 20.7662 54.7472 20.9139 54.6051 21.0104L51.8224 22.8464L55.2011 20.8958C55.348 20.8116 55.5215 20.7865 55.6863 20.8255C55.8511 20.8646 55.9948 20.9649 56.0883 21.1061C56.1818 21.2473 56.2181 21.4188 56.1898 21.5858C56.1614 21.7527 56.0706 21.9027 55.9358 22.0051L47.1918 28.5891L56.1251 23.4344C56.2737 23.3501 56.449 23.3261 56.6148 23.3673C56.7806 23.4085 56.9243 23.5118 57.0161 23.6558C57.108 23.7998 57.1411 23.9737 57.1085 24.1414C57.0759 24.3091 56.9802 24.4579 56.8411 24.5571L54.1078 26.4744L56.1251 25.3091C56.27 25.2252 56.4411 25.1989 56.6045 25.2354C56.7679 25.2719 56.9116 25.3685 57.007 25.5061C57.1024 25.6437 57.1426 25.8121 57.1195 25.9779C57.0964 26.1437 57.0118 26.2948 56.8824 26.4011L52.4478 30.0638L56.1251 27.9411C56.2648 27.8652 56.427 27.8417 56.5825 27.8749C56.738 27.908 56.8765 27.9957 56.9731 28.122C57.0696 28.2483 57.1179 28.405 57.1091 28.5638C57.1003 28.7225 57.035 28.8729 56.9251 28.9878L54.3838 31.5384L56.0891 30.5544C56.165 30.5062 56.2498 30.4738 56.3385 30.4592C56.4273 30.4446 56.518 30.4481 56.6054 30.4695C56.6927 30.4909 56.7748 30.5297 56.8467 30.5837C56.9186 30.6376 56.9789 30.7056 57.0239 30.7834C57.0689 30.8613 57.0977 30.9474 57.1085 31.0367C57.1194 31.1259 57.1121 31.2164 57.087 31.3028C57.062 31.3891 57.0197 31.4695 56.9628 31.5391C56.9058 31.6087 56.8354 31.6661 56.7558 31.7078L50.7011 35.2011C50.5614 35.277 50.3992 35.3005 50.2437 35.2673C50.0882 35.2342 49.9496 35.1465 49.8531 35.0202C49.7565 34.8939 49.7083 34.7372 49.7171 34.5784C49.7259 34.4197 49.7912 34.2693 49.9011 34.1544L52.4411 31.6051L46.2064 35.2011C46.0617 35.2832 45.8916 35.3082 45.7295 35.2712C45.5673 35.2343 45.4248 35.1381 45.3299 35.0015C45.235 34.8648 45.1947 34.6977 45.2167 34.5328C45.2388 34.368 45.3217 34.2173 45.4491 34.1104L49.8851 30.4464L41.6478 35.2011C41.4995 35.2826 41.3257 35.3046 41.1618 35.2627C40.9979 35.2208 40.856 35.1182 40.7649 34.9756C40.6739 34.8329 40.6404 34.661 40.6714 34.4947C40.7024 34.3284 40.7955 34.18 40.9318 34.0798L43.6638 32.1638L38.4011 35.2011C38.2541 35.2853 38.0807 35.3104 37.9159 35.2713C37.7511 35.2323 37.6074 35.1319 37.5138 34.9908C37.4203 34.8496 37.3841 34.6781 37.4124 34.5111C37.4407 34.3441 37.5316 34.1942 37.6664 34.0918L46.4118 27.5064L33.0784 35.2011C32.9786 35.2603 32.8651 35.2925 32.7491 35.2944Z" fill="#90A8ED"/>
<path d="M36.7058 41.9585C36.5748 41.9585 36.4468 41.9199 36.3376 41.8476C36.2284 41.7752 36.143 41.6723 36.0919 41.5517C36.0408 41.4311 36.0264 41.2982 36.0505 41.1694C36.0745 41.0407 36.136 40.9219 36.2271 40.8278L37.9858 39.0132L33.2965 41.7198C33.1557 41.8021 32.9898 41.8299 32.8299 41.7981C32.67 41.7663 32.5274 41.677 32.4289 41.5472C32.3304 41.4173 32.2828 41.2559 32.2953 41.0933C32.3078 40.9308 32.3793 40.7785 32.4965 40.6652L35.2965 37.9532L31.6605 40.0518C31.5207 40.1324 31.3566 40.1596 31.1984 40.1284C31.0401 40.0971 30.8986 40.0096 30.8 39.882C30.7013 39.7544 30.6523 39.5954 30.662 39.4344C30.6716 39.2734 30.7393 39.1214 30.8525 39.0065L32.0991 37.7465L31.5311 38.0745C31.4182 38.1396 31.2886 38.1703 31.1585 38.1625C31.0284 38.1548 30.9033 38.1091 30.7989 38.0311C30.6945 37.953 30.6152 37.8461 30.5709 37.7235C30.5267 37.6008 30.5193 37.4679 30.5498 37.3412L30.9431 35.7065C30.8281 35.6589 30.7287 35.5801 30.6562 35.479C30.5837 35.3779 30.5409 35.2585 30.5327 35.1343C30.5245 35.0101 30.5512 34.8861 30.6099 34.7764C30.6685 34.6666 30.7567 34.5754 30.8645 34.5132L31.5311 34.1265C31.6442 34.0608 31.7741 34.0297 31.9046 34.0373C32.0352 34.0448 32.1606 34.0906 32.2654 34.1689C32.3701 34.2472 32.4495 34.3546 32.4937 34.4777C32.5379 34.6008 32.5448 34.7341 32.5138 34.8612L32.2045 36.1438L35.7271 34.1118C35.8668 34.0323 36.0305 34.0058 36.1882 34.0374C36.3458 34.0691 36.4867 34.1566 36.5849 34.2838C36.6831 34.4111 36.732 34.5696 36.7226 34.73C36.7132 34.8905 36.6462 35.0422 36.5338 35.1572L35.2898 36.4158L39.3031 34.0972C39.444 34.0136 39.6107 33.9849 39.7714 34.0164C39.9321 34.0479 40.0756 34.1375 40.1745 34.268C40.2734 34.3986 40.3208 34.561 40.3077 34.7242C40.2945 34.8875 40.2217 35.0402 40.1031 35.1532L37.3031 37.8652L41.4511 35.4652C41.5903 35.3858 41.7533 35.3592 41.9105 35.3902C42.0676 35.4211 42.2084 35.5077 42.307 35.6339C42.4055 35.7602 42.4554 35.9177 42.4473 36.0777C42.4393 36.2377 42.3739 36.3894 42.2631 36.5052L40.5031 38.3212L41.4511 37.7745C41.6035 37.6948 41.7807 37.677 41.9459 37.725C42.111 37.7729 42.2513 37.8827 42.3373 38.0316C42.4234 38.1805 42.4486 38.3568 42.4077 38.5238C42.3668 38.6908 42.2629 38.8356 42.1178 38.9278L37.0338 41.8612C36.935 41.9222 36.8218 41.9558 36.7058 41.9585Z" fill="#FFC900"/>
<path d="M48.7006 2.71819C18.5979 -9.01781 -11.7368 27.0048 5.98058 54.4102C16.1819 71.7515 41.1966 76.6462 57.1939 64.5915C63.4979 68.8582 68.7152 81.8622 77.4313 78.5115C86.1992 70.6448 69.0846 62.9782 65.1179 56.7195C79.3486 38.8342 70.4632 9.86485 48.7006 2.71819ZM76.3566 70.5635C77.0065 71.082 77.5095 71.7615 77.8154 72.5346C78.1214 73.3077 78.2197 74.1473 78.1006 74.9702C73.8459 84.5702 63.3006 66.1622 58.6619 63.4422C60.6116 61.8848 62.3957 60.1306 63.9859 58.2075L76.3566 70.5635ZM48.1366 67.9982C-7.26075 83.3448 -13.9648 -4.65248 43.2526 2.71819C75.6379 8.72085 79.4219 57.3568 48.1366 67.9982Z" fill="black"/>
<path d="M42.439 6.67965C41.9057 6.57698 40.187 7.42231 41.2283 7.62231C65.7217 11.5476 73.3417 46.1316 52.6243 59.865C32.2723 74.8636 2.73632 53.7676 8.78432 29.6743C10.1283 23.3866 13.5594 17.7383 18.5198 13.6474C23.4802 9.55643 29.6784 7.2634 36.107 7.14098C36.7483 7.14098 38.1843 6.16498 36.8937 6.17564C31.0061 6.18893 25.2432 7.87311 20.275 11.0324C15.3069 14.1916 11.3375 18.6962 8.82832 24.0223C-2.85968 48.089 24.4737 74.6303 48.367 63.3023C75.3537 52.4183 71.1403 11.677 42.439 6.67965Z" fill="black"/>
<path d="M32.8685 12.7637C29.0325 12.6304 28.5231 16.413 28.8685 19.4064C24.3111 19.7344 16.2658 17.633 15.5351 24.113C15.9738 32.7797 14.6018 41.8784 16.1178 50.3384C22.2045 55.4584 43.1845 51.305 52.2511 52.5504C61.9658 51.761 55.8698 32.109 57.4765 25.0664C58.1098 17.4184 49.0325 19.733 44.1431 19.429C45.8578 11.0424 38.4685 12.8597 32.8685 12.7637ZM55.5351 48.017C55.3845 54.969 32.3565 50.0317 26.5138 51.4317C13.5405 53.7517 18.1551 42.6317 17.4711 34.3557C21.2751 36.1557 26.0738 34.9357 30.2045 35.2757C30.0938 37.9104 29.7725 42.0357 33.5698 41.7037C38.3898 42.1637 44.2671 41.6797 42.8098 35.2757C46.9431 34.845 51.8525 36.389 55.5351 34.1384C55.5085 38.7557 55.7045 43.4024 55.5298 48.017H55.5351ZM39.7645 40.9597C35.0231 41.2744 31.0098 41.353 32.1298 35.2757H40.8658C40.6471 37.137 41.5738 39.709 39.7645 40.9597ZM39.7951 40.9597C39.8845 40.9597 39.8565 40.9477 39.7951 40.9597ZM50.7525 20.5597C56.8431 19.8664 55.4765 26.7717 55.5258 30.7597C54.5431 36.6757 46.4245 33.1237 42.2605 34.0477C35.0311 32.3984 14.9445 39.1984 17.4658 27.0304C16.9565 23.7397 17.8218 19.8424 21.8898 20.5677L50.7525 20.5597ZM40.0685 13.893C42.8831 14.1024 42.1165 17.4677 42.2018 19.4224C38.4018 19.4224 34.6018 19.4344 30.8018 19.4077C29.4311 11.7504 34.9098 14.265 40.0685 13.8997V13.893Z" fill="black"/>
</g>
</g>
<defs>
<clipPath id="clip0_3_11958">
<rect width="80" height="80" fill="white" transform="translate(0.5)"/>
</clipPath>
</defs>
</svg>
