<svg width="1023" height="107" viewBox="0 0 1023 107" fill="none" xmlns="http://www.w3.org/2000/svg">
<g clip-path="url(#clip0_3_11978)">
<path d="M90.685 92.0947C92.0288 92.0786 97.4348 92.0464 99.7746 92.0251C97.1225 92.1005 85.8375 92.153 90.685 92.0947ZM330.693 86.2243C328.752 86.2535 326.81 86.2827 324.869 86.312C330.386 86.2752 337.803 86.2045 342.923 86.175C343.761 86.1702 341.589 86.2265 343.57 86.2119C345.552 86.1973 345.17 86.1479 348.052 86.1186C351.286 86.0859 366.092 86.0007 371.22 85.9576C390.397 85.7964 409.739 85.6073 428.955 85.4711C409.117 85.6731 429.108 85.5482 434.665 85.4856C435.896 85.4716 435.698 85.3757 455.602 85.2365C468.251 85.1481 456.57 85.3837 477.676 85.1402C461.445 85.1761 477.406 85.0517 490.129 84.9438C492.323 84.9252 510.037 84.7942 517.862 84.7255C520.539 84.702 524.618 84.6173 528.169 84.5868C530.613 84.5658 532.462 84.5785 536.091 84.5472C553.008 84.4018 569.645 84.2628 586.593 84.1329C576.69 84.3457 594.367 84.1249 595.161 84.1247C599.198 84.1271 580.938 84.2875 588.16 84.2504C598.252 84.1633 608.344 84.0762 618.436 83.9892C610.153 84.0412 629.401 83.7884 632.944 83.8022C631.383 83.699 678.942 83.5249 686.181 83.4266C687.688 83.4061 677.818 83.4299 700.714 83.2678C703.193 83.2503 702.256 83.2931 703.556 83.2791C704.335 83.2707 709.048 83.1207 714.07 83.1409C715.905 83.1482 704.172 83.3178 729.938 83.0765C719.676 83.0476 765.665 82.7214 774.126 82.6802C772.436 82.6788 770.746 82.6775 769.055 82.6762C777.419 82.6485 778.929 82.5975 780.813 82.5841C788.406 82.5301 798.846 82.4831 805.919 82.4214C814.197 82.3492 814.224 82.2785 823.874 82.2266C821.584 82.2299 819.294 82.2332 817.005 82.2364C823.669 82.1854 830.334 82.1343 836.999 82.0832C821.566 82.3034 840.328 82.0603 841.564 82.0481C843.536 82.0285 840.703 82.09 844 82.0581C844.341 82.0545 843.848 82.0226 848.93 81.9768C859.548 81.8812 857.87 81.9402 862.328 81.903C862.737 81.8994 861.307 81.8788 869.007 81.8078C893.479 81.5821 868.885 81.8336 867.946 81.8458C866.713 81.8618 875.105 81.9282 854.317 82.0512C861.297 82.009 861.999 82.0632 862.786 82.0582C863.481 82.0537 875.575 81.9458 876.242 81.9382C882.187 81.869 876.955 81.8711 878.114 81.8542C879.061 81.8405 893.632 81.774 897.046 81.6228C904.018 81.6791 893.036 81.759 881.345 81.8726C879.64 81.9099 892.478 81.827 893.153 81.8214C909.713 81.685 900.544 81.667 904.164 81.5775C906.065 81.5306 912.812 81.5388 906.583 81.5063C921.613 81.3739 912.498 81.4974 913.469 81.4966C914.934 81.4951 920.193 81.4278 920.851 81.4256C921.817 81.4224 918.459 81.479 922.269 81.4579C922.902 81.4542 929.04 81.3538 921.125 81.395C931.7 81.3151 930.828 81.2798 934.415 81.336C941.698 81.1139 939.701 81.3884 942.57 81.3739C950.197 81.3352 947.982 81.226 948.385 81.2165C951.16 81.1539 972.273 81.024 977.501 80.9626C975.44 81.0713 960.764 81.1013 957.483 81.146C946.544 81.2952 972.902 81.0651 964.958 81.2457C968.289 81.1867 971.62 81.1276 974.95 81.0686C981.058 81.0925 972.394 81.196 988.83 81.0338C991.517 80.9477 977.209 81.1394 980.079 81.0654C981.771 81.022 991.301 80.9372 991.489 80.9201C991.676 80.8998 983.063 80.9929 984.421 80.9528C987.384 80.8662 1018.8 80.6671 994.886 80.8978C1000.63 80.8496 1003.98 80.9138 1008.49 80.8776L1006.83 82.2718C1006.96 81.5549 1007.09 80.8077 1007.23 80.0153C1007.48 78.5942 1007.05 80.7971 1006.75 82.2571L1008.49 80.796C1007.32 80.7797 1006.62 80.7586 1008.48 80.7248L1006.68 82.2443C1007.01 80.33 1007.85 75.6785 1009.64 65.9504C1009.82 65.2994 1007.38 78.37 1007.33 78.7098C1007.25 79.1883 1007.81 76.846 1007.89 76.4375C1008.18 74.9933 1013.92 43.2658 1015.21 36.5764C1014.81 38.4625 1017.21 25.4106 1018.81 16.7495L1020.48 18.7813C1016.96 18.7289 1014.16 18.6885 1013.32 18.6832C1012.53 18.6784 1015.46 18.767 1014.62 18.76C1009.39 18.7147 995.241 18.4291 988.675 18.3332C981.328 18.2259 982.258 18.2795 981.848 18.2736C978.615 18.2251 981.198 18.2347 979.222 18.2065C976.236 18.164 955.719 17.8654 954.689 17.8564C954.388 17.8539 957.736 17.9478 953.263 17.8927C952.489 17.8831 952.981 17.8355 939.734 17.6699C923.781 17.4705 950.811 17.8961 944.181 17.8587C933.935 17.6309 934.267 17.7164 931.488 17.6704C930.526 17.6543 923.367 17.4834 915.59 17.3766C921.172 17.4452 926.753 17.5138 932.335 17.5823C926.848 17.4919 916.192 17.3547 911.672 17.2765C909.467 17.2384 911.285 17.2079 906.494 17.141C905.477 17.1271 901.441 17.207 913.991 17.3245C914.994 17.3879 909.023 17.2707 906.252 17.245C905.833 17.2412 904.18 17.2996 900.643 17.1981C899.794 17.1734 909.045 17.0663 885.192 16.8988C884.424 16.8934 887.094 16.9615 886.343 16.957C885.83 16.9539 879.741 16.8548 879.069 16.8495C878.38 16.8442 881.32 16.9189 880.501 16.9136C876.302 16.8868 870.791 16.6784 879.45 16.8119C876.556 16.7546 873.662 16.6972 870.768 16.6398C873.864 16.7818 866.222 16.6024 862.217 16.5483C836.551 16.201 853.737 16.51 849.324 16.4799C842.226 16.4313 847.649 16.3414 837.112 16.2412C836.137 16.232 848.872 16.4849 824.004 16.0897C827.675 16.1394 831.345 16.189 835.016 16.2386C832.901 16.1139 821.762 16.0559 820.906 16.045C811.14 15.9185 817.742 15.9787 803.241 15.8203C801.946 15.8062 799.125 15.7425 796.356 15.7146C784.876 15.5986 811.502 15.96 812.23 16.0087C812.574 16.0324 783.941 15.6187 782.958 15.5958C778.785 15.4967 795.938 15.7638 792.669 15.6681C791.476 15.6336 750.665 15.0865 742.477 14.9505C733.029 14.7934 728.778 14.6045 728.715 14.7477C726.051 14.5682 723.695 14.631 722.486 14.6128C707.875 14.391 707.848 14.3892 695.318 14.2238C692.552 14.1873 690.216 14.111 689.237 14.1043C688.668 14.1005 689.732 14.1616 686.941 14.1359C683.065 14.1 659.774 13.7201 658.043 13.67C656.312 13.6199 667.88 13.7995 665.807 13.7281C657.434 13.6043 649.405 13.5 640.976 13.3752C637.475 13.3233 639.275 13.3198 637.762 13.2976C637.118 13.288 625.029 13.1411 625.541 13.1592C626.74 13.2014 664.071 13.7177 654.24 13.6284C652.344 13.6112 645.644 13.4482 646.708 13.5452C613.358 13.0504 580.007 12.5556 546.656 12.0607C565.819 12.2732 587.383 12.6359 607.454 12.9168C610.205 12.9553 619.504 13.096 618.374 13.0385C601.307 12.7841 580.088 12.5026 563.7 12.2416C563.175 12.2332 565.102 12.2236 563.137 12.1896C559.465 12.1262 547.508 12.0154 545.498 11.9712C545.154 11.9626 551.959 12.0108 549.89 11.9501C544.58 11.7944 543.229 11.9521 538.662 11.8848C535.13 11.8326 511.4 11.4081 505.488 11.3778C499.203 11.3457 522.978 11.661 521.221 11.6831C505.134 11.5007 488.847 11.2175 473.647 11.0063C473.379 11.0027 475.704 11.0728 472.312 11.0295C466.41 10.9542 464.862 10.8797 461.99 10.8303C458.892 10.7772 447.936 10.6282 446.472 10.5882C446.285 10.583 448.505 10.5628 448.842 10.5661C453.614 10.6129 455.309 10.7045 455.743 10.7116C457.374 10.7374 458.978 10.7345 460.466 10.7573C462.916 10.7948 464.265 10.838 467.5 10.8863C469.731 10.9197 467.579 10.8431 469.729 10.8759C470.519 10.8881 479.033 11.1145 479.829 11.0189C480.076 10.9887 410.434 9.95085 403.473 9.8784C409.443 9.97654 415.414 10.0747 421.385 10.1728C409.26 9.96833 394.693 9.84576 393.663 9.70462C348.699 9.05215 303.735 8.39967 258.771 7.74719C250.743 7.62177 255.147 7.60342 241.937 7.43841C245.35 7.51303 248.763 7.58766 252.176 7.66228C245.406 7.54745 215.407 7.08355 210.552 7.03097C209.923 7.02419 209.049 7.08524 201.553 6.98449C194.901 6.89508 193.833 6.82474 190.277 6.7634C187.292 6.71206 183.939 6.6786 183.053 6.66291C182.373 6.65076 182.104 6.61324 180.468 6.584C175.304 6.49208 179.488 6.6467 174.362 6.46457C175.611 6.47825 176.859 6.49193 178.108 6.50561C171.874 6.40083 163.359 6.22976 172.541 6.33649C174.12 6.35483 172.763 6.36805 173.941 6.38481C220.047 7.0372 183.231 6.44807 167.073 6.26792C162.924 6.16038 139.668 5.85774 138.895 5.83719C137.821 5.80806 141.801 5.8263 136.585 5.71849C135.487 5.69576 104.393 5.27874 115.59 5.37447C117.901 5.39423 132.809 5.62103 136.403 5.67048C127.948 5.44738 108.125 5.31093 105.896 5.27534C96.905 5.13098 123.171 5.43333 102.915 5.13216C87.3396 4.9006 101.961 5.17776 95.9705 5.12138C92.6039 5.08967 74.9785 4.76266 75.4556 4.86698C69.4053 4.79099 72.9469 4.78994 72.2001 4.77556C71.47 4.76187 59.5737 4.62116 55.7125 4.54547C55.244 4.53622 56.7193 4.50661 56.2352 4.49555C55.2935 4.47501 43.8208 4.32129 43.3599 4.319C43.0667 4.31779 45.801 4.40121 44.6764 4.39592C43.3661 4.38961 32.3267 4.22152 31.718 4.22551C30.8578 4.2324 44.4866 4.4144 42.2146 4.43157C35.933 4.32937 25.6975 4.2163 21.5504 4.19701C22.5666 4.20011 28.6578 4.28546 30.772 4.31968C29.7757 4.37812 16.6972 4.19035 21.1692 4.1967C18.3271 4.187 20.2668 4.23109 18.6659 4.23738C18.2461 4.23877 14.2078 4.18262 13.4293 4.18408C13.3282 4.18514 17.4942 4.27206 16.66 4.2749C15.149 4.27999 2.90559 4.09914 1.90368 4.07784C-0.915683 4.01775 9.06696 4.13631 9.90003 4.11756C10.0182 4.11454 1.52896 3.93324 1.40041 3.9261C0.904801 3.86211 10.3518 4.03804 9.27232 3.97137C6.93605 3.92719 4.59967 3.88299 2.2635 3.8388C11.2763 3.91562 27.949 4.18041 32.249 4.18279C18.887 4.00953 4.90324 3.80775 4.93417 3.67525C4.94451 3.61942 10.7096 3.66893 10.4868 3.65151C9.63759 3.58845 1.63401 3.52948 1.33986 3.52259C1.09651 3.51601 0.985554 3.51141 0.985596 3.50846C0.986514 3.47865 12.3941 3.62009 12.9651 3.61462C13.9251 3.60415 8.84965 3.43211 8.85768 3.41019C9.03459 3.4083 17.1586 3.50076 14.4181 3.42319C11.6453 3.34477 4.53483 3.24237 4.28581 3.23478C2.9282 3.19217 15.3657 3.34862 15.7369 3.3402C15.9327 3.33607 9.25388 3.19809 9.05985 3.18307C8.89348 3.1684 13.97 3.21409 15.9708 3.20387C17.4625 3.19637 13.1202 3.11226 13.8838 3.11864C14.4295 3.12344 26.1812 3.29176 26.7591 3.29495C27.6196 3.29974 24.8676 3.226 25.2685 3.22311C25.8368 3.21885 29.6315 3.28547 29.1379 3.26568C28.7668 3.25089 14.0567 2.92208 14.1522 2.89173C14.3211 2.84006 29.8993 3.18698 15.4053 2.76654C15.304 2.76369 11.7749 2.72846 11.6767 2.72575C9.49976 2.65538 20.813 2.75654 6.98024 2.56955C32.7128 2.86884 10.1834 2.53398 13.9921 2.4973C15.4629 2.4833 25.4379 2.61132 25.4845 2.60673C24.5157 2.54848 21.3372 2.53754 20.257 2.50033C19.6625 2.47968 28.5881 2.56019 26.5799 2.50102C25.5415 2.47047 16.0677 2.34077 15.6767 2.33212C11.928 2.24968 16.526 2.2842 15.7027 2.25191C15.1557 2.23034 9.439 2.14761 9.29011 2.143C9.04948 2.13441 16.8126 2.18965 18.4299 2.19319C19.6593 2.19571 15.0459 2.10625 15.9036 2.11195C21.072 2.14654 32.065 2.40356 21.4724 2.11211C20.8256 2.09428 16.8181 2.04052 16.7001 2.03712C14.2242 1.96203 21.6027 2.06397 22.9235 2.05031C25.1905 2.02663 14.5846 1.90642 23.405 1.99297C16.7892 1.86183 13.1022 1.81071 5.36004 1.71036C26.7974 1.98801 34.3659 1.951 10.5656 1.61475C18.1364 1.72514 17.2979 1.63127 19.5563 1.66209C20.9608 1.68134 31.937 1.91952 26.9067 1.66499C26.2753 1.63316 19.6068 1.56692 21.6959 1.55004C37.7 1.79052 22.0358 1.52518 22.0195 1.51877C22.2281 1.41414 61.3333 2.06075 68.0529 2.14444C75.8502 2.24156 82.7809 2.25575 84.4756 2.27984C90.052 2.35944 85.4239 2.3364 86.6704 2.37003C87.9343 2.40376 103.792 2.54775 104.584 2.5636C107.655 2.62565 104.537 2.63213 104.856 2.63927C108.659 2.72484 129.956 2.98904 135.918 3.08604C135.734 3.05032 123.763 2.87674 131.238 2.93033C139.942 2.99265 140.437 3.14563 140.665 3.1553C180.539 3.72337 220.414 4.29144 260.288 4.8595C259.792 4.7748 233.722 4.46103 233.129 4.44234C229.648 4.33212 273.686 4.96215 279.088 5.0667C274.984 4.99133 270.88 4.91596 266.777 4.84059C273.786 4.85144 289.293 5.18884 299.429 5.2942C302.704 5.3282 296.416 5.20396 296.547 5.20348C300.227 5.22138 306.132 5.33241 301.716 5.31588C310.701 5.3996 309.388 5.43005 316.281 5.53219C316.637 5.53742 313.677 5.45914 319.132 5.52212C321.688 5.55165 335.319 5.74621 337.145 5.74078C337.896 5.73824 330.983 5.49986 330.128 5.60785C315.302 5.33753 325.39 5.59496 319.63 5.50993C318.746 5.49669 320.78 5.45863 306.274 5.28306C309.039 5.20156 325.74 5.53054 328.604 5.55678C334.508 5.61098 310.177 5.20103 305.712 5.23156C307.799 5.16696 303.986 5.19419 298.562 5.11285C292.625 5.02386 295.213 5.0327 292 4.98667C283.214 4.86049 286.856 4.97914 279.614 4.81564C286.672 5.10243 267.214 4.66309 261.544 4.5334C270.771 4.65573 279.998 4.77807 289.225 4.9004C288.698 4.8831 288.171 4.86581 287.643 4.8485C290.074 4.8846 292.504 4.92069 294.934 4.95678C294.545 4.96058 294.155 4.96438 293.766 4.96817C306.298 5.0863 309.355 5.19836 310.377 5.21371C323.532 5.40951 338.727 5.62592 352.027 5.81609C354.023 5.84462 352.654 5.7642 367.198 6.01955C371.837 6.10098 367.456 6.08578 372.715 6.15378C379.295 6.11906 379.169 6.2199 381.125 6.248C386.737 6.32813 390.168 6.34525 390.686 6.35232C397.62 6.44637 407.776 6.59673 415.393 6.70077C415.536 6.70232 411.573 6.60619 416.52 6.68854C418.258 6.71754 433.84 7.10883 447.464 7.24839C443.921 7.18639 440.378 7.1244 436.835 7.0624C441.001 7.13783 470.197 7.51224 463.058 7.36512C458.683 7.27502 447.998 7.23122 446.828 7.10989C456.543 7.27994 510.201 7.99941 514.378 8.08337C514.955 8.09509 511.4 8.07825 512.198 8.09399C512.816 8.10613 525.107 8.27361 526.738 8.30995C527.709 8.33157 522.278 8.2748 522.72 8.29333C523.106 8.30757 538.455 8.54131 539.332 8.51129C535.562 8.47453 524.968 8.30833 530.525 8.35182C531.24 8.35757 534.943 8.4379 535.811 8.44465C543.867 8.50758 519.793 8.17628 516.068 8.12264C531.191 8.28442 554.579 8.68233 572.101 8.89723C579.181 9.03375 561.604 8.80149 569.614 8.94523C586.232 9.24335 574.037 8.95942 574.553 8.96228C578.681 8.98551 592.738 9.37772 592.747 9.23213C598.772 9.3401 596.822 9.33062 605.324 9.43298C604.206 9.40692 603.087 9.38085 601.969 9.35479C611.41 9.4052 631.386 9.90345 629.888 9.89831C625.861 9.88428 615.458 9.66788 614.569 9.65682C613.253 9.64044 609.616 9.73637 595.223 9.39861C589.327 9.41359 618.037 9.79135 604.973 9.67239C613.795 9.78728 650.088 10.3746 655.314 10.4057C655.937 10.4089 653.035 10.2687 662.001 10.447C666.257 10.5317 655.993 10.3863 657.94 10.4366C663.933 10.5913 745.449 11.7113 760.934 11.9288C761.939 11.943 761.57 11.9684 762.557 11.9822C765.591 12.0247 776.648 12.1369 782.078 12.2285C770.829 12.0111 792.677 12.3187 798.235 12.4043C806.67 12.5343 806.148 12.5808 809.792 12.6443C823.837 12.8892 845.602 13.0718 856.512 13.3474C855.917 13.22 875.384 13.6753 884.242 13.8028C891.18 13.9027 901.247 13.9678 891.883 13.7862C903.859 13.9627 916.466 14.1205 927.7 14.2738C929.557 14.2991 927 14.2977 930.169 14.3398C930.456 14.3433 930.854 14.3146 933.574 14.3498C956.035 14.6406 945.105 14.5577 949.307 14.6392C951.659 14.6848 953.394 14.7156 954.667 14.7358C941.576 14.5556 926.476 14.3534 922.438 14.2968C925.881 14.422 951.454 14.6965 958.942 14.8239C959.202 14.8284 958.297 14.8574 958.561 14.8615C958.566 14.8615 958.572 14.8616 958.577 14.8617C961.384 14.905 979.258 15.1448 975.579 15.0423C974.592 15.0148 966.364 14.8973 956.606 14.7625C959.247 14.7908 957.276 14.7157 957.742 14.7204C963.394 14.7779 977.239 15.0214 982.15 15.0978C983.273 15.1151 983.193 15.0839 983.377 15.0865C987.844 15.1571 986.01 15.2168 990.593 15.1937C998.681 15.4163 975.433 14.9931 977.07 15.086C977.986 15.1381 1005.63 15.5282 1020.52 15.7029L1022.13 15.7287L1021.83 17.3041C1020.85 22.7718 1020.18 26.4951 1020.22 26.458C1020.17 26.6317 1020.04 27.3282 1019.76 28.7587C1019.15 31.9308 1016.57 46.072 1016.14 48.5149C1016.07 48.9272 1016.18 48.7775 1016.08 49.2883C1015.85 50.5659 1012.62 67.8363 1011.49 74.2998C1012.14 70.8161 1012.79 67.3325 1013.44 63.8488C1009.58 84.899 1010.2 81.6499 1011.51 74.6409C1011.58 74.2902 1011.64 73.9495 1011.7 73.6146C1012.72 68.1818 1014.01 61.2158 1014.04 61.1111C1014.09 60.8703 1011.68 74.0981 1010.07 82.8651L1009.83 84.1622L1008.51 84.1706C1002.83 84.2103 998.989 84.2259 1001.71 84.1739C1002.13 84.166 1005.49 84.1421 1008.51 84.1186L1009.78 84.1105L1010.02 82.8557C1010.74 78.9354 1011.34 75.5969 1010.46 80.2444C1010.39 80.6127 1010.21 81.5908 1009.98 82.8495L1009.75 84.0761L1008.51 84.084C1004.83 84.1146 998.772 84.1718 998.352 84.1708C996.197 84.1659 1002.87 84.0842 1008.51 84.0086L1009.69 84.0011L1009.91 82.8359C1010.66 78.6178 1011.3 74.9889 1011.05 76.2075C1010.7 78.245 1010.29 80.4891 1009.87 82.829L1009.66 83.9629L1008.51 83.9703C1004.31 84.0116 999.81 84.0403 995.625 84.0836C992.641 84.1144 991.908 84.1615 991.54 84.1653C986.039 84.2212 989.126 84.1528 987.289 84.169C986.304 84.1778 975.464 84.3586 977.512 84.2154C941.793 84.6021 967.632 84.3895 989.543 84.2022C982.62 84.3051 969.046 84.3945 962.954 84.4553C960.769 84.4772 962.065 84.5086 958.373 84.5474C950.775 84.6273 914.496 84.8772 905.045 84.9435C910.849 84.8809 909.151 84.849 904.672 84.889C900.191 84.929 903.955 84.9593 903.081 84.9731C902.145 84.9876 881.124 85.1316 877.627 85.1683C893.452 85.0159 889.882 84.9995 876.45 85.1052C878.392 85.0761 880.333 85.0469 882.275 85.0178C874.402 85.101 857.85 85.1673 853.299 85.2255C852.585 85.2347 855.15 85.2521 854.749 85.2573C850.758 85.3065 837.177 85.3789 836.545 85.3973C836.009 85.4126 841.802 85.3972 839.653 85.4308C839.204 85.4378 833.619 85.4317 828.119 85.4898C826.078 85.5112 827.307 85.5375 826.793 85.5439C822.509 85.5966 825.037 85.5145 817.206 85.5888C811.469 85.6432 807.197 85.7383 799.268 85.7837C825.301 85.646 803.417 85.794 792.532 85.9067C790.788 85.9247 792.283 85.9785 781.86 86.0321C804.041 85.7302 775.536 86.0209 769.704 86.0676C769.385 86.0698 769.275 86.0271 766.415 86.05C766.173 86.052 766.521 86.0786 763.863 86.1027C738.655 86.3313 754.773 86.1655 749.984 86.1758C747.944 86.1802 735.686 86.3227 732.385 86.3508C731.626 86.3572 731.975 86.3237 729.037 86.3491C723.841 86.394 719.185 86.4649 715.755 86.4957C715.355 86.4991 715.338 86.451 708.836 86.5201C707.008 86.5395 704.956 86.5735 707.552 86.566C716.164 86.5409 732.496 86.3275 742.229 86.2931C751.104 86.2616 723.119 86.4956 721.664 86.5079C721.129 86.5124 726.595 86.4435 721.042 86.4844C716.3 86.5195 707.635 86.6741 700.568 86.7141C700.029 86.7172 694.383 86.6929 694.643 86.6866C694.879 86.6817 703.55 86.595 702.291 86.5849C702.14 86.5838 696.63 86.6296 695.91 86.6203C695.029 86.609 692.653 86.4465 691.476 86.4517C688.456 86.4652 690.422 86.4906 688.468 86.5037C684.28 86.5321 669.751 86.5978 669.278 86.6647C671.679 86.6488 674.079 86.6328 676.479 86.6168C663.125 86.7331 668.818 86.7131 666.926 86.7405C664.889 86.7701 665.461 86.7099 660.959 86.7417C659.98 86.7486 641.145 86.9151 641.488 86.9355C651.904 86.8129 648.042 86.9131 648.523 86.9104C650.348 86.8999 652.678 86.8423 655.127 86.8229C672.347 86.6873 654.981 86.8908 659.046 86.8729C660.446 86.8667 663.233 86.8109 663.827 86.8077C665.757 86.7973 665.789 86.84 667.076 86.8259C670.079 86.7932 666.572 86.7612 666.81 86.7561C669.493 86.696 680.01 86.6568 673.464 86.7768C677.394 86.7683 677.854 86.6842 680.971 86.6907C687.167 86.7033 677.885 86.7633 675.37 86.7946C666.349 86.9069 663.672 86.8981 650.902 87.0136C646.303 87.0552 640.856 87.139 638.722 87.1587C637.378 87.1711 624.686 87.1396 624.314 87.3554C619.38 87.3754 611.638 87.2989 606.556 87.3471C601.993 87.3905 603.445 87.4538 603.019 87.4602C602.366 87.4701 596.848 87.5096 594.982 87.5356C592.795 87.5661 593.887 87.5858 590.417 87.6261C581.781 87.7262 582.007 87.6475 581.119 87.6498C570.815 87.6769 575.327 87.749 573.041 87.7766C570.915 87.8021 541.088 88.0054 534.81 88.0846C537.365 88.0482 539.92 88.0118 542.474 87.9755C537.902 87.9652 533.056 88.0831 532.97 87.998C532.044 88.1443 522.606 88.1292 519.771 88.1561C518.654 88.1667 518.742 88.1896 517.344 88.2022C511.882 88.2512 499.567 88.3337 496.604 88.37C483.792 88.527 516.555 88.3434 519.135 88.3273C513.972 88.3683 484.762 88.6396 498.189 88.5958C500.264 88.589 503.941 88.4967 505.107 88.4847C512.997 88.4038 506.792 88.5105 507.411 88.5107C508.463 88.5106 513.655 88.4141 515.025 88.4092C515.483 88.4075 512.539 88.4821 520.063 88.4213C516.363 88.5005 495.213 88.6347 492.439 88.669C491.45 88.6812 497.647 88.7345 479.546 88.7821C479.756 88.79 479.966 88.798 480.176 88.806C470.098 88.8928 460.019 88.9797 449.941 89.0666C451.036 89.0353 456.695 88.9439 449.568 89.012C445.465 89.0513 448.501 89.076 448.126 89.0805C444.444 89.1245 379.274 89.6439 366.644 89.7533C362.348 89.7905 350.372 89.9289 349.459 89.9372C343.999 89.9861 324.664 90.1191 320.807 90.1564C318.398 90.1799 320.688 90.2026 318.537 90.2183C316.537 90.2329 318.608 90.1757 318.014 90.1789C313.094 90.2048 275.717 90.5649 266.841 90.6C272.266 90.5668 299.335 90.2639 298.79 90.2401C298.673 90.2372 292.094 90.2607 290.737 90.2868C288.494 90.2705 280.797 90.4396 276.61 90.4533C276.136 90.4548 278 90.3801 270.527 90.4308C267.953 90.4483 261.212 90.55 254.428 90.5539C244.606 90.6596 192.968 91.0073 189.426 91.1002C189.321 91.1045 196.592 91.0666 191.68 91.1332C185.149 91.2217 191.013 91.0563 183.402 91.1088C182.254 91.1167 161.077 91.3027 160.384 91.3156C153.97 91.4342 172.476 91.3087 172.217 91.3184C171.571 91.343 156.196 91.4811 155.571 91.4817C154.976 91.4819 167.515 91.2916 152.446 91.4486C154.173 91.4448 155.899 91.441 157.625 91.4372C150.539 91.5158 149.863 91.461 148.146 91.4715C142.809 91.5037 137.036 91.6428 128.483 91.6C126.222 91.5885 129.976 91.5243 129.693 91.5222C126.976 91.5041 123.511 91.6407 119.426 91.5936C119.119 91.5902 128.624 91.4637 112.01 91.6002C113.154 91.5985 114.297 91.5968 115.441 91.5952C113.098 91.6317 96.2768 91.7803 94.0137 91.7948C87.4026 91.8373 93.1675 91.7344 86.5228 91.7956C90.7852 91.8367 70.5793 92.0128 71.741 91.9377C68.9196 92.0432 51.7543 92.1209 43.6854 92.1853C38.5942 92.226 28.2096 92.3473 26.592 92.3564C24.6213 92.3675 25.2197 92.3064 21.6613 92.3232C21.0397 92.3262 16.8241 92.3754 11.5135 92.4174L10.0422 92.4268L9.87186 90.9715C9.47624 87.6361 9.03538 83.8652 8.63226 80.2855C8.43053 78.4948 8.07804 74.7255 8.49724 78.0485C8.95332 81.664 9.60626 87.336 10.0317 90.9525L10.1853 92.2649L11.5122 92.2564C13.5995 92.242 15.0073 92.2275 14.9567 92.2075C14.9071 92.1896 13.5239 92.1915 11.5117 92.2036L10.2323 92.2118L10.0841 90.9462C9.54988 86.3677 8.60003 78.5146 8.28218 75.7961C6.17432 57.767 7.47582 68.1678 7.43992 67.702C7.34365 66.4943 6.17077 56.6458 6.12609 56.2343C5.94217 54.529 6.80923 61.5035 6.85027 61.6055C6.90251 61.7283 5.84036 52.2271 6.10957 54.3838C6.49478 57.471 7.47665 66.202 7.54511 66.7549C8.43755 73.9509 7.34938 64.0711 7.06797 61.346C6.98286 60.5198 7.39495 63.8028 7.31743 63.1187C6.1338 52.6756 6.93525 60.9331 6.12151 53.9902C5.39548 47.7957 6.39962 55.7575 6.37459 55.5205C6.34163 55.2143 5.46395 47.8091 5.34601 46.6475C5.28804 46.075 7.68688 65.3084 7.64042 64.4988C6.89918 58.3592 6.15793 52.2196 5.41669 46.08C5.42351 45.5909 6.42692 54.4292 6.54219 55.342C6.7742 57.1796 6.19665 52.0474 6.24309 52.2651C6.27002 52.3817 7.03192 58.3952 6.4041 52.9552C6.18836 51.0856 5.67695 47.169 4.91327 40.3571C7.78934 64.0376 5.87291 47.6183 5.81257 46.9174C5.75391 46.2308 7.15241 57.533 5.51028 43.8075C5.5642 43.1975 5.58489 44.0987 6.07074 47.9965C6.66601 52.7715 5.39356 41.7234 7.43957 59.1906C7.37978 58.1901 5.70609 44.154 5.62236 43.4103C5.55026 42.7681 5.95009 45.8848 5.82749 44.7711C4.37516 31.5988 5.39866 40.6431 5.01739 36.8233C4.98352 36.4836 3.53091 24.0432 4.66761 33.5105C6.73846 50.7584 7.51324 57.9776 8.03491 60.8554C6.59411 48.0869 4.64111 32.6407 4.17784 28.7623C3.46891 22.8258 4.23648 28.9715 4.15958 28.2387C4.13262 27.9843 3.52113 22.8686 3.51583 22.7996C3.21683 19.1356 6.22699 45.5744 7.23993 53.8905C6.99491 51.6583 6.74989 49.4261 6.50488 47.1939C6.86551 50.219 7.22614 53.2441 7.58678 56.2692C5.91319 41.8523 7.54172 55.7592 8.07839 59.3399C8.1989 60.1438 7.03064 50.6806 8.38352 61.4732C7.45176 53.5052 7.7763 56.0435 6.88755 48.834C6.95348 49.0149 8.93322 65.2382 9.71706 71.6367C7.07653 49.0172 8.44978 61.932 6.20949 42.3725C5.72408 38.7537 6.84452 48.0837 6.74506 47.3239C6.38817 44.5977 5.67806 38.1918 4.64692 30.4839C4.47887 29.2288 5.05465 34.5555 4.12106 26.6829C4.01789 25.8122 3.46995 20.7903 3.48175 20.8594C3.59898 21.5198 4.1751 26.4853 4.21539 26.6884C4.25333 26.8789 3.58557 21.342 3.58748 21.3224C3.61501 21.1466 4.15532 25.9409 4.08752 25.2433C3.94131 23.7367 1.67479 3.80466 4.73688 29.8056C2.11447 8.21844 4.35529 27.0472 5.37624 35.4539C5.63651 37.5977 5.72965 38.1375 6.103 41.1919C6.58334 45.121 7.11683 49.723 7.36398 51.7563C7.62993 53.943 6.21905 41.5061 8.33702 59.4844C7.31597 50.3279 5.32237 34.1768 4.30059 25.1846C2.23925 7.0424 5.91984 37.8124 6.31037 41.017C6.41445 41.8708 6.11242 39.0029 6.1825 39.572C6.29685 40.5025 8.35633 57.9693 8.59305 59.6876C8.82918 61.4012 7.83071 53.2908 7.79979 52.7475C7.77867 52.3792 10.3243 73.4431 8.98303 62.0361C8.05851 54.1739 6.24515 39.6949 6.0515 37.2427C7.43453 48.8023 8.81757 60.3618 10.2006 71.9213C9.48478 65.5896 8.76895 59.2578 8.05312 52.926C9.60811 65.9 10.9008 77.1222 12.4193 89.4396C10.1066 69.3134 11.5071 80.9631 12.6638 90.6394L11.4904 89.6059C16.0906 89.5653 20.2478 89.5304 20.3871 89.5247C20.4822 89.5182 15.4831 89.5161 11.4896 89.5148L12.7542 90.6286C12.5233 88.5353 12.323 86.7199 12.252 86.0716C12.4052 87.3217 12.5948 88.8806 12.8062 90.6224L11.4892 89.4624C24.2249 89.3276 46.6712 89.1164 30.4187 89.1455C33.7751 89.1448 41.9021 89.0116 41.7948 89.0075C40.7623 88.9635 23.0362 89.1433 25.9269 89.0721C29.2768 88.9895 33.9722 89.0256 39.1264 88.9772C65.5748 88.7286 58.3164 88.514 84.8371 88.3393C84.3095 88.3339 83.7819 88.3284 83.2542 88.323C112.081 88.1015 140.907 87.8799 169.734 87.6584C181.011 87.4819 211.027 87.184 225.77 87.0721C228.738 87.0494 243.314 86.9735 244.413 86.9722C246.45 86.9702 235.251 87.068 240.312 87.054C241.381 87.0509 266.056 86.8665 264.291 86.8341C261.526 86.8514 252.873 86.9461 251.456 86.9467C241.507 86.9498 317.579 86.3871 321.347 86.3243C319.662 86.323 317.977 86.3216 316.292 86.3203C321.093 86.2883 325.893 86.2563 330.693 86.2243ZM110.147 91.8018C107.267 91.8725 100.046 91.8966 95.7799 91.9449C89.8857 92.0118 79.8672 92.2753 84.1799 92.0583C92.8357 91.9728 101.491 91.8873 110.147 91.8018ZM236.656 90.8314C230.851 90.8539 235.352 90.7155 240.11 90.7186C240.638 90.719 244.509 90.8008 236.656 90.8314ZM175.804 91.2838C176.049 91.2804 181.065 91.2419 181.24 91.242C185.738 91.2457 170.616 91.3618 175.804 91.2838ZM469.76 88.8142C463.365 88.8712 467.997 88.9252 471.973 88.8546C472.223 88.8502 470.181 88.8105 469.76 88.8142ZM465.211 88.8492C460.243 88.8075 450.241 89.057 458.194 88.9748C458.965 88.9667 465.441 88.8513 465.211 88.8492ZM215.966 90.9613C216.619 90.9243 222.606 90.8903 225.163 90.8769C225.094 90.9063 218.473 90.9372 215.966 90.9613ZM367.77 89.704C368.024 89.6771 347.214 89.8496 345.796 89.894C349.081 89.8531 367.531 89.7283 367.77 89.704ZM421.139 89.2302C420.611 89.2302 413.422 89.2959 413.632 89.3161C417.142 89.316 423.514 89.2301 421.139 89.2302ZM527.214 88.3593C527.604 88.3506 522.219 88.2553 534.977 88.2422C536.851 88.2403 530.161 88.3317 530.827 88.3313C532.221 88.3296 533.322 88.3251 534.207 88.3186C528.266 88.379 522.094 88.4352 521.497 88.4317C518.693 88.4148 527.041 88.363 527.214 88.3593ZM582.902 87.7973C584.126 87.7644 591.944 87.7123 593.723 87.7071C594.029 87.7063 592.698 87.7771 596.218 87.7437C599.044 87.7167 594.822 87.6902 600.327 87.6547C605.891 87.6188 598.458 87.7236 598.944 87.7227C599.595 87.7215 608.202 87.6231 607.934 87.661C607.735 87.689 598.515 87.747 596.235 87.7714C593.315 87.8026 596.856 87.8175 591.976 87.8481C588.91 87.8675 590.609 87.7761 589.962 87.7775C589.419 87.7789 578.703 87.9115 582.919 87.7974C582.913 87.7973 582.908 87.7973 582.902 87.7973ZM535.815 88.302C535.368 88.3083 534.843 88.314 534.207 88.3186C534.747 88.3131 535.284 88.3075 535.815 88.302ZM126.918 91.6299C129.935 91.629 120.98 91.7332 117.588 91.7299C117.529 91.7051 126.437 91.6302 126.918 91.6299ZM541.324 88.1937C550.151 88.1405 543.659 88.2205 535.815 88.302C538.305 88.2669 538.361 88.2116 541.324 88.1937ZM290.737 90.2868C291.109 90.2895 291.345 90.2966 291.375 90.3111C290.396 90.303 290.308 90.295 290.737 90.2868ZM311.327 90.1438C318.385 90.0408 304.044 90.1605 304.135 90.192C304.178 90.2038 311.044 90.1479 311.327 90.1438ZM477.963 88.7512C477.317 88.7521 487.347 88.5336 472.784 88.7554C480.557 88.7075 472.357 88.7898 472.478 88.8007C472.795 88.8323 485.852 88.692 488.743 88.683C491.006 88.6032 480.095 88.7481 477.98 88.751C477.974 88.7511 477.968 88.7511 477.963 88.7512ZM683.269 87.0048C681.5 87.0552 675.887 87.0898 672.099 87.1189C673.868 87.0685 679.481 87.0338 683.269 87.0048ZM421.326 6.74569C447.276 7.08312 450.636 7.2772 426.893 6.88038C426.428 6.87253 419.751 6.738 421.326 6.74569ZM644.033 9.96407C646.478 10.0626 638.385 9.95731 633.071 9.85513C631.869 9.83204 627.423 9.70405 632.501 9.76396C632.338 9.83881 640.19 9.98042 644.033 9.96407ZM546.312 88.1119C548.882 88.0483 556.793 88.0134 560.961 87.9855C558.418 88.0414 549.998 88.0948 546.312 88.1119ZM506.597 8.03964C509.332 8.08353 511.179 8.05451 510.707 8.04316C508.593 7.99184 503.48 7.9636 506.597 8.03964ZM520.775 88.3153C520.413 88.2929 530.891 88.1823 531.621 88.239C529.381 88.2529 521.035 88.3291 520.775 88.3153ZM676.126 87.0445C674.5 87.045 682.924 86.9526 685.472 86.9444C685.268 86.9731 677.192 87.0441 676.126 87.0445ZM550.633 8.64973C553.083 8.68953 559.202 8.77838 559.88 8.76567C560.722 8.7497 551.749 8.6311 550.633 8.64973ZM94.8937 2.18958C94.5847 2.1751 104.063 2.23795 108.275 2.31646C116.275 2.46581 95.2286 2.20146 94.8937 2.18958ZM480.705 7.69845C472.981 7.53546 481.557 7.70895 481.219 7.64866C476.022 7.57243 463.092 7.38504 471.981 7.56653C473.712 7.60181 478.282 7.66025 480.705 7.69845ZM487.83 7.81876C488.658 7.81261 494.227 7.83548 489.413 7.77081C487.189 7.74099 483.601 7.75271 487.83 7.81876ZM153.612 3.00348C160.534 3.15144 128.798 2.67187 127.886 2.65024C127.404 2.63882 127.088 2.63003 126.908 2.62383C125.743 2.62275 119.748 2.53994 119.054 2.49066C120.852 2.51958 125.759 2.5862 126.328 2.5987C126.574 2.60407 126.757 2.60843 126.884 2.612C128.999 2.60804 152.285 2.97521 153.612 3.00348ZM206.197 3.80501C198.275 3.76431 196.874 3.62112 197.557 3.62691C206.182 3.69967 200.556 3.71017 200.82 3.71821C201.423 3.73389 207.549 3.77923 206.173 3.80466C206.181 3.80477 206.189 3.80489 206.197 3.80501ZM164.39 3.17768C164.065 3.17463 157.415 3.07584 157.141 3.06999C151.691 2.95076 170.51 3.23012 164.39 3.17768ZM624.877 87.3659C629.64 87.339 624.969 87.4227 621.804 87.4324C621.544 87.4329 620.677 87.3896 624.877 87.3659ZM491.633 7.86086C492.737 7.88519 520.977 8.32079 519.281 8.22812C516.883 8.20195 484.783 7.70829 491.633 7.86086ZM702.683 10.8915C697.703 10.8199 703.134 10.8329 705.791 10.8949C706.776 10.9179 703.939 10.9095 702.683 10.8915ZM506.647 88.3729C501.477 88.4509 502.545 88.3231 507.028 88.327C507.204 88.3272 506.85 88.3698 506.647 88.3729ZM662.898 10.2862C680.074 10.4924 676.003 10.6389 653.675 10.251C654.374 10.2518 655.073 10.2527 655.772 10.2535C629.999 9.85478 654.009 10.214 660.321 10.2926C662.719 10.3225 660.709 10.2597 662.881 10.2857C662.887 10.2859 662.892 10.2861 662.898 10.2862ZM728.873 11.2694C745.411 11.6509 713.836 11.1054 704.778 10.9949C713.559 11.0603 724.991 11.2327 709.445 10.9492C732.176 11.262 722.712 11.1847 723.62 11.2025C724.694 11.2232 728.168 11.2531 728.873 11.2694ZM685.243 10.6473C684.287 10.6379 677.083 10.5055 674.489 10.4732C678.118 10.4754 691.591 10.7092 685.243 10.6473ZM261.328 4.55864C260.729 4.58897 259.25 4.59648 253.564 4.50075C255.321 4.5063 258.952 4.54137 261.328 4.55864ZM104.677 91.6422C100.761 91.6716 92.9643 91.7211 95.3556 91.7423C95.6174 91.7436 104.665 91.6652 104.677 91.6422ZM573.657 9.06375C574.49 9.08043 596.025 9.39118 588.587 9.24207C586.344 9.19709 566.75 8.92275 573.657 9.06375ZM462.137 7.46624C463.939 7.49238 471.261 7.58962 471.417 7.58265C471.913 7.55795 462.925 7.44707 462.137 7.46624ZM84.9233 91.7649C84.4076 91.7651 72.4475 91.8706 73.7624 91.8786C76.2583 91.8938 86.6909 91.7642 84.9233 91.7649ZM642.202 87.1323C643.202 87.1227 644.525 87.154 644.871 87.1516C645.684 87.1456 663.985 86.9788 656.993 87.0905C655.827 87.1092 629.495 87.3049 626.07 87.3277C624.746 87.2807 635.994 87.2433 638.731 87.2148C639.213 87.2097 639.522 87.1587 642.194 87.1326C642.197 87.1325 642.2 87.1324 642.202 87.1323ZM231.708 4.17665C230.9 4.20197 209.385 3.91913 209.635 3.87804C216.993 3.97758 224.35 4.07711 231.708 4.17665ZM242.636 4.33882C247.226 4.43045 236.475 4.28554 233.306 4.22878C233.273 4.20351 241.967 4.32546 242.636 4.33882ZM502.94 8.18667C505.102 8.20853 498.455 8.05981 499.942 8.07059C500.895 8.0777 505.725 8.16684 507.266 8.17202C507.703 8.17292 502.776 8.052 501.351 8.03383C499.327 8.00784 501.29 8.07565 499.08 8.04438C491.746 7.94049 485.244 7.81925 478.368 7.72172C477.747 7.71298 482.562 7.80985 477.265 7.73381C476.447 7.72211 471.53 7.61005 465.194 7.52576C451.2 7.45551 440.928 7.18157 423.171 6.9747C423.841 6.99647 437.119 7.21884 437.901 7.23122C452.743 7.46449 479.333 7.84657 494.879 8.06886C498.867 8.12593 496.931 8.07085 498.649 8.09438C500.007 8.11302 498.392 8.14075 502.94 8.18667ZM106.756 91.597C104.89 91.5616 98.3434 91.6476 94.1619 91.6794C95.6341 91.713 102.67 91.6194 106.756 91.597ZM339.225 5.75754C341.321 5.78551 347.818 5.89359 348.355 5.88598C349.047 5.87592 339.669 5.7294 339.225 5.75754ZM745.394 86.298C745.596 86.295 750.639 86.2562 750.83 86.2563C755.335 86.2599 740.211 86.376 745.394 86.298ZM866.011 85.3158C869.834 85.2781 873.691 85.2305 874.976 85.2611C872.54 85.2749 865.563 85.3482 866.011 85.3158ZM1014.35 59.3483C1014.15 60.115 1016.26 48.8009 1016.65 46.6635C1016.53 47.4598 1014.49 58.7857 1014.35 59.3483ZM262.154 4.73965C255.119 4.63599 256.603 4.73884 252.137 4.6381C251.408 4.62144 249.054 4.41782 256.786 4.59194C258.178 4.62327 252.733 4.58591 262.154 4.73965ZM650.038 10.1973C648.248 10.2074 642.656 10.117 638.877 10.0601C639.725 10.0457 647.349 10.1614 650.038 10.1973ZM63.3218 91.9017C60.0215 91.8785 44.7753 92.0413 48.5483 92.0435C49.0849 92.0434 61.1829 91.9174 63.3218 91.9017ZM564.2 87.8022C570.473 87.7109 557.479 87.8055 553.378 87.878C555.235 87.8602 563.777 87.8082 564.2 87.8022ZM992.444 84.2455C992.745 84.2414 999.396 84.1905 999.694 84.19C1005.15 84.1866 986.325 84.3308 992.444 84.2455ZM826.346 85.5766C828.742 85.5243 844.499 85.421 848.03 85.4246C844.633 85.5003 823.372 85.6418 826.346 85.5766ZM291.103 5.12988C286.084 5.0599 281.322 4.98184 276.712 4.90189C277.682 4.88829 290.573 5.1018 291.103 5.12988ZM1011.51 74.6409C1011.58 74.2902 1011.64 73.9495 1011.7 73.6146C1011.64 73.964 1011.57 74.3064 1011.51 74.6409ZM403.443 6.75352C407.649 6.82443 406.776 6.76164 406.517 6.7564C403.353 6.69491 398.681 6.67327 403.443 6.75352ZM101.95 91.5618C100.492 91.5284 93.4171 91.6218 89.3472 91.6445C90.5282 91.6706 98.6718 91.5936 101.95 91.5618ZM746.585 11.6154C751.869 11.7401 730.368 11.4903 725.838 11.3938C725.504 11.3587 745.812 11.5976 746.585 11.6154ZM544.719 87.8942C544.297 87.8621 535.27 87.9793 537.188 87.9804C538.402 87.9811 544.972 87.9143 544.719 87.8942ZM715.026 11.2187C713.006 11.2007 708.298 11.0983 709.956 11.1006C712.085 11.1036 715.548 11.223 715.026 11.2187ZM533.786 8.65892C534.669 8.67698 546.547 8.81008 541.641 8.70371C538.236 8.62987 537.694 8.67356 536.893 8.66228C535.999 8.64934 516.931 8.31408 533.786 8.65892ZM867.003 13.3661C862.521 13.3158 857.103 13.2226 852.413 13.1566C854.324 13.1618 865.097 13.3097 867.003 13.3661ZM579.536 87.5984C578.448 87.5929 548.797 87.8281 565.641 87.7339C566.623 87.7283 582.842 87.6148 579.536 87.5984ZM262.154 4.73965C263.041 4.75273 264.065 4.76905 265.253 4.78952C264.074 4.7713 263.047 4.75423 262.154 4.73965ZM342.057 5.88614C340.437 5.88891 348.597 6.01237 351.005 6.03297C351.747 6.01191 342.28 5.8857 342.057 5.88614ZM852.056 13.1876C849.353 13.1638 844.449 13.078 841.103 13.0319C841.669 13.0159 850.888 13.1464 852.056 13.1876ZM1018.08 38.2811C1019.06 33.0046 1020.24 26.5072 1020.23 26.4018C1020.25 26.293 1020.31 26.0378 1020.39 25.6138C1020.47 25.1991 1021.43 19.8845 1021.91 17.3177L1022.22 15.6549L1020.52 15.6276C1020.43 15.6261 1020.35 15.6246 1020.27 15.6231C1017.15 15.5661 1017.85 15.5673 1020.52 15.6001L1022.25 15.6279L1021.94 17.3226C1020.13 27.2993 1013.15 65.2309 1019.09 32.4192C1018.76 34.3732 1018.42 36.3271 1018.08 38.2811ZM805.026 85.6826C801.98 85.6718 793.45 85.7869 795.663 85.7828C797.205 85.7798 808.076 85.6936 805.026 85.6826ZM922.237 84.6974C921.327 84.6985 912.997 84.7921 912.783 84.8127C917.572 84.7933 926.385 84.693 922.237 84.6974ZM781.61 85.8332C779.699 85.8435 777.259 85.9214 777.484 85.9221C779.427 85.9272 784.821 85.839 781.61 85.8332ZM276.726 5.10354C279.57 5.16071 288.638 5.24836 290.613 5.23837C290.98 5.251 291.97 5.27478 293.785 5.31226C293.78 5.31218 293.774 5.3121 293.769 5.31202C296.22 5.36244 369.505 6.4259 320.349 5.65034C318.809 5.62601 320.912 5.69031 314.648 5.59481C314.234 5.58846 314.029 5.55754 312.751 5.53793C309.809 5.49296 294.143 5.25163 290.994 5.22917C290.967 5.2236 290.764 5.21576 290.331 5.20506C286.47 5.10956 274.519 5.05926 276.726 5.10354ZM938.751 84.5565C937.075 84.5599 931.769 84.6134 931.219 84.6426C933.851 84.633 942.641 84.5486 938.751 84.5565ZM578.616 87.5046C575.2 87.5124 566.546 87.6216 569.162 87.6202C570.766 87.6194 582.554 87.4956 578.616 87.5046ZM885.606 85.0067C905.188 84.8749 890.279 84.9659 893.278 84.905C890.721 84.9389 888.163 84.9728 885.606 85.0067ZM186.103 3.71581C189.225 3.76874 185.555 3.78779 182.117 3.69991C181.038 3.6722 184.356 3.68634 186.103 3.71581ZM45.1123 1.72453C47.7763 1.82594 34.7617 1.60284 39.8348 1.63182C40.0706 1.63372 44.9215 1.71938 45.1123 1.72453ZM143.632 3.15738C145.752 3.14451 147.132 3.1591 153.102 3.25503C144.264 3.14096 152.461 3.29618 143.632 3.15738ZM1020.22 26.458C1020.22 26.4245 1020.23 26.3961 1020.23 26.4018C1020.22 26.4394 1020.22 26.4555 1020.22 26.458ZM763.199 85.9958C760.748 85.9794 753.877 86.0386 755.924 86.0586C756.122 86.0604 762.195 86.0311 763.199 85.9958ZM290.613 5.23837C290.287 5.22717 290.453 5.22531 290.994 5.22917C291.019 5.23441 290.879 5.23702 290.613 5.23837ZM800.087 85.6627C799.842 85.692 810.299 85.6166 810.718 85.6099C816.719 85.5133 804.405 85.6255 800.087 85.6627ZM509.479 88.0349C508.939 88.0422 512.418 88.084 514.55 88.0388C516.2 88.0039 511.498 88.0075 509.479 88.0349ZM123.358 2.88542C120.047 2.83809 115.385 2.77155 114.526 2.72585C116.744 2.76266 123.426 2.86187 123.358 2.88542ZM50.2071 1.84319C54.1209 1.85977 63.0594 1.98753 68.7665 2.07552C68.871 2.12875 53.8798 1.88347 50.2071 1.84319ZM267.745 4.95599C268.017 4.96198 276.319 5.09598 275.185 5.04515C273.529 4.97072 265.403 4.90371 267.745 4.95599ZM525.603 87.9396C529.316 87.8853 520.77 87.8822 516.853 87.9711C514.841 88.0166 524.977 87.9488 525.603 87.9396ZM741.747 86.1244C736.846 86.1848 748.991 86.1206 750.687 86.0704C748.43 86.0861 743.487 86.103 741.747 86.1244ZM908.465 84.7167C893.024 84.7392 901.435 84.8606 904.174 84.8213C904.56 84.8157 908.843 84.716 908.465 84.7167ZM25.0064 92.0081C22.8206 92.0406 30.9705 92.0261 32.0248 91.9828C32.6762 91.9558 26.4043 91.9874 25.0064 92.0081ZM954.667 14.7358C955.319 14.7448 955.966 14.7537 956.606 14.7625C956.126 14.7573 955.495 14.7489 954.667 14.7358ZM697.267 86.3503C708.138 86.4084 706.995 86.3041 707.94 86.297C709.981 86.2818 714.724 86.2826 718.571 86.2445C714.165 86.2973 709.76 86.3501 705.355 86.403C708.835 86.385 739.067 86.1906 739.7 86.1615C740.607 86.12 731.095 86.2089 730.818 86.2082C730.418 86.2072 728.932 86.1248 728.049 86.1284C726.598 86.1346 701.319 86.3405 697.267 86.3503ZM876.176 84.9986C878.659 84.9894 879.365 85.0211 880.518 85.0027C880.911 84.9964 880.974 84.9601 882.315 84.9398C880.269 84.9594 878.222 84.979 876.176 84.9986ZM677.805 86.643C674.728 86.6246 688.523 86.5277 688.966 86.529C691.326 86.5392 680.32 86.658 677.805 86.643ZM794.867 85.6739C794.363 85.6755 783.77 85.7489 783.855 85.7725C786.658 85.7679 800.822 85.6568 794.867 85.6739ZM883.973 84.9237C887.695 84.8973 894.731 84.8754 893.924 84.8282C893.918 84.8282 893.913 84.8283 893.907 84.8283C890.596 84.8601 887.284 84.8919 883.973 84.9237ZM538.312 87.7213C531.414 87.6923 534.683 87.7738 540.79 87.7513C542.64 87.6975 539.443 87.726 538.312 87.7213ZM516.239 87.8389C514.32 87.8392 494.545 88.0188 497.563 88.0394C498.635 88.0467 510.006 87.9124 510.53 87.9112C511.324 87.9094 507.697 87.9894 513.762 87.9296C513.407 87.9155 516.896 87.8387 516.239 87.8389ZM532.603 87.7134C525.748 87.7045 524.209 87.8375 529.364 87.7954C531.378 87.7791 533.581 87.7147 532.603 87.7134ZM560.601 87.4933C558.134 87.5022 551.565 87.5396 547.037 87.6169C553.097 87.5704 559.157 87.524 565.216 87.4776C565.915 87.4492 562.759 87.4856 560.584 87.4935C560.59 87.4934 560.596 87.4934 560.601 87.4933ZM9.01667 1.56333C14.4621 1.67523 1.9158 1.50913 1.38537 1.49317C-0.189889 1.44284 6.58237 1.51332 9.01667 1.56333ZM7.82321 61.9654C7.65798 60.4611 7.58558 59.4734 7.16889 56.1687C7.53179 59.4995 7.89469 62.8303 8.25759 66.1611C8.64028 68.7376 8.00366 63.6096 7.82321 61.9654ZM6.58682 49.2285C6.64454 49.6983 6.4548 47.1174 7.09977 53.1979C7.53558 57.3063 4.83145 35.0046 4.40375 30.9717C4.95679 35.4183 6.09081 45.1849 6.58682 49.2285ZM2.43951 10.0938C2.41813 9.83544 3.43972 18.3091 3.54991 19.2908C4.12832 24.4459 2.55564 11.4912 2.43951 10.0938ZM5.63336 37.1339C5.18305 33.1566 6.24484 41.9601 6.54404 44.5857C6.5528 44.8428 5.70313 37.7483 5.63336 37.1339ZM64.1393 4.03682C68.469 4.17778 72.3455 4.0628 65.6811 4.00195C65.3631 3.99902 63.9549 4.03031 64.1393 4.03682ZM3.54164 18.3656C3.99196 22.343 2.93017 13.5395 2.63096 10.9138C2.62343 10.6672 3.47294 17.76 3.54164 18.3656ZM67.1856 4.26883C72.9366 4.4079 70.9138 4.1879 70.1951 4.16994C67.2347 4.09725 57.0816 4.02726 55.0073 4.01628C70.2031 4.20462 64.4776 4.20332 67.1856 4.26883ZM93.7166 4.53296C99.0529 4.58878 85.4164 4.35504 82.8133 4.37114C85.4654 4.40647 92.1989 4.51718 93.7166 4.53296ZM126.103 5.05676C128.972 5.10458 137.505 5.24283 138.937 5.23321C135.804 5.19392 127.314 5.04312 126.103 5.05676ZM132.597 5.23961C137.081 5.34451 138.159 5.24084 132.987 5.20245C132.786 5.20095 132.432 5.23499 132.597 5.23961ZM157.809 5.64263C160.75 5.73199 164.11 5.66468 159.342 5.59348C157.926 5.57255 157.497 5.63276 157.809 5.64263ZM74.3825 4.5772C78.5952 4.65769 84.0244 4.65266 75.0297 4.51514C78.1894 4.54765 81.349 4.58016 84.5086 4.61267C72.7269 4.39813 73.5903 4.52496 70.2073 4.47192C65.4802 4.39768 65.8545 4.30854 66.804 4.29243C62.9273 4.29495 46.46 4.06071 36.9429 3.93581C45.3068 4.07956 58.8794 4.31551 67.1333 4.44877C69.49 4.48689 71.7771 4.49364 73.7866 4.52523C77.008 4.57602 74.1462 4.57246 74.3659 4.57697C74.3714 4.57704 74.377 4.57713 74.3825 4.5772ZM190.95 6.11764C199.596 6.29475 194.129 6.10089 189.243 6.05176C189.034 6.05036 190.735 6.11326 190.95 6.11764ZM2.53652 6.93634C3.85318 18.4157 2.79751 10.0834 5.74915 34.0744C4.48126 23.9985 5.63358 33.5226 5.37184 31.5575C5.16218 29.9811 4.47653 24.0623 4.8416 27.5068C4.3518 22.9805 2.00417 3.35594 1.90788 2.48004C1.90886 2.48827 1.90984 2.4965 1.91082 2.50473C1.85292 1.97867 2.11632 3.27329 2.53652 6.93634ZM126.14 5.36007C129.022 5.54172 130.157 5.33493 135.825 5.53232C143.377 5.47108 114.971 5.23448 111.535 5.04258C142.38 5.49969 91.1571 4.61005 112.685 5.13129C94.9487 4.8004 106.872 5.07475 104.134 5.06289C101.204 5.05006 91.1721 4.87526 91.6805 4.93485C91.6862 4.93493 91.6915 4.93501 91.6972 4.93509C97.8337 5.01907 103.97 5.10304 110.107 5.18702C104.102 4.98837 116.642 5.20131 120.894 5.35401C122.643 5.35603 124.391 5.35805 126.14 5.36007ZM91.4096 4.7581C92.0142 4.76933 105.362 4.94413 104.501 4.90917C102.719 4.86926 83.7749 4.61606 91.4096 4.7581ZM32.6667 3.94385C37.459 4.01257 44.8692 4.14041 47.4811 4.13515C42.6876 4.06641 35.2767 3.93854 32.6667 3.94385ZM279.443 7.47617C285.552 7.52849 266.745 7.24954 272.185 7.36861C272.453 7.37438 279.143 7.47351 279.443 7.47617ZM140.035 5.53725C146.245 5.66888 143.311 5.49033 138.71 5.46022C138.443 5.45852 139.748 5.5312 140.035 5.53725ZM3.6589 16.2321C3.74122 16.6408 5.69794 33.2908 6.04922 36.2417C5.8189 34.5688 3.56449 15.7633 3.6589 16.2321ZM24.2306 3.94863C33.7646 4.20519 46.7067 4.25095 48.1254 4.27425C49.5362 4.29749 47.3225 4.31851 47.6441 4.32452C48.3775 4.33794 63.4045 4.54813 64.1319 4.55486C64.6524 4.55943 61.9346 4.44665 65.0364 4.46766C58.9856 4.42327 31.5138 4.00465 30.0888 3.99249C28.9841 3.98326 37.308 4.1798 24.2472 3.94887C24.2416 3.94879 24.2362 3.94872 24.2306 3.94863ZM51.6713 4.341C47.9179 4.2564 58.4453 4.40286 60.9926 4.45068C66.6531 4.55712 52.1528 4.35155 51.6713 4.341ZM76.9907 4.73116C78.1929 4.75529 89.0427 4.91655 89.9657 4.89523C84.8304 4.77711 74.2637 4.67602 76.9907 4.73116ZM197.724 6.45074C200.542 6.48656 208.29 6.62374 208.735 6.59993C205.914 6.56405 198.167 6.4269 197.724 6.45074ZM10.676 72.9996C10.1481 68.3475 11.4395 79.1179 11.8013 82.2617C11.8016 82.4346 10.721 73.3957 10.676 72.9996ZM141.083 5.8406C142.751 5.87359 176.79 6.33682 181.565 6.39089C176.895 6.30139 143.161 5.81788 141.63 5.80714C141.183 5.80409 140.87 5.83611 141.083 5.8406ZM67.468 4.80321C64.3464 4.80304 62.3106 4.7207 61.917 4.71441C58.0578 4.6525 50.0539 4.54821 51.8095 4.53051C58.6199 4.64503 73.6822 4.80376 67.468 4.80321ZM200.14 6.6862C211.698 6.83479 189.498 6.47095 192.41 6.55896C192.598 6.56444 198.945 6.67086 200.14 6.6862ZM137.28 5.79922C134.73 5.7987 100.681 5.28149 95.2152 5.20338C100.112 5.20713 104.058 5.31374 110.634 5.40429C112.409 5.42864 111.936 5.39436 112.126 5.39703C115.199 5.43964 112.899 5.43859 114.794 5.46613C115.99 5.48344 140.868 5.79991 137.28 5.79922ZM65.6862 4.80853C63.7822 4.80679 42.5222 4.51403 41.6668 4.49505C35.2693 4.35336 64.0343 4.77607 65.6862 4.80853ZM140.402 5.90266C136.74 5.92729 119.831 5.63429 131.405 5.76123C132.51 5.77352 137.19 5.8737 140.402 5.90266ZM198.904 6.74181C199.473 6.75219 211.522 6.93964 211.738 6.91826C209.997 6.88388 192.433 6.62451 198.904 6.74181ZM192.656 6.73535C192.947 6.73891 190.122 6.65144 195.772 6.7381C196.243 6.74538 197.12 6.81095 204.222 6.89296C205.664 6.90955 207.897 6.90636 207.736 6.90188C200.342 6.71304 178.067 6.55434 192.656 6.73535ZM65.2962 4.84593C66.4414 4.88467 63.6773 4.91164 61.1859 4.84241C60.118 4.81264 62.1115 4.80123 65.2962 4.84593ZM237.116 7.309C230.111 7.24926 252.101 7.57093 253.222 7.57661C252.516 7.54144 237.816 7.31507 237.116 7.309ZM12.2797 83.8487C12.279 83.8432 12.2784 83.8377 12.2777 83.8322C12.9647 89.6853 12.5003 86.0646 12.5318 86.3387C12.7264 88.0312 12.8887 89.4329 13.0246 90.5965L11.4874 89.2425C18.9478 89.1974 16.6904 89.1582 18.3868 89.1365C22.5957 89.0826 21.9183 89.1805 29.0178 89.0838C17.2824 89.2368 27.9648 89.1253 28.2975 89.1554C29.3477 89.2537 18.7766 89.237 11.4876 89.2649L13.0024 90.5991C12.7922 88.7637 12.6024 87.1381 12.457 85.9638C12.3568 85.1546 13.0254 91.1374 12.7666 89.0645C11.9252 82.325 9.64348 61.3894 12.2797 83.8487ZM59.2636 4.82082C56.5302 4.82117 35.7952 4.48685 41.2934 4.53294C42.1776 4.54036 63.282 4.82082 59.2636 4.82082ZM1017.64 24.0747C1018.51 19.1661 1016.39 30.5209 1016.03 32.6323C1015.85 33.6797 1017.26 26.2308 1017.64 24.0747ZM986.692 81.065C980.77 81.1206 974.528 81.3141 981.896 81.2314C982.678 81.2226 987.371 81.0791 986.692 81.065ZM720.028 14.3882C726.21 14.5273 725.843 14.4277 721.304 14.3642C719.701 14.3418 719.833 14.3838 720.028 14.3882ZM956.025 17.7463C956.644 17.7585 963.792 17.8545 963.532 17.8291C960.89 17.7784 952.023 17.6666 956.025 17.7463ZM718.064 14.3736C721.73 14.4089 715.421 14.2506 710.939 14.2533C713.215 14.2803 717.687 14.3699 718.064 14.3736ZM153.175 6.2936C156.246 6.29871 164.931 6.43446 169.92 6.49905C170.457 6.55692 156.74 6.33541 153.175 6.2936ZM1007.49 78.9932C1006.52 84.5143 1008.71 72.7049 1008.47 73.7801C1008.44 73.9301 1007.53 78.7757 1007.49 78.9932ZM520.535 11.5578C524.61 11.586 511.672 11.361 515.233 11.4645C515.408 11.4691 520.311 11.5562 520.535 11.5578ZM464.038 10.7336C467.129 10.7878 480.312 10.973 475.182 10.8705C474.385 10.8546 464.27 10.7095 464.038 10.7336ZM18.7346 89.0975C17.0682 89.0597 26.7378 88.9924 28.1221 88.9901C28.666 88.9893 20.9079 89.1468 18.7346 89.0975ZM760.186 14.9698C763.385 15.009 771.683 15.1398 773.145 15.1336C769.231 15.0833 759.135 14.9009 760.186 14.9698ZM1012.1 53.8488C1011.16 58.6409 1009.67 66.8471 1010.11 64.8317C1011.77 55.7675 1009.84 65.94 1012.1 53.8488ZM697.457 14.1396C700.023 14.1805 701.99 14.1383 701.701 14.1309C698.921 14.0597 694.909 14.0759 697.457 14.1396ZM889.983 16.8312C890.131 16.8634 898.355 16.9672 897.257 16.9322C896.897 16.9206 889.864 16.8052 889.983 16.8312ZM260.883 7.84889C264.652 7.93014 253.143 7.79259 249.739 7.71197C248.085 7.6422 260.407 7.83894 260.883 7.84889ZM626.312 13.106C625.929 13.1451 638.784 13.3035 633.719 13.1942C632.452 13.1668 626.447 13.093 626.312 13.106ZM503.25 11.402C511.874 11.472 475.667 10.9172 485.181 11.1193C485.861 11.1337 502.5 11.3958 503.25 11.402ZM444.119 10.5243C445.607 10.5514 444.863 10.6906 438.707 10.545C437.9 10.5259 441.68 10.5403 441.02 10.5218C440.631 10.5111 427.246 10.2989 426.629 10.2936C425.965 10.2881 426.746 10.3473 426.073 10.343C425.314 10.3382 417.075 10.1784 412.759 10.1163C404.626 9.99934 403.748 10.0268 403.081 10.0174C401.138 9.98988 397.873 9.91487 393.935 9.85867C374.083 9.57547 343.72 9.17574 327.985 8.86627C341.989 9.1003 355.335 9.25479 369.27 9.4427C365.188 9.46783 389.772 9.6712 375.393 9.56212C382.013 9.63578 439.243 10.4364 444.103 10.5241C444.108 10.5242 444.114 10.5242 444.119 10.5243ZM963.317 81.2153C966.955 81.1342 948.288 81.2992 946.704 81.3714C949.169 81.3594 962.866 81.2248 963.317 81.2153ZM1014.05 41.9577C1014.35 40.2506 1014.55 38.6142 1016.24 29.6807C1016.24 29.6725 1016.24 29.6644 1016.24 29.6562C1016.74 27.0442 1016.22 30.0279 1016.31 29.5507C1016.35 29.3768 1017.89 21.2311 1016.66 28.005C1014.78 38.3357 1016.41 28.9641 1015.4 34.4711C1015.27 35.1443 1013.42 45.5768 1013.54 44.9727C1013.55 44.9103 1014.12 41.7722 1014.22 41.2551C1014.59 39.3024 1014.45 40.2602 1014.5 39.9847C1014.67 39.0831 1017.64 22.5914 1018.12 20.2029C1018.28 19.4267 1013.36 46.4863 1013.16 47.5391C1013.03 48.2049 1013 47.9082 1012.86 48.597C1012.79 48.9516 1010.83 59.8391 1010.56 61.2502C1010.49 61.66 1010.43 61.973 1010.38 62.2026C1010.71 60.5609 1008.9 70.4153 1008.93 70.1076C1008.95 69.9343 1010.2 63.1526 1010.24 62.9102C1010.26 62.8039 1010.28 62.7117 1010.3 62.6255C1010.01 64.024 1014.22 41.0598 1013.26 46.0085C1014.45 39.3465 1013.16 46.9658 1014.05 41.9577ZM1013.59 18.8739C1014.29 18.8748 1014.99 18.8757 1015.69 18.8765C1003.84 18.7297 990.175 18.4906 976.527 18.296C973.064 18.2466 977.047 18.3592 972.508 18.2791C968.872 18.215 964.849 18.1058 966.826 18.1225C967.308 18.1265 974.711 18.2659 978.417 18.3154C989.356 18.4614 986.593 18.3741 987.233 18.382C987.939 18.3907 994.823 18.5226 998.583 18.5748C1006.76 18.6883 1011.09 18.7278 1020.47 18.8805L1018.71 16.7316C1018.44 18.1717 1018.15 19.7326 1017.83 21.4475C1018.33 18.6774 1018.52 17.5236 1018.65 16.7214L1020.47 18.9373C1019.13 18.944 1018.76 18.9604 1013.59 18.8739ZM572.017 12.4659C571.566 12.4895 563.814 12.3521 560.997 12.3163C561.441 12.2925 569.199 12.43 572.017 12.4659ZM368.237 85.9939C365.856 86.0628 383.705 85.9283 379 85.9259C377.959 85.9253 370.48 85.9758 368.237 85.9939ZM448.419 85.3645C450.807 85.3312 441.192 85.3747 441.21 85.4128C441.224 85.4249 448.112 85.3688 448.419 85.3645ZM860.459 16.6384C860.007 16.6335 853.44 16.5287 853.235 16.5233C848.884 16.4087 870.5 16.7477 860.459 16.6384ZM545.893 84.502C537.571 84.6028 562.62 84.4109 554.966 84.4325C554.585 84.4337 546.293 84.4972 545.893 84.502ZM580.71 84.2066C578.715 84.2248 569.856 84.2816 569.739 84.2976C569.563 84.3234 579.703 84.2566 580.71 84.2066ZM695.723 14.3014C696.684 14.3708 685.003 14.1618 680.942 14.1108C679.978 14.0414 691.663 14.2504 695.723 14.3014ZM769.453 15.3954C720.208 14.7359 731.065 14.7721 772.386 15.4102C772.445 15.4467 772.561 15.437 769.453 15.3954ZM706.394 14.4882C708.184 14.4781 713.776 14.5686 717.555 14.6254C716.875 14.6405 709.12 14.5207 706.394 14.4882ZM346.983 86.0923C350.071 86.0218 363.75 85.9649 361.318 86.0034C360.752 86.0121 345.849 86.1263 346.983 86.0923ZM856.332 16.6271C857.479 16.6976 842.691 16.4643 841.56 16.4361C836.996 16.3226 855.135 16.6219 856.332 16.6271ZM625.828 13.3508C623.216 13.3559 615.8 13.2282 611.03 13.1595C613.203 13.1543 621.781 13.2923 625.828 13.3508ZM660.261 13.8758C659.962 13.8731 653.309 13.7743 653.012 13.7681C647.561 13.6489 666.38 13.9282 660.261 13.8758ZM11.7189 75.6877C11.7464 75.9077 12.3388 80.9111 12.358 81.0857C12.8487 85.5562 11.0709 70.5391 11.7189 75.6877Z" fill="black"/>
<path d="M339.5 7.50002L338.525 7.27605L320.025 87.776L321 88L321.975 88.224L340.475 7.724L339.5 7.50002ZM716 13L715.01 13.1443L725.51 85.1443L726.5 85L727.49 84.8557L716.99 12.8557L716 13Z" fill="black"/>
<path d="M0 -7.62939e-06L9 92.5L146 90.5L180.5 107L172 90.5L320 88.7317L339.5 6.99999L0 -7.62939e-06Z" fill="black"/>
</g>
<defs>
<clipPath id="clip0_3_11978">
<rect width="1022.25" height="107" fill="white"/>
</clipPath>
</defs>
</svg>
